<svg width="27" height="20" viewBox="0 0 27 20" fill="none" xmlns="http://www.w3.org/2000/svg">
<path d="M13.3013 19.6718C16.7478 19.6718 19.5418 16.9029 19.5418 13.4873C19.5418 10.0717 16.7478 7.30273 13.3013 7.30273C9.85476 7.30273 7.06079 10.0717 7.06079 13.4873C7.06079 16.9029 9.85476 19.6718 13.3013 19.6718Z" fill="url(#paint0_linear_24_415)"/>
<path d="M0.178404 6.34845L3.53045 10.2712C3.78007 10.5893 4.24365 10.6246 4.52893 10.3419C9.94927 5.53562 16.6534 5.53562 22.0737 10.3419C22.359 10.5893 22.8226 10.5539 23.0722 10.2712L26.4242 6.34845C26.6738 6.06572 26.6382 5.6063 26.3529 5.35892C18.5077 -1.46176 8.09494 -1.46176 0.249724 5.35892C-0.0355566 5.6063 -0.0712167 6.06572 0.178404 6.34845Z" fill="white"/>
<defs>
<linearGradient id="paint0_linear_24_415" x1="13.3039" y1="17.5401" x2="13.3039" y2="6.60158" gradientUnits="userSpaceOnUse">
<stop stop-color="white"/>
<stop offset="0.824" stop-color="white"/>
</linearGradient>
</defs>
</svg>
