<svg width="22" height="26" viewBox="0 0 22 26" fill="none" xmlns="http://www.w3.org/2000/svg">
<path d="M10.6766 13.0737C14.1828 13.0737 17.0251 10.2347 17.0251 6.73269C17.0251 3.23067 14.1828 0.391724 10.6766 0.391724C7.17044 0.391724 4.32812 3.23067 4.32812 6.73269C4.32812 10.2347 7.17044 13.0737 10.6766 13.0737Z" fill="url(#paint0_linear_24_375)"/>
<path d="M10.1424 25.72C6.0052 23.0483 2.54564 19.4503 0.0847129 15.1755C-0.0936151 14.8192 0.0133817 14.3918 0.370038 14.2137H0.405703L5.22056 11.8625C5.54155 11.6844 5.96954 11.8269 6.14787 12.1475C8.57313 16.2086 12.1754 19.4859 16.4909 21.4808C14.8859 23.0839 13.1383 24.5088 11.248 25.72C10.8914 25.8981 10.4634 25.8981 10.1424 25.72Z" fill="url(#paint1_linear_24_375)"/>
<path d="M11.2117 25.72C15.3846 23.0839 18.8085 19.4503 21.3051 15.2111C21.4834 14.8549 21.3764 14.4274 21.0198 14.2493H20.9841L16.1693 11.8981C15.8483 11.72 15.4203 11.8625 15.242 12.1831C12.8167 16.2442 9.21446 19.5216 4.89893 21.5165C6.46821 23.1195 8.25149 24.5445 10.1418 25.7557C10.4628 25.8981 10.8907 25.8981 11.2117 25.72Z" fill="white"/>
<defs>
<linearGradient id="paint0_linear_24_375" x1="10.6848" y1="2.50426" x2="10.6848" y2="15.553" gradientUnits="userSpaceOnUse">
<stop stop-color="white"/>
<stop offset="0.82" stop-color="white"/>
</linearGradient>
<linearGradient id="paint1_linear_24_375" x1="6.76545" y1="15.188" x2="11.1332" y2="24.3402" gradientUnits="userSpaceOnUse">
<stop stop-color="white"/>
<stop offset="0.62" stop-color="white"/>
</linearGradient>
</defs>
</svg>
