<svg width="23" height="22" viewBox="0 0 23 22" fill="none" xmlns="http://www.w3.org/2000/svg">
<path d="M0.789051 16.7891C0.573883 17.189 0.286993 17.6253 0.0718255 17.9889C-0.143342 18.3161 -0.0357583 18.7524 0.322854 18.9706L4.98482 21.8793C5.34343 22.0974 5.77377 21.9884 5.98893 21.6248C6.16824 21.2976 6.41927 20.8976 6.6703 20.4613C8.53508 17.3708 10.364 17.7344 13.735 19.3705L18.3611 21.5884C18.7197 21.7702 19.15 21.5884 19.3293 21.2248L21.5527 16.1346C21.6962 15.771 21.5527 15.3347 21.1941 15.1893C20.2259 14.7166 18.2893 13.8077 16.5321 12.9351C10.2206 9.88093 4.87723 10.0627 0.789051 16.7891Z" fill="white"/>
<path d="M21.6964 5.26342C21.9115 4.86348 22.1984 4.42717 22.4136 4.06359C22.6287 3.73636 22.5212 3.30006 22.1625 3.0819L17.5006 0.17321C17.142 -0.0449417 16.7116 0.0641343 16.4965 0.427721C16.3172 0.754949 16.0661 1.15489 15.8151 1.5912C13.9503 4.68169 12.1214 4.3181 8.75044 2.68196L4.1602 0.427721C3.80158 0.245928 3.37125 0.427721 3.19194 0.791308L0.968543 5.88152C0.825098 6.24511 0.968543 6.68141 1.32716 6.82685C2.29541 7.29951 4.23192 8.20848 5.98912 9.08108C12.2648 12.1716 17.6082 11.9898 21.6964 5.26342Z" fill="white"/>
</svg>
