<svg width="25" height="25" viewBox="0 0 25 25" fill="none" xmlns="http://www.w3.org/2000/svg">
<path d="M7.30613 11.872C6.95045 11.4911 6.39717 11.5127 6.15645 11.9977L0.325459 23.6561C0.0955248 24.1196 0.429648 24.6657 0.950594 24.6657H9.07015C9.33242 24.6657 9.56954 24.5327 9.69529 24.2812C11.4414 20.6598 10.3815 15.1557 7.30613 11.872Z" fill="url(#paint0_linear_24_359)"/>
<path d="M11.5851 1.26627C8.32289 6.43261 8.53845 12.1558 10.6869 16.4491C12.8354 20.7424 14.4844 24.0441 14.603 24.2777C14.7215 24.5148 14.9622 24.6621 15.2281 24.6621H23.3477C23.865 24.6621 24.2027 24.116 23.9728 23.6525C23.9728 23.6525 13.0509 1.80159 12.7743 1.25549C12.5228 0.770474 11.9012 0.766881 11.5851 1.26627Z" fill="white"/>
<defs>
<linearGradient id="paint0_linear_24_359" x1="10.5022" y1="13.6715" x2="4.34744" y2="24.3319" gradientUnits="userSpaceOnUse">
<stop stop-color="white"/>
<stop offset="0.9228" stop-color="white"/>
</linearGradient>
</defs>
</svg>
