<svg width="26" height="26" viewBox="0 0 26 26" fill="none" xmlns="http://www.w3.org/2000/svg">
<path d="M24.3397 0.891602H12.0991C12.0991 3.88603 14.5755 6.32336 17.618 6.32336H19.8821V8.44731C19.8821 11.4417 22.3586 13.8791 25.401 13.8791V1.93617C25.401 1.34425 24.9411 0.891602 24.3397 0.891602Z" fill="white"/>
<path d="M18.2899 6.88037H6.04932C6.04932 9.8748 8.52573 12.3121 11.5682 12.3121H13.8323V14.4709C13.8323 17.4653 16.3088 19.9027 19.3512 19.9027V7.92494C19.3512 7.36784 18.8913 6.88037 18.2899 6.88037Z" fill="url(#paint0_linear_24_403)"/>
<path d="M12.2406 12.9041H0C0 15.8985 2.47641 18.3358 5.51887 18.3358H7.78302V20.4598C7.78302 23.4542 10.2594 25.8915 13.3019 25.8915V13.9486C13.3019 13.3567 12.8066 12.9041 12.2406 12.9041Z" fill="white"/>
<defs>
<linearGradient id="paint0_linear_24_403" x1="19.0908" y1="6.91042" x2="13.9719" y2="12.274" gradientUnits="userSpaceOnUse">
<stop offset="0.176" stop-color="white"/>
<stop offset="1" stop-color="white"/>
</linearGradient>
</defs>
</svg>
