<svg width="70" height="71" viewBox="0 0 70 71" fill="none" xmlns="http://www.w3.org/2000/svg">
<rect width="70" height="70" transform="translate(0 0.0771484)" fill="white" fill-opacity="0.01"/>
<path fill-rule="evenodd" clip-rule="evenodd" d="M43.7355 32.1459C44.2822 32.6929 44.5894 33.4346 44.5894 34.208C44.5894 34.9814 44.2822 35.7231 43.7355 36.2701L30.3392 49.6663C29.7959 50.1988 29.0643 50.4953 28.3036 50.4915C27.5428 50.4876 26.8143 50.1837 26.2764 49.6458C25.7385 49.1079 25.4345 48.3794 25.4307 47.6186C25.4269 46.8579 25.7234 46.1263 26.2559 45.583L37.6309 34.208L26.2559 22.833C25.7234 22.2896 25.4269 21.5581 25.4307 20.7974C25.4345 20.0366 25.7385 19.3081 26.2764 18.7702C26.8143 18.2322 27.5428 17.9283 28.3036 17.9245C29.0643 17.9206 29.7959 18.2172 30.3392 18.7496L43.7355 32.1459Z" fill="#F5F5F5"/>
</svg>
