<svg width="1740" height="249" viewBox="0 0 1740 249" fill="none" xmlns="http://www.w3.org/2000/svg">
<rect width="361" height="32" transform="translate(0 0.891602)" fill="white" fill-opacity="0.01"/>
<path fill-rule="evenodd" clip-rule="evenodd" d="M146.328 2.31152V25.0335H149.164V17.5421L156.417 25.0335H160.272L152.195 16.9008L159.942 9.00133H156.252L149.164 16.5219V2.31152H146.328ZM46.1919 2.96696C45.9433 2.87679 45.6777 2.83965 45.4131 2.85807C45.1484 2.83965 44.8828 2.87679 44.6343 2.96696C44.3857 3.05713 44.1599 3.19822 43.9723 3.38068C43.7847 3.56314 43.6397 3.78269 43.547 4.02446C43.4543 4.26623 43.4161 4.52456 43.435 4.78193C43.435 5.29218 43.6434 5.78152 44.0144 6.14231C44.3853 6.50311 44.8885 6.7058 45.4131 6.7058C45.9377 6.7058 46.4408 6.50311 46.8118 6.14231C47.1827 5.78152 47.3911 5.29218 47.3911 4.78193C47.4101 4.52456 47.3719 4.26623 47.2792 4.02446C47.1865 3.78269 47.0414 3.56314 46.8538 3.38068C46.6662 3.19822 46.4405 3.05713 46.1919 2.96696ZM46.7992 9.00132H43.9632V25.0335H46.7992V9.00132ZM40.0071 3.98034H37.04L37.0513 18.8247C37.0513 20.9271 36.1859 22.3846 33.6796 22.3846C32.6305 22.3923 31.5895 22.2069 30.6113 21.838V24.6291C31.7582 25.0071 32.9633 25.1907 34.1741 25.172C38.2613 25.172 40.0071 22.5121 40.0071 18.6316V3.98034ZM53.8535 25.0335H51.085V9.00133H53.8535V11.8215C54.8089 9.93047 56.4572 8.58595 59.6903 8.77542V11.4717C56.0639 11.1074 53.8535 12.175 53.8535 15.5745V25.0335ZM67.4041 25.3651C69.9441 25.3651 71.9222 24.2757 72.9749 22.1587L72.9787 25.0335H75.8146V9.00133H72.9787V11.8325C71.9859 9.74828 70.1389 8.69162 67.7338 8.69162C63.1183 8.69162 60.8106 12.5066 60.8106 17.0284C60.8106 21.7433 63.0209 25.3651 67.4041 25.3651ZM72.9749 17.6697C72.9749 21.2295 70.7009 22.8 68.1609 22.8C65.2275 22.8 63.6465 20.8761 63.6353 17.0284C63.6353 13.3082 65.2837 11.2568 68.4793 11.2568C70.8994 11.2568 72.9749 12.8272 72.9749 16.3871V17.6697ZM83.2286 3.98034H86.2931L91.9126 22.319L98.0791 3.98034H101.571L107.737 22.319L113.375 3.98034H116.342L109.535 25.0335H105.744L99.75 7.04468L93.7558 25.0335H90.0619L83.2286 3.98034ZM124.206 8.69162C119.261 8.69162 116.361 12.1859 116.361 16.9956C116.361 21.8052 119.295 25.376 124.206 25.376C129.117 25.376 131.987 21.8052 131.987 16.9956C131.987 12.1859 129.151 8.69162 124.206 8.69162ZM124.206 22.8C120.681 22.8 119.13 20.0417 119.13 16.9956H119.133C119.133 13.9495 120.711 11.2568 124.206 11.2568C127.701 11.2568 129.219 13.9495 129.219 16.9956C129.219 20.0417 127.731 22.8 124.206 22.8ZM138.052 25.0335H135.284V9.00133H138.052V11.8215C139.008 9.93047 140.656 8.58595 143.889 8.77542V11.4717C140.263 11.1074 138.052 12.175 138.052 15.5745V25.0335ZM172.305 5.72202V25.0335H169.334V3.98034H174.478L179.39 16.0664L181.401 21.8708L183.413 16.0664L188.358 3.98034H193.139V25.0335H190.171V5.93335L187.631 13.5341L182.855 25.0335H179.985L175.272 13.5341L172.305 5.72202ZM203.493 25.3651C206.033 25.3651 208.012 24.2757 209.064 22.1587L209.068 25.0335H211.904V9.00133H209.068V11.8325C208.075 9.74828 206.228 8.69162 203.823 8.69162C199.208 8.69162 196.9 12.5066 196.9 17.0284C196.9 21.7433 199.11 25.3651 203.493 25.3651ZM209.064 17.6697C209.064 21.2295 206.79 22.8 204.25 22.8C201.317 22.8 199.736 20.8761 199.725 17.0284C199.725 13.3082 201.373 11.2568 204.569 11.2568C206.989 11.2568 209.064 12.8272 209.064 16.3871V17.6697ZM230.197 25.0335H227.361V15.3596C227.361 12.4738 226.174 11.1912 223.473 11.1912C220.85 11.1912 219.022 12.8928 219.022 16.132V25.0335H216.186V9.00133H219.022V11.6321C219.526 10.7213 220.279 9.96378 221.198 9.44298C222.117 8.92218 223.166 8.65838 224.229 8.68068C228.021 8.68068 230.197 11.2313 230.197 15.6401V25.0335ZM239.758 25.3651C242.298 25.3651 244.276 24.2757 245.329 22.1587L245.333 25.0335H248.169V9.00133H245.333V11.8325C244.34 9.74828 242.493 8.69162 240.088 8.69162C235.472 8.69162 233.164 12.5066 233.164 17.0284C233.164 21.7433 235.375 25.3651 239.758 25.3651ZM245.329 17.6697C245.329 21.2295 243.055 22.8 240.515 22.8C237.581 22.8 236.019 20.8761 236.019 17.0174C236.019 13.3082 237.649 11.2568 240.833 11.2568C243.253 11.2568 245.329 12.8272 245.329 16.3871V17.6697ZM263.558 22.1587C262.506 24.2756 260.528 25.3651 257.988 25.3651C253.627 25.3651 251.461 21.7542 251.461 17.0174C251.461 12.4956 253.735 8.68068 258.317 8.68068C260.726 8.68068 262.569 9.73735 263.562 11.8215V9.00133H266.334V23.5761C266.334 28.291 264.057 31.4646 258.156 31.4646C256.163 31.5214 254.175 31.2276 252.289 30.5974V27.9485C254.136 28.5656 256.073 28.8903 258.025 28.9104C262.146 28.9104 263.562 26.7606 263.562 23.7801L263.558 22.1587ZM258.748 22.8C261.284 22.8 263.558 21.2295 263.558 17.6697V16.3871C263.558 12.8272 261.483 11.2568 259.063 11.2568C255.863 11.2568 254.215 13.3082 254.215 17.0284C254.23 20.8761 255.811 22.8 258.748 22.8ZM269.628 16.9846C269.628 21.9036 272.329 25.3651 278.495 25.3651C280.177 25.3651 282.253 25.1101 283.598 24.4214V21.8708C281.993 22.4376 280.299 22.7262 278.592 22.7234C274.704 22.7234 272.891 20.9599 272.493 18.2344H284.523V16.9846C284.523 12.113 282.485 8.68068 277.405 8.68068C272.396 8.68068 269.628 12.1422 269.628 16.9846ZM281.661 15.8915H272.46V15.8733C272.759 13.0859 274.273 11.1875 277.274 11.1875C280.11 11.1875 281.496 12.8928 281.661 15.8915ZM301.902 25.0335H299.066V15.3595C299.066 12.4738 297.879 11.1912 295.174 11.1912C292.551 11.1912 290.727 12.8928 290.727 16.132V25.0335H287.891V9.00132H290.716V11.6321C291.219 10.7211 291.973 9.96328 292.891 9.44243C293.81 8.92159 294.86 8.65796 295.923 8.68068C298.725 8.68068 300.636 10.058 301.46 12.594C302.385 10.1236 304.592 8.68068 307.331 8.68068C311.021 8.68068 313.066 11.1183 313.066 15.6401V25.0335H310.23V16.132C310.241 12.8272 309.073 11.1875 306.353 11.1875C303.73 11.1875 301.902 12.8891 301.902 16.1284V25.0335ZM316.045 16.9846C316.045 21.9036 318.746 25.3651 324.912 25.3651C326.594 25.3651 328.67 25.1101 330.022 24.4105V21.8599C328.416 22.4312 326.72 22.7235 325.01 22.7234C321.121 22.7234 319.308 20.9599 318.911 18.2344H330.944V16.9846C330.944 12.113 328.902 8.68068 323.826 8.68068C318.813 8.68068 316.045 12.1422 316.045 16.9846ZM328.078 15.8915H318.881V15.8733C319.188 13.0859 320.686 11.1875 323.683 11.1875C326.527 11.1875 327.913 12.8928 328.078 15.8915ZM348.319 25.0335H345.483V15.3595C345.483 12.4738 344.288 11.1875 341.594 11.1875C338.972 11.1875 337.144 12.8891 337.144 16.1284V25.0335H334.308V9.00132H337.144V11.6321C337.648 10.7211 338.401 9.96328 339.32 9.44243C340.239 8.92159 341.288 8.65796 342.351 8.68068C346.143 8.68068 348.319 11.2313 348.319 15.6401V25.0335ZM360.581 22.2243C359.997 22.3551 359.401 22.4296 358.801 22.4465C357.055 22.4465 356.198 21.4846 356.194 20.0745V11.5519H360.577V9.00134H356.194V5.61271H353.425V9.00134H350.754V11.5774H353.425V20.1401C353.425 23.1206 355.141 25.1392 358.67 25.1392C359.316 25.1426 359.959 25.0567 360.581 24.8842V22.2243Z" fill="white"/>
<path d="M14.7681 3.85254L10.6846 19.5204C15.8807 20.9523 20.0279 19.0977 21.6164 13.0091L23.999 3.86347L14.7681 3.85254Z" fill="white"/>
<path d="M9.24595 25.0329L13.3295 9.36502C8.12954 7.94398 3.9861 9.79861 2.39765 15.8981L0 25.0329H9.24595Z" fill="white"/>
<g clip-path="url(#clip0_964_977)">
<rect width="405" height="32" transform="translate(476.25 0.891602)" fill="white" fill-opacity="0.01"/>
<path d="M683.841 21.8486L682.084 26.5699H678.857L687.14 5.64595H690.761L699.043 26.5699H695.816L694.059 21.8129C692.159 22.2063 690.546 22.3851 688.861 22.3851C687.247 22.3851 685.634 22.2063 683.841 21.8486ZM693.199 19.4164L688.968 7.97084L684.737 19.4522C686.315 19.7026 687.606 19.8457 688.896 19.8457C690.187 19.8457 691.585 19.6668 693.199 19.4164Z" fill="white"/>
<path d="M711.771 23.7085C710.767 25.8188 708.831 26.8918 706.393 26.8918C702.162 26.8918 700.011 23.2793 700.011 18.6295C700.011 14.1228 702.234 10.3672 706.716 10.3672C709.046 10.3672 710.839 11.4045 711.807 13.479V3.96484H714.567V26.5341H711.807V23.7085H711.771ZM707.11 24.3166C709.584 24.3166 711.771 22.7428 711.771 19.2376V17.9499C711.771 14.409 709.763 12.871 707.433 12.871C704.349 12.871 702.736 14.9097 702.736 18.5938C702.736 22.4209 704.278 24.3166 707.11 24.3166Z" fill="white"/>
<path d="M732.243 26.5699H729.482V16.9484C729.482 14.087 728.335 12.7994 725.718 12.7994C723.172 12.7994 721.415 14.4805 721.415 17.6995V26.5341H718.655V10.6533H721.415V13.2644C722.419 11.3687 724.32 10.3314 726.471 10.3314C729.196 10.3314 731.024 11.6906 731.849 14.2301C732.745 11.7621 734.896 10.3314 737.514 10.3314C741.099 10.3314 743.071 12.7636 743.071 17.2346V26.5699H740.31V17.6995C740.31 14.4089 739.163 12.7994 736.546 12.7994C734 12.7994 732.243 14.4805 732.243 17.6995V26.5699Z" fill="white"/>
<path d="M748.27 4.53707C749.381 4.53707 750.17 5.25242 750.17 6.43275C750.17 7.64885 749.381 8.32843 748.27 8.32843C747.158 8.32843 746.369 7.61308 746.369 6.43275C746.369 5.21665 747.158 4.53707 748.27 4.53707ZM746.871 10.6533H749.632V26.5699H746.871V10.6533Z" fill="white"/>
<path d="M767.344 26.5699H764.583V16.9484C764.583 14.087 763.436 12.7994 760.818 12.7994C758.273 12.7994 756.516 14.4805 756.516 17.6995V26.5341H753.755V10.6533H756.516V13.2644C757.52 11.3687 759.42 10.3314 761.571 10.3314C765.228 10.3314 767.344 12.8352 767.344 17.2346V26.5699Z" fill="white"/>
<path d="M772.578 4.53707C773.69 4.53707 774.479 5.25242 774.479 6.43275C774.479 7.64885 773.69 8.32843 772.578 8.32843C771.467 8.32843 770.678 7.61308 770.678 6.43275C770.642 5.21665 771.467 4.53707 772.578 4.53707ZM771.18 10.6533H773.941V26.5699H771.18V10.6533Z" fill="white"/>
<path d="M783.083 26.8918C780.681 26.8918 778.745 26.3553 777.526 25.7115V22.8143C778.888 23.6012 781.183 24.3881 783.191 24.3881C785.306 24.3881 786.382 23.5296 786.382 22.2778C786.382 21.0617 785.45 20.3821 782.438 19.631C778.888 18.7726 777.383 17.4134 777.383 14.8024C777.383 12.0483 779.534 10.3314 783.155 10.3314C785.234 10.3314 787.099 10.8322 788.282 11.476V14.3016C786.382 13.3359 784.804 12.8352 783.119 12.8352C781.111 12.8352 780.036 13.5505 780.036 14.7666C780.036 15.8754 780.789 16.5908 783.729 17.2703C787.278 18.1288 789.071 19.4522 789.071 22.2063C789.071 24.853 787.35 26.8918 783.083 26.8918Z" fill="white"/>
<path d="M798.536 23.9946C799.181 23.9946 799.791 23.8516 800.257 23.78V26.4268C799.791 26.5699 799.253 26.6772 798.393 26.6772C794.987 26.6772 793.302 24.6742 793.302 21.7055V13.1928H790.72V10.6533H793.302V7.2912H795.991V10.6533H800.221V13.1928H795.991V21.634C796.026 23.0289 796.851 23.9946 798.536 23.9946Z" fill="white"/>
<path d="M806.46 26.5699H803.771V10.6533H806.46V13.4432C807.392 11.5475 808.97 10.2241 812.125 10.403V13.0855C808.611 12.7279 806.46 13.8009 806.46 17.163V26.5699Z" fill="white"/>
<path d="M824.96 23.7086C823.956 25.8188 822.02 26.8919 819.582 26.8919C815.351 26.8919 813.2 23.2794 813.2 18.6296C813.2 14.1229 815.423 10.3673 819.905 10.3673C822.235 10.3673 824.028 11.4045 824.996 13.4791V10.6892H827.757V26.6057H824.996V23.7086H824.96ZM820.299 24.3166C822.773 24.3166 824.96 22.7428 824.96 19.2376V17.95C824.96 14.409 822.952 12.871 820.622 12.871C817.538 12.871 815.925 14.9098 815.925 18.5938C815.925 22.4209 817.467 24.3166 820.299 24.3166Z" fill="white"/>
<path d="M838.19 23.9946C838.835 23.9946 839.445 23.8516 839.911 23.78V26.4268C839.445 26.5699 838.907 26.6772 838.046 26.6772C834.64 26.6772 832.955 24.6742 832.955 21.7055V13.1928H830.374V10.6533H832.955V7.2912H835.644V10.6533H839.875V13.1928H835.644V21.634C835.644 23.0289 836.505 23.9946 838.19 23.9946Z" fill="white"/>
<path d="M844.823 4.53707C845.934 4.53707 846.723 5.25242 846.723 6.43275C846.723 7.64885 845.934 8.32843 844.823 8.32843C843.711 8.32843 842.923 7.61308 842.923 6.43275C842.923 5.21665 843.711 4.53707 844.823 4.53707ZM843.424 10.6533H846.185V26.5699H843.424V10.6533Z" fill="white"/>
<path d="M849.34 18.558C849.34 13.7652 852.137 10.2957 856.941 10.2957C861.71 10.2957 864.471 13.7652 864.471 18.558C864.471 23.3509 861.71 26.8561 856.941 26.8561C852.173 26.8919 849.34 23.3509 849.34 18.558ZM852.029 18.558C852.029 21.5983 853.535 24.3166 856.941 24.3166C860.312 24.3166 861.782 21.5625 861.782 18.558C861.782 15.5178 860.312 12.871 856.941 12.871C853.535 12.871 852.029 15.5535 852.029 18.558Z" fill="white"/>
<path d="M881.25 26.5699H878.489V16.9484C878.489 14.087 877.342 12.7994 874.725 12.7994C872.179 12.7994 870.422 14.4805 870.422 17.6995V26.5341H867.661V10.6533H870.422V13.2644C871.426 11.3687 873.326 10.3314 875.477 10.3314C879.134 10.3314 881.25 12.8352 881.25 17.2346V26.5699Z" fill="white"/>
<path d="M582.821 12.6144C582.821 15.503 584.162 17.7951 589.4 18.8047C592.525 19.4586 593.179 19.9652 593.179 21.007C593.179 22.0202 592.525 22.6741 590.323 22.6741C587.761 22.6741 584.726 21.8118 582.732 20.619V25.3219C584.309 26.0943 586.393 26.9602 590.262 26.9602C595.741 26.9602 597.911 24.5207 597.911 20.8885C597.911 17.4646 596.097 15.8587 590.973 14.7557C588.146 14.1306 587.46 13.5054 587.46 12.6108C587.46 11.4791 588.473 11.0049 590.348 11.0049C592.612 11.0049 594.843 11.6911 596.955 12.6432V8.14868C595.468 7.40499 593.176 6.80859 590.496 6.80859C585.441 6.80859 582.821 9.01453 582.821 12.6144Z" fill="white"/>
<path d="M653.192 7.10679V26.6656H657.36V11.7522L659.117 15.7114L665.009 26.6656H670.25V7.10679H666.083V19.7316L664.502 16.067L659.77 7.10679H653.192Z" fill="white"/>
<path d="M626.685 7.10679H622.129V26.6656H626.685V7.10679Z" fill="white"/>
<path d="M616.873 20.8921C616.873 17.4682 615.059 15.8623 609.936 14.7593C607.108 14.1342 606.422 13.509 606.422 12.6144C606.422 11.4827 607.435 11.0085 609.311 11.0085C611.574 11.0085 613.805 11.6947 615.918 12.6468V8.14868C614.43 7.40499 612.138 6.80859 609.458 6.80859C604.396 6.80859 601.777 9.01093 601.777 12.6144C601.777 15.503 603.117 17.7951 608.355 18.8047C611.481 19.4586 612.135 19.9652 612.135 21.007C612.135 22.0202 611.481 22.6741 609.278 22.6741C606.717 22.6741 603.681 21.8118 601.687 20.619V25.3219C603.264 26.0943 605.348 26.9602 609.217 26.9602C614.7 26.9638 616.873 24.5243 616.873 20.8921Z" fill="white"/>
<path d="M547.44 7.10679V26.6656H556.803L558.276 22.4405H552.025V7.10679H547.44Z" fill="white"/>
<path d="M528.945 7.10679V11.3354H534.004V26.6656H538.588V11.3354H544.006V7.10679H528.945Z" fill="white"/>
<path d="M522.295 7.10679H516.288L509.469 26.6656H514.678L515.645 23.3711C516.802 23.7088 518.027 23.8956 519.291 23.8956C520.559 23.8956 521.781 23.7088 522.938 23.3711L523.904 26.6656H529.114L522.295 7.10679ZM519.291 19.8466C518.422 19.8466 517.581 19.7208 516.784 19.4873L519.291 10.9474L521.799 19.4873C521.005 19.7208 520.164 19.8466 519.291 19.8466Z" fill="white"/>
<path d="M572.941 7.10679H566.931L560.112 26.6656H565.321L566.288 23.3711C567.445 23.7088 568.67 23.8956 569.934 23.8956C571.203 23.8956 572.424 23.7088 573.581 23.3711L574.547 26.6656H579.757L572.941 7.10679ZM569.938 19.8466C569.069 19.8466 568.228 19.7208 567.43 19.4873L569.938 10.9474L572.446 19.4873C571.648 19.7208 570.807 19.8466 569.938 19.8466Z" fill="white"/>
<path d="M643.097 7.10679H637.09L630.271 26.6656H635.48L636.446 23.3711C637.603 23.7088 638.828 23.8956 640.093 23.8956C641.361 23.8956 642.583 23.7088 643.74 23.3711L644.706 26.6656H649.916L643.097 7.10679ZM640.093 19.8466C639.224 19.8466 638.383 19.7208 637.585 19.4873L640.093 10.9474L642.601 19.4873C641.803 19.7208 640.963 19.8466 640.093 19.8466Z" fill="white"/>
<path d="M483.306 13.8716C482.951 13.4908 482.398 13.5123 482.157 13.9973L476.326 25.6557C476.096 26.1192 476.43 26.6653 476.951 26.6653H485.071C485.333 26.6653 485.57 26.5324 485.696 26.2809C487.442 22.6594 486.382 17.1553 483.306 13.8716Z" fill="url(#paint0_linear_964_977)"/>
<path d="M487.586 3.26615C484.324 8.43249 484.539 14.1557 486.688 18.449C488.836 22.7423 490.485 26.044 490.604 26.2776C490.722 26.5147 490.963 26.662 491.229 26.662H499.348C499.866 26.662 500.203 26.1159 499.974 25.6524C499.974 25.6524 489.052 3.80146 488.775 3.25537C488.524 2.77035 487.902 2.76676 487.586 3.26615Z" fill="white"/>
</g>
<g clip-path="url(#clip1_964_977)">
<rect width="209" height="32" transform="translate(996.5 0.891602)" fill="white" fill-opacity="0.01"/>
<path d="M1035.64 4.71665H1038.46V19.5662C1038.46 23.4818 1036.78 26.2153 1032.88 26.2153C1031.41 26.2153 1030.27 25.9567 1029.48 25.6612V22.8169C1030.34 23.1863 1031.38 23.371 1032.41 23.371C1034.81 23.371 1035.64 21.8934 1035.64 19.7509V4.71665Z" fill="white"/>
<path d="M1043.62 3.57151C1044.73 3.57151 1045.52 4.27336 1045.52 5.5293C1045.52 6.74829 1044.73 7.48708 1043.62 7.48708C1042.51 7.48708 1041.72 6.78523 1041.72 5.5293C1041.72 4.27336 1042.51 3.57151 1043.62 3.57151ZM1042.26 9.81426H1044.98V26.0676H1042.26V9.81426Z" fill="white"/>
<path d="M1051.71 26.0675H1049.06V9.81425H1051.71V12.6586C1052.64 10.7377 1054.22 9.37098 1057.3 9.55567V12.2892C1053.83 11.9198 1051.71 12.991 1051.71 16.4633V26.0675Z" fill="white"/>
<path d="M1069.97 23.1493C1068.97 25.2918 1067.07 26.4 1064.64 26.4C1060.45 26.4 1058.34 22.743 1058.34 17.9409C1058.34 13.3604 1060.56 9.4818 1064.96 9.4818C1067.25 9.4818 1069.04 10.553 1069.97 12.6586V9.81425H1072.7V26.0676H1069.97V23.1493ZM1065.36 23.7773C1067.79 23.7773 1069.94 22.1889 1069.94 18.5689V17.276C1069.94 13.6559 1067.97 12.0676 1065.64 12.0676C1062.6 12.0676 1061.02 14.1362 1061.02 17.904C1061.06 21.8565 1062.56 23.7773 1065.36 23.7773Z" fill="white"/>
<path d="M1088.74 26.4C1084.73 26.4 1082.86 25.5874 1081.25 24.7378V21.7457C1083.19 22.78 1086.12 23.5188 1088.88 23.5188C1091.99 23.5188 1093.18 22.2628 1093.18 20.3789C1093.18 18.495 1092.03 17.4977 1088.09 16.5003C1083.44 15.3182 1081.36 13.656 1081.36 10.1467C1081.36 6.82219 1083.83 4.34725 1088.63 4.34725C1091.64 4.34725 1093.53 5.08604 1094.97 5.8987V8.81691C1092.89 7.59791 1090.63 7.19158 1088.52 7.19158C1085.8 7.19158 1084.19 8.152 1084.19 10.1098C1084.19 11.8829 1085.51 12.7325 1089.17 13.6929C1093.53 14.838 1096.01 16.2787 1096.01 20.1203C1096.01 23.8882 1093.86 26.4 1088.74 26.4Z" fill="white"/>
<path d="M1098.4 17.904C1098.4 13.028 1101.16 9.4818 1105.89 9.4818C1110.58 9.4818 1113.34 13.028 1113.34 17.904C1113.34 22.78 1110.58 26.4 1105.89 26.4C1101.16 26.4 1098.4 22.78 1098.4 17.904ZM1101.05 17.904C1101.05 21.0069 1102.52 23.7773 1105.92 23.7773C1109.25 23.7773 1110.72 20.9699 1110.72 17.904C1110.72 14.838 1109.29 12.0676 1105.92 12.0676C1102.52 12.1045 1101.05 14.838 1101.05 17.904Z" fill="white"/>
<path d="M1124.33 9.81424V12.4H1120.25V26.0675H1117.6V12.4H1115.02V9.81424H1117.56V8.04116C1117.56 5.01213 1119.21 2.98047 1122.57 2.98047C1123.4 2.98047 1123.93 3.12823 1124.4 3.23904V5.8248C1123.93 5.71398 1123.33 5.67704 1122.68 5.67704C1121 5.67704 1120.17 6.6744 1120.17 8.15197V9.81424H1124.33Z" fill="white"/>
<path d="M1133.46 23.4449C1134.1 23.4449 1134.68 23.2971 1135.18 23.2232V25.9198C1134.71 26.0676 1134.17 26.1784 1133.35 26.1784C1129.99 26.1784 1128.34 24.1467 1128.34 21.1177V12.4H1125.76V9.81427H1128.3V6.37891H1130.95V9.81427H1135.14V12.4H1130.95V21.0069C1130.99 22.4475 1131.78 23.4449 1133.46 23.4449Z" fill="white"/>
<path d="M1153.51 26.0675L1150.79 18.1995L1149.36 13.1757L1147.92 18.1995L1145.2 26.0675H1141.73L1135.93 9.81424H1138.94L1143.48 23.5926L1148.07 9.81424H1150.65L1155.23 23.5926L1159.78 9.81424H1162.78L1156.98 26.0675H1153.51Z" fill="white"/>
<path d="M1175.14 23.1493C1174.13 25.2918 1172.24 26.4 1169.8 26.4C1165.61 26.4 1163.5 22.743 1163.5 17.9409C1163.5 13.3604 1165.72 9.4818 1170.12 9.4818C1172.42 9.4818 1174.21 10.553 1175.14 12.6586V9.81425H1177.86V26.0676H1175.14V23.1493ZM1170.55 23.7773C1172.99 23.7773 1175.14 22.1889 1175.14 18.5689V17.276C1175.14 13.6559 1173.17 12.0676 1170.84 12.0676C1167.8 12.0676 1166.22 14.1362 1166.22 17.904C1166.22 21.8565 1167.76 23.7773 1170.55 23.7773Z" fill="white"/>
<path d="M1184.59 26.0675H1181.94V9.81425H1184.59V12.6586C1185.52 10.7377 1187.1 9.37098 1190.18 9.55567V12.2892C1186.7 11.9198 1184.59 12.991 1184.59 16.4633V26.0675Z" fill="white"/>
<path d="M1199.74 26.4C1193.83 26.4 1191.25 22.8908 1191.25 17.904C1191.25 12.991 1193.9 9.4818 1198.7 9.4818C1203.57 9.4818 1205.5 12.9541 1205.5 17.904V19.1599H1194.01C1194.4 21.9303 1196.12 23.7034 1199.84 23.7034C1201.67 23.7034 1203.21 23.334 1204.64 22.8169V25.4026C1203.32 26.1414 1201.35 26.4 1199.74 26.4ZM1193.97 16.7588H1202.74C1202.6 13.7298 1201.28 12.0306 1198.55 12.0306C1195.69 12.0306 1194.26 13.9515 1193.97 16.7588Z" fill="white"/>
<path d="M1022.42 14.6159L1010.75 2.57366L1009.61 1.3916L1000.83 10.4417L996.822 14.6159C996.393 15.0591 996.393 15.761 996.822 16.1673L1004.84 24.4417L1009.61 29.3547L1018.38 20.3045L1018.52 20.1568L1022.42 16.1673C1022.85 15.7241 1022.85 15.0222 1022.42 14.6159ZM1009.61 19.5288L1005.59 15.3916L1009.61 11.2544L1013.62 15.3916L1009.61 19.5288Z" fill="white"/>
<path d="M1009.6 11.2546C1006.99 8.558 1006.95 4.16222 1009.57 1.42871L1000.83 10.4788L1005.59 15.3918L1009.6 11.2546Z" fill="white"/>
<path d="M1013.65 15.3545L1009.61 19.5286C1012.26 22.2621 1012.26 26.6579 1009.61 29.3914L1018.41 20.3044L1013.65 15.3545Z" fill="white"/>
</g>
<g clip-path="url(#clip2_964_977)">
<rect width="147" height="32" transform="translate(1320.75 0.891602)" fill="white" fill-opacity="0.01"/>
<path d="M1356.89 5.49989H1359.74V19.5548C1359.74 23.2608 1358.04 25.8481 1354.1 25.8481C1352.62 25.8481 1351.46 25.6033 1350.67 25.3236V22.6315C1351.54 22.9811 1352.59 23.156 1353.63 23.156C1356.05 23.156 1356.89 21.7575 1356.89 19.7296V5.49989Z" fill="white"/>
<path d="M1364.91 4.41604C1366.03 4.41604 1366.82 5.08033 1366.82 6.26905C1366.82 7.42282 1366.03 8.12207 1364.91 8.12207C1363.79 8.12207 1362.99 7.45778 1362.99 6.26905C1362.99 5.08033 1363.79 4.41604 1364.91 4.41604ZM1363.53 10.3247H1366.28V25.7082H1363.53V10.3247Z" fill="white"/>
<path d="M1373.11 25.7082H1370.44V10.3247H1373.11V13.0168C1374.05 11.1988 1375.64 9.90514 1378.75 10.08V12.6672C1375.24 12.3176 1373.11 13.3315 1373.11 16.6179V25.7082Z" fill="white"/>
<path d="M1391.58 22.9462C1390.56 24.974 1388.65 26.0229 1386.19 26.0229C1381.96 26.0229 1379.83 22.5616 1379.83 18.0165C1379.83 13.6811 1382.07 10.01 1386.52 10.01C1388.83 10.01 1390.64 11.024 1391.58 13.0168V10.3247H1394.32V25.7082H1391.58V22.9462ZM1386.91 23.5405C1389.37 23.5405 1391.54 22.0371 1391.54 18.6108V17.3871C1391.54 13.9608 1389.55 12.4574 1387.2 12.4574C1384.13 12.4574 1382.54 14.4153 1382.54 17.9815C1382.58 21.7225 1384.1 23.5405 1386.91 23.5405Z" fill="white"/>
<path d="M1404.51 21.1631L1402.78 25.7082H1399.56L1407.8 5.49989H1411.41L1419.65 25.7082H1416.44L1414.7 21.1281C1412.82 21.5127 1411.2 21.6875 1409.54 21.6875C1407.91 21.6875 1406.28 21.4778 1404.51 21.1631ZM1413.84 18.8206L1409.61 7.73749L1405.38 18.8556C1406.93 19.1003 1408.23 19.2402 1409.5 19.2402C1410.84 19.2052 1412.21 19.0653 1413.84 18.8206Z" fill="white"/>
<path d="M1425.8 25.8131C1423.19 25.8131 1421.53 24.6244 1421.53 21.7924V3.8916H1424.28V21.4428C1424.28 22.8413 1425.22 23.3307 1426.41 23.3307C1426.7 23.3307 1426.88 23.3307 1427.21 23.2958V25.6732C1426.99 25.7432 1426.52 25.8131 1425.8 25.8131Z" fill="white"/>
<path d="M1431.25 4.41604C1432.37 4.41604 1433.17 5.08033 1433.17 6.26905C1433.17 7.42282 1432.37 8.12207 1431.25 8.12207C1430.13 8.12207 1429.34 7.45778 1429.34 6.26905C1429.34 5.08033 1430.13 4.41604 1431.25 4.41604ZM1429.84 10.3247H1432.59V25.7082H1429.84V10.3247Z" fill="white"/>
<path d="M1447.44 22.9462C1446.43 24.974 1444.51 26.0229 1442.06 26.0229C1437.87 26.0229 1435.77 22.5616 1435.77 18.0165C1435.77 13.6811 1437.97 10.01 1442.38 10.01C1444.69 10.01 1446.5 11.024 1447.44 13.0168V10.3247H1450.12V24.3097C1450.12 28.8199 1447.91 31.8616 1442.24 31.8616C1439.56 31.8616 1438.12 31.512 1436.56 31.0225V28.4353C1438.3 28.9947 1440.14 29.3443 1442.09 29.3443C1446.07 29.3443 1447.44 27.2815 1447.44 24.4146V22.9462ZM1442.78 23.5405C1445.24 23.5405 1447.41 22.0371 1447.41 18.6108V17.3871C1447.41 13.9608 1445.42 12.4574 1443.07 12.4574C1440 12.4574 1438.41 14.4153 1438.41 17.9815C1438.44 21.7225 1439.96 23.5405 1442.78 23.5405Z" fill="white"/>
<path d="M1467.75 25.7082H1465V16.4082C1465 13.6462 1463.85 12.4225 1461.25 12.4225C1458.72 12.4225 1456.94 14.0657 1456.94 17.1774V25.7432H1454.2V10.3597H1456.94V12.877C1457.96 11.0589 1459.84 10.045 1461.97 10.045C1465.62 10.045 1467.71 12.4924 1467.71 16.7228V25.7082H1467.75Z" fill="white"/>
<path d="M1320.75 6.67969C1320.75 10.4088 1323.79 13.45 1327.51 13.45H1333.76V19.7496H1340.52V7.80203C1340.52 7.22276 1340.05 6.71589 1339.47 6.71589L1320.75 6.67969Z" fill="url(#paint1_linear_964_977)"/>
<path d="M1340.48 26.4839C1340.48 22.7548 1337.44 19.7498 1333.72 19.7498H1327.51V13.4502H1320.75V25.3978C1320.75 25.977 1321.22 26.4839 1321.8 26.4839H1340.48Z" fill="url(#paint2_linear_964_977)"/>
</g>
<g clip-path="url(#clip3_964_977)">
<path d="M1613.01 15.756C1613.01 9.55752 1616.57 5.17584 1622.96 5.17584C1629.31 5.17584 1632.87 9.5219 1632.87 15.756C1632.87 22.0257 1629.31 26.4074 1622.96 26.4074C1616.61 26.4074 1613.01 22.0257 1613.01 15.756ZM1615.86 15.756C1615.86 20.1021 1617.89 23.7356 1622.99 23.7356C1628.06 23.7356 1630.09 20.1377 1630.09 15.756C1630.09 11.4812 1628.06 7.88322 1622.99 7.88322C1617.89 7.88322 1615.86 11.4812 1615.86 15.756Z" fill="white"/>
<path d="M1639.19 23.3438V32.214H1636.47V10.4481H1639.19V13.2623C1640.18 11.1962 1642.07 10.1275 1644.5 10.1275C1648.67 10.1275 1650.78 13.6542 1650.78 18.2852C1650.78 22.7025 1648.57 26.443 1644.18 26.443C1641.9 26.4074 1640.15 25.3743 1639.19 23.3438ZM1643.79 12.6211C1641.36 12.6211 1639.22 14.1529 1639.22 17.644V18.8908C1639.22 22.3819 1641.18 23.9137 1643.5 23.9137C1646.53 23.9137 1648.1 21.9188 1648.1 18.2852C1648.07 14.5092 1646.57 12.6211 1643.79 12.6211Z" fill="white"/>
<path d="M1658.84 26.4074C1656.48 26.4074 1654.56 25.873 1653.38 25.2318V22.3819C1654.74 23.1656 1656.98 23.9137 1658.98 23.9137C1661.05 23.9137 1662.12 23.0588 1662.12 21.8476C1662.12 20.672 1661.19 19.9595 1658.23 19.2471C1654.74 18.3921 1653.27 17.0384 1653.27 14.4735C1653.27 11.7305 1655.38 10.0918 1658.94 10.0918C1660.98 10.0918 1662.83 10.5906 1664.01 11.2318V14.0104C1662.12 13.0842 1660.58 12.5855 1658.91 12.5855C1656.95 12.5855 1655.88 13.2623 1655.88 14.5091C1655.88 15.6135 1656.63 16.2903 1659.51 17.0028C1663.01 17.8577 1664.76 19.1402 1664.76 21.8476C1664.76 24.4481 1663.05 26.4074 1658.84 26.4074Z" fill="white"/>
<path d="M1679.06 23.2725C1678.06 25.3387 1676.17 26.4074 1673.75 26.4074C1669.61 26.4074 1667.54 22.8806 1667.54 18.2496C1667.54 13.8323 1669.72 10.0918 1674.07 10.0918C1676.35 10.0918 1678.13 11.1249 1679.06 13.1555V10.4481H1681.7V24.6974C1681.7 29.2929 1679.52 32.3921 1673.92 32.3921C1671.28 32.3921 1669.86 32.0359 1668.32 31.5371V28.901C1670.04 29.471 1671.86 29.8272 1673.78 29.8272C1677.7 29.8272 1679.06 27.7254 1679.06 24.8043V23.2725ZM1674.46 23.9137C1676.88 23.9137 1679.02 22.3819 1679.02 18.8908V17.644C1679.02 14.1529 1677.06 12.6211 1674.74 12.6211C1671.71 12.6211 1670.14 14.616 1670.14 18.2496C1670.18 22.0257 1671.68 23.9137 1674.46 23.9137Z" fill="white"/>
<path d="M1693.25 26.4074C1687.37 26.4074 1684.8 23.0231 1684.8 18.214C1684.8 13.4761 1687.44 10.0918 1692.22 10.0918C1697.07 10.0918 1699 13.4404 1699 18.214V19.4252H1687.55C1687.94 22.0969 1689.65 23.8069 1693.36 23.8069C1695.18 23.8069 1696.71 23.4506 1698.14 22.9519V25.4455C1696.86 26.158 1694.86 26.4074 1693.25 26.4074ZM1687.51 17.1453H1696.29C1696.14 14.2242 1694.82 12.5855 1692.11 12.5855C1689.26 12.5499 1687.8 14.4023 1687.51 17.1453Z" fill="white"/>
<path d="M1715.55 26.1224H1712.83V16.6466C1712.83 13.8323 1711.69 12.5855 1709.13 12.5855C1706.63 12.5855 1704.88 14.2598 1704.88 17.4303V26.1224H1702.17V10.4481H1704.88V13.013C1705.88 11.1606 1707.73 10.1275 1709.84 10.1275C1713.44 10.1275 1715.51 12.6211 1715.51 16.9316V26.1224H1715.55Z" fill="white"/>
<path d="M1720.72 4.42773C1721.82 4.42773 1722.61 5.10458 1722.61 6.31578C1722.61 7.49135 1721.82 8.20382 1720.72 8.20382C1719.61 8.20382 1718.83 7.52697 1718.83 6.31578C1718.83 5.10458 1719.61 4.42773 1720.72 4.42773ZM1719.33 10.4481H1722.04V26.1224H1719.33V10.4481Z" fill="white"/>
<path d="M1734.23 26.4074C1728.35 26.4074 1725.78 23.0231 1725.78 18.214C1725.78 13.4761 1728.42 10.0918 1733.2 10.0918C1738.05 10.0918 1739.98 13.4404 1739.98 18.214V19.4252H1728.53C1728.92 22.0969 1730.63 23.8069 1734.34 23.8069C1736.16 23.8069 1737.69 23.4506 1739.12 22.9519V25.4455C1737.8 26.158 1735.84 26.4074 1734.23 26.4074ZM1728.49 17.1453H1737.27C1737.12 14.2242 1735.8 12.5855 1733.09 12.5855C1730.2 12.5499 1728.78 14.4023 1728.49 17.1453Z" fill="white"/>
<path d="M1593.68 17.0735C1597.18 17.0735 1600.03 14.2346 1600.03 10.7326C1600.03 7.23055 1597.18 4.3916 1593.68 4.3916C1590.17 4.3916 1587.33 7.23055 1587.33 10.7326C1587.33 14.2346 1590.17 17.0735 1593.68 17.0735Z" fill="url(#paint3_linear_964_977)"/>
<path d="M1593.14 29.7203C1589.01 27.0485 1585.55 23.4505 1583.08 19.1757C1582.91 18.8195 1583.01 18.392 1583.37 18.2139H1583.41L1588.22 15.8627C1588.54 15.6846 1588.97 15.8271 1589.15 16.1477C1591.57 20.2088 1595.18 23.4862 1599.49 25.4811C1597.89 27.0841 1596.14 28.5091 1594.25 29.7203C1593.89 29.8984 1593.46 29.8984 1593.14 29.7203Z" fill="url(#paint4_linear_964_977)"/>
<path d="M1594.21 29.7198C1598.38 27.0837 1601.81 23.4501 1604.3 19.2109C1604.48 18.8546 1604.38 18.4272 1604.02 18.2491H1603.98L1599.17 15.8979C1598.85 15.7198 1598.42 15.8623 1598.24 16.1829C1595.82 20.244 1592.21 23.5213 1587.9 25.5162C1589.47 27.1193 1591.25 28.5442 1593.14 29.7554C1593.46 29.8979 1593.89 29.8979 1594.21 29.7198Z" fill="white"/>
</g>
<g clip-path="url(#clip4_964_977)">
<rect width="252" height="32" transform="translate(0 108.892)" fill="white" fill-opacity="0.01"/>
<path d="M36.5555 113.155H39.3825V127.476C39.3825 131.252 37.7006 133.888 33.8 133.888C32.3328 133.888 31.1877 133.639 30.4004 133.354V130.611C31.2592 130.967 32.297 131.145 33.3348 131.145C35.7324 131.145 36.5555 129.72 36.5555 127.654V113.155Z" fill="white"/>
<path d="M44.5715 112.051C45.6808 112.051 46.4681 112.728 46.4681 113.939C46.4681 115.115 45.6808 115.827 44.5715 115.827C43.4621 115.827 42.6749 115.15 42.6749 113.939C42.6749 112.728 43.4621 112.051 44.5715 112.051ZM43.1759 118.071H45.8955V133.746H43.1759V118.071Z" fill="white"/>
<path d="M52.6229 133.746H49.9748V118.071H52.6229V120.814C53.5534 118.962 55.1279 117.644 58.2054 117.822V120.458C54.7343 120.102 52.6229 121.135 52.6229 124.484V133.746Z" fill="white"/>
<path d="M70.8735 130.932C69.8715 132.998 67.9749 134.067 65.5415 134.067C61.3546 134.067 59.2433 130.54 59.2433 125.909C59.2433 121.491 61.462 117.751 65.8636 117.751C68.1538 117.751 69.9431 118.784 70.8735 120.814V118.071H73.5932V133.746H70.8735V130.932ZM66.293 131.537C68.7264 131.537 70.8735 130.005 70.8735 126.514V125.267C70.8735 121.776 68.9053 120.244 66.5793 120.244C63.5375 120.244 61.963 122.239 61.963 125.873C61.963 129.685 63.5017 131.537 66.293 131.537Z" fill="white"/>
<path d="M89.625 134.067C85.617 134.067 83.7562 133.283 82.1459 132.464V129.578C84.0783 130.575 87.0127 131.288 89.7681 131.288C92.8814 131.288 94.0624 130.077 94.0624 128.26C94.0624 126.443 92.9172 125.481 88.9809 124.519C84.3288 123.379 82.2532 121.776 82.2532 118.392C82.2532 115.186 84.7224 112.799 89.5176 112.799C92.5236 112.799 94.4202 113.512 95.8516 114.295V117.11C93.7761 115.934 91.5216 115.542 89.4103 115.542C86.6906 115.542 85.0803 116.468 85.0803 118.356C85.0803 120.066 86.4043 120.886 90.0544 121.812C94.4202 122.916 96.8894 124.306 96.8894 128.011C96.8894 131.644 94.7423 134.067 89.625 134.067Z" fill="white"/>
<path d="M107.768 134.067C101.864 134.067 99.2871 130.682 99.2871 125.873C99.2871 121.135 101.935 117.751 106.73 117.751C111.597 117.751 113.53 121.099 113.53 125.873V127.084H102.043C102.436 129.756 104.154 131.466 107.876 131.466C109.701 131.466 111.239 131.11 112.671 130.611V133.105C111.347 133.817 109.379 134.067 107.768 134.067ZM102.007 124.769H110.81C110.667 121.848 109.343 120.209 106.623 120.209C103.724 120.209 102.293 122.061 102.007 124.769Z" fill="white"/>
<path d="M119.363 133.746H116.714V118.071H119.363V120.814C120.293 118.962 121.867 117.644 124.945 117.822V120.458C121.474 120.102 119.363 121.135 119.363 124.484V133.746Z" fill="white"/>
<path d="M131.637 133.746L125.518 118.071H128.345L133.462 131.466L138.544 118.071H141.371L135.251 133.746H131.637Z" fill="white"/>
<path d="M145.092 112.051C146.201 112.051 146.989 112.728 146.989 113.939C146.989 115.115 146.201 115.827 145.092 115.827C143.983 115.827 143.196 115.15 143.196 113.939C143.196 112.728 143.983 112.051 145.092 112.051ZM143.697 118.071H146.416V133.746H143.697V118.071Z" fill="white"/>
<path d="M161.625 133.354C160.695 133.853 159.227 134.067 157.796 134.067C152.178 134.067 149.565 130.682 149.565 125.873C149.565 121.135 152.178 117.751 157.796 117.751C159.227 117.751 160.301 117.929 161.553 118.499V120.993C160.551 120.529 159.478 120.244 158.011 120.244C153.931 120.244 152.249 122.809 152.249 125.873C152.249 128.937 153.967 131.502 158.082 131.502C159.693 131.502 160.695 131.288 161.661 130.932V133.354H161.625Z" fill="white"/>
<path d="M172.217 134.067C166.313 134.067 163.736 130.682 163.736 125.873C163.736 121.135 166.384 117.751 171.18 117.751C176.046 117.751 177.979 121.099 177.979 125.873V127.084H166.492C166.885 129.756 168.603 131.466 172.325 131.466C174.15 131.466 175.689 131.11 177.12 130.611V133.105C175.796 133.817 173.828 134.067 172.217 134.067ZM166.456 124.769H175.259C175.116 121.848 173.792 120.209 171.072 120.209C168.174 120.209 166.742 122.061 166.456 124.769Z" fill="white"/>
<path d="M187.319 113.155H194.941C201.633 113.155 204.889 117.323 204.889 123.486C204.889 129.72 201.597 133.746 194.941 133.746H187.319V113.155ZM190.146 115.863V131.074H194.977C199.701 131.074 202.062 128.581 202.062 123.629C202.062 118.606 199.844 115.898 194.834 115.898H190.146V115.863Z" fill="white"/>
<path d="M215.697 134.067C209.792 134.067 207.215 130.682 207.215 125.873C207.215 121.135 209.864 117.751 214.659 117.751C219.526 117.751 221.458 121.099 221.458 125.873V127.084H209.971C210.365 129.756 212.082 131.466 215.804 131.466C217.629 131.466 219.168 131.11 220.599 130.611V133.105C219.311 133.817 217.307 134.067 215.697 134.067ZM209.935 124.769H218.738C218.595 121.848 217.271 120.209 214.551 120.209C211.689 120.209 210.221 122.061 209.935 124.769Z" fill="white"/>
<path d="M229.617 134.067C227.255 134.067 225.323 133.532 224.142 132.891V130.041C225.502 130.825 227.756 131.573 229.76 131.573C231.836 131.573 232.909 130.718 232.909 129.507C232.909 128.331 231.979 127.619 229.009 126.906C225.502 126.051 224.034 124.697 224.034 122.133C224.034 119.39 226.146 117.751 229.724 117.751C231.764 117.751 233.625 118.25 234.806 118.891V121.669C232.909 120.743 231.37 120.244 229.689 120.244C227.72 120.244 226.647 120.921 226.647 122.168C226.647 123.273 227.398 123.949 230.297 124.662C233.804 125.517 235.557 126.799 235.557 129.507C235.557 132.072 233.84 134.067 229.617 134.067Z" fill="white"/>
<path d="M238.671 133.746V111.517H241.39V125.41L248.154 118.071H251.697L244.289 125.766L252.019 133.746H248.333L241.39 126.407V133.746H238.671Z" fill="white"/>
<path d="M12.6159 120.542L19.9876 120.578C20.918 120.578 21.4548 121.646 20.918 122.394L10.0393 136.892C6.60393 134.363 5.92401 129.518 8.46477 126.099L12.6159 120.542Z" fill="white"/>
<path d="M8.46518 126.099L1.12919 126.063C0.198775 126.063 -0.338004 124.995 0.198775 124.246L11.0059 109.892C14.4413 112.421 15.1212 117.265 12.5805 120.684L8.46518 126.099Z" fill="white"/>
</g>
<g clip-path="url(#clip5_964_977)">
<rect width="298" height="32" transform="translate(455.75 108.892)" fill="white" fill-opacity="0.01"/>
<path d="M664.88 130.012L663.112 134.775H659.865L668.199 113.67H671.843L680.176 134.775H676.929L675.162 129.976C673.249 130.373 671.626 130.554 669.93 130.554C668.307 130.554 666.684 130.373 664.88 130.012ZM674.296 127.559L670.039 116.015L665.782 127.595C667.369 127.848 668.668 127.992 669.967 127.992C671.265 127.992 672.636 127.812 674.296 127.559Z" fill="white"/>
<path d="M693.416 134.342C692.442 134.847 690.962 135.063 689.483 135.063C683.783 135.063 681.114 131.6 681.114 126.693C681.114 121.859 683.783 118.36 689.483 118.36C690.926 118.36 692.045 118.54 693.307 119.117V121.715C692.297 121.246 691.179 120.957 689.664 120.957C685.479 120.957 683.783 123.591 683.783 126.693C683.783 129.796 685.515 132.43 689.736 132.43C691.359 132.43 692.405 132.213 693.38 131.852V134.342H693.416Z" fill="white"/>
<path d="M707.919 134.342C706.945 134.847 705.466 135.063 703.987 135.063C698.287 135.063 695.617 131.6 695.617 126.693C695.617 121.859 698.287 118.36 703.987 118.36C705.43 118.36 706.548 118.54 707.811 119.117V121.715C706.801 121.246 705.682 120.957 704.167 120.957C699.982 120.957 698.287 123.591 698.287 126.693C698.287 129.796 700.018 132.43 704.239 132.43C705.863 132.43 706.909 132.213 707.883 131.852V134.342H707.919Z" fill="white"/>
<path d="M718.741 135.099C712.752 135.099 710.119 131.636 710.119 126.73C710.119 121.895 712.824 118.396 717.695 118.396C722.637 118.396 724.621 121.823 724.621 126.73V127.992H712.896C713.293 130.734 715.061 132.502 718.849 132.502C720.725 132.502 722.276 132.141 723.719 131.636V134.161C722.384 134.811 720.364 135.099 718.741 135.099ZM712.86 125.575H721.807C721.663 122.581 720.292 120.885 717.55 120.885C714.628 120.885 713.149 122.797 712.86 125.575Z" fill="white"/>
<path d="M732.919 135.099C730.502 135.099 728.554 134.558 727.328 133.909V130.987C728.699 131.78 731.007 132.574 733.028 132.574C735.156 132.574 736.238 131.708 736.238 130.445C736.238 129.219 735.3 128.533 732.27 127.776C728.698 126.91 727.183 125.539 727.183 122.905C727.183 120.128 729.348 118.396 732.992 118.396C735.084 118.396 736.96 118.901 738.15 119.55V122.4C736.238 121.426 734.651 120.921 732.955 120.921C730.935 120.921 729.853 121.643 729.853 122.869C729.853 123.988 730.611 124.709 733.569 125.395C737.14 126.261 738.944 127.595 738.944 130.373C738.944 133.043 737.212 135.099 732.919 135.099Z" fill="white"/>
<path d="M747.17 135.099C744.753 135.099 742.805 134.558 741.578 133.909V130.987C742.949 131.78 745.258 132.574 747.278 132.574C749.407 132.574 750.489 131.708 750.489 130.445C750.489 129.219 749.551 128.533 746.521 127.776C742.949 126.91 741.434 125.539 741.434 122.905C741.434 120.128 743.598 118.396 747.242 118.396C749.335 118.396 751.211 118.901 752.401 119.55V122.4C750.489 121.426 748.902 120.921 747.206 120.921C745.186 120.921 744.104 121.643 744.104 122.869C744.104 123.988 744.861 124.709 747.819 125.395C751.391 126.261 753.195 127.595 753.195 130.373C753.231 133.043 751.499 135.099 747.17 135.099Z" fill="white"/>
<path d="M578.116 128.966C578.116 125.539 576.276 123.915 571.153 122.797C568.303 122.184 567.618 121.534 567.618 120.632C567.618 119.514 568.628 119.009 570.504 119.009C572.777 119.009 575.014 119.695 577.142 120.669V116.159C575.663 115.401 573.354 114.824 570.648 114.824C565.562 114.824 562.928 117.025 562.928 120.669C562.928 123.555 564.263 125.864 569.53 126.874C572.669 127.523 573.318 128.028 573.318 129.074C573.318 130.084 572.669 130.734 570.432 130.734C567.87 130.734 564.804 129.868 562.82 128.677V133.403C564.407 134.197 566.5 135.063 570.396 135.063C575.915 135.063 578.116 132.61 578.116 128.966Z" fill="white"/>
<path d="M633.601 115.113V134.774H637.786V119.803L639.554 123.771L645.47 134.774H650.738V115.113H646.553V127.812L644.965 124.132L640.203 115.113H633.601Z" fill="white"/>
<path d="M607.014 115.113H602.432V134.738H607.014V115.113Z" fill="white"/>
<path d="M597.128 128.966C597.128 125.539 595.288 123.915 590.166 122.797C587.316 122.184 586.63 121.534 586.63 120.632C586.63 119.514 587.64 119.009 589.516 119.009C591.789 119.009 594.026 119.695 596.154 120.669V116.159C594.675 115.401 592.366 114.824 589.661 114.824C584.574 114.824 581.94 117.025 581.94 120.669C581.94 123.555 583.275 125.864 588.542 126.874C591.681 127.523 592.33 128.028 592.33 129.074C592.33 130.084 591.681 130.734 589.444 130.734C586.883 130.734 583.816 129.868 581.832 128.677V133.403C583.419 134.197 585.512 135.063 589.408 135.063C594.964 135.063 597.128 132.61 597.128 128.966Z" fill="white"/>
<path d="M527.43 115.113V134.774H536.81L538.289 130.517H532.012V115.113H527.43Z" fill="white"/>
<path d="M508.85 115.113V119.37H513.937V134.775H518.518V119.37H523.966V115.113H508.85Z" fill="white"/>
<path d="M502.175 115.114H496.15L489.296 134.739H494.527L495.501 131.42C496.655 131.745 497.882 131.961 499.181 131.961C500.443 131.961 501.67 131.781 502.861 131.42L503.835 134.739H509.066L502.175 115.114ZM499.145 127.921C498.279 127.921 497.413 127.777 496.619 127.56L499.145 118.974L501.67 127.56C500.876 127.777 500.047 127.921 499.145 127.921Z" fill="white"/>
<path d="M553.042 115.113H547.018L540.163 134.738H545.394L546.368 131.419C547.523 131.744 548.749 131.96 550.048 131.96C551.311 131.96 552.537 131.78 553.728 131.419L554.702 134.738H559.933L553.042 115.113ZM550.012 127.92C549.146 127.92 548.28 127.776 547.487 127.559L550.012 118.973L552.537 127.559C551.744 127.776 550.878 127.92 550.012 127.92Z" fill="white"/>
<path d="M623.462 115.113H617.437L610.583 134.738H615.814L616.788 131.419C617.943 131.744 619.169 131.96 620.468 131.96C621.731 131.96 622.957 131.78 624.148 131.419L625.122 134.738H630.353L623.462 115.113ZM620.468 127.92C619.602 127.92 618.736 127.776 617.943 127.559L620.468 118.973L622.993 127.559C622.163 127.776 621.334 127.92 620.468 127.92Z" fill="white"/>
<path d="M463.034 121.93C462.673 121.533 462.132 121.569 461.879 122.038L456.035 133.763C455.818 134.232 456.143 134.773 456.648 134.773H464.801C465.054 134.773 465.307 134.629 465.415 134.376C467.183 130.733 466.1 125.213 463.034 121.93Z" fill="url(#paint5_linear_964_977)"/>
<path d="M467.328 111.252C464.045 116.447 464.262 122.183 466.426 126.512C468.591 130.841 470.25 134.124 470.358 134.377C470.467 134.629 470.719 134.774 470.972 134.774H479.125C479.63 134.774 479.991 134.232 479.738 133.763C479.738 133.763 468.771 111.829 468.483 111.288C468.266 110.783 467.653 110.747 467.328 111.252Z" fill="white"/>
</g>
<g clip-path="url(#clip6_964_977)">
<path fill-rule="evenodd" clip-rule="evenodd" d="M1005.46 133.287C1004.16 134.145 1002.1 134.523 999.939 134.523C993.093 134.523 989.236 130.399 989.236 123.835C989.236 117.509 993.093 113.05 999.881 113.05C1001.91 113.05 1003.94 113.41 1005.43 114.492V117.249C1003.94 116.298 1002.29 115.807 999.881 115.807C994.997 115.807 992.077 119.052 992.077 123.835C992.077 128.619 995.09 131.798 1000.05 131.798C1001.93 131.816 1003.78 131.379 1005.46 130.525V133.287ZM1008.1 126.246C1008.1 121.488 1010.89 118.028 1015.64 118.028C1020.4 118.028 1023.12 121.474 1023.12 126.246C1023.12 131.019 1020.36 134.537 1015.63 134.537C1010.91 134.537 1008.1 131.001 1008.1 126.246ZM1010.76 126.246C1010.76 129.26 1012.25 131.985 1015.64 131.985C1019.04 131.985 1020.47 129.26 1020.47 126.246C1020.47 123.233 1019.03 120.565 1015.64 120.565C1012.26 120.565 1010.76 123.233 1010.76 126.246ZM1037.06 134.206H1039.78V125.389C1039.78 122.184 1041.54 120.505 1044.07 120.505C1046.67 120.505 1047.81 122.123 1047.81 125.389V134.206H1050.54V124.913C1050.54 120.44 1048.57 118.028 1045.02 118.028C1042.39 118.028 1040.26 119.456 1039.37 121.9C1038.58 119.394 1036.74 118.028 1034.04 118.028C1033.02 118.007 1032.01 118.268 1031.13 118.783C1030.24 119.299 1029.52 120.048 1029.03 120.948V118.345H1026.3V134.206H1029.03V125.389C1029.03 122.184 1030.79 120.505 1033.31 120.505C1035.91 120.505 1037.06 121.773 1037.06 124.628V134.206ZM1057.73 131.416V140.391H1055V118.345H1057.73V121.2C1058.74 119.109 1060.64 118.028 1063.09 118.028C1067.3 118.028 1069.43 121.632 1069.43 126.275C1069.43 130.749 1067.21 134.523 1062.77 134.523C1060.44 134.523 1058.66 133.477 1057.73 131.416ZM1062.35 120.565C1059.88 120.569 1057.73 122.127 1057.73 125.641V126.91C1057.73 130.431 1059.72 131.985 1062.05 131.985C1065.13 131.985 1066.71 129.956 1066.71 126.275C1066.68 122.473 1065.16 120.57 1062.35 120.565ZM1077.98 134.523C1080.42 134.523 1082.32 133.445 1083.34 131.351L1083.34 134.206H1086.07V118.345H1083.34V121.139C1082.39 119.077 1080.61 118.028 1078.29 118.028C1073.85 118.028 1071.63 121.805 1071.63 126.275C1071.63 130.94 1073.76 134.523 1077.98 134.523ZM1083.34 126.91C1083.34 130.431 1081.15 131.985 1078.7 131.985C1075.88 131.985 1074.36 130.082 1074.35 126.275C1074.35 122.598 1075.94 120.565 1079.01 120.565C1081.34 120.565 1083.34 122.123 1083.34 125.641V126.91ZM1095.17 134.523C1093.27 134.574 1091.37 134.179 1089.65 133.37V130.486C1091.38 131.447 1093.32 131.98 1095.3 132.04C1097.39 132.04 1098.47 131.182 1098.47 129.945C1098.47 128.709 1097.55 128.042 1094.54 127.314C1091.01 126.456 1089.52 125.093 1089.52 122.491C1089.52 119.733 1091.65 118.05 1095.26 118.05C1097.03 118.025 1098.78 118.416 1100.37 119.193V122.015C1098.47 121.063 1096.92 120.573 1095.23 120.573C1093.24 120.573 1092.16 121.269 1092.16 122.505C1092.16 123.616 1092.92 124.308 1095.83 125.029C1099.36 125.883 1101.13 127.191 1101.13 129.942C1101.13 132.526 1099.42 134.523 1095.17 134.523ZM1103.74 133.37C1105.47 134.182 1107.36 134.577 1109.27 134.523C1113.51 134.523 1115.22 132.526 1115.22 129.942C1115.22 127.191 1113.44 125.883 1109.92 125.029C1107 124.308 1106.24 123.616 1106.24 122.505C1106.24 121.269 1107.32 120.573 1109.32 120.573C1111 120.573 1112.55 121.063 1114.46 122.015V119.193C1112.87 118.416 1111.12 118.025 1109.35 118.05C1105.73 118.05 1103.61 119.733 1103.61 122.491C1103.61 125.093 1105.1 126.456 1108.62 127.314C1111.63 128.042 1112.55 128.709 1112.55 129.945C1112.55 131.182 1111.48 132.04 1109.38 132.04C1107.4 131.98 1105.47 131.448 1103.74 130.486V133.37Z" fill="white"/>
<path d="M969.515 121.594V127.689H963.506V121.594H969.515V115.502H958.553C958.412 115.503 958.274 115.532 958.144 115.587C958.015 115.642 957.898 115.722 957.8 115.823C957.702 115.923 957.625 116.042 957.574 116.173C957.522 116.303 957.497 116.443 957.5 116.583V132.732C957.497 132.873 957.522 133.012 957.574 133.143C957.625 133.274 957.702 133.393 957.8 133.493C957.898 133.594 958.015 133.674 958.144 133.729C958.274 133.784 958.412 133.813 958.553 133.814H974.457C974.597 133.813 974.736 133.784 974.865 133.729C974.994 133.674 975.111 133.594 975.209 133.493C975.307 133.393 975.384 133.274 975.436 133.143C975.487 133.012 975.512 132.873 975.509 132.732V121.594H969.515Z" fill="url(#paint6_linear_964_977)"/>
<path d="M969.514 109.406V115.502H975.537V121.594H981.528V110.473C981.531 110.333 981.506 110.193 981.454 110.062C981.403 109.932 981.326 109.813 981.228 109.712C981.13 109.612 981.013 109.531 980.884 109.476C980.755 109.421 980.616 109.393 980.476 109.392L969.514 109.406Z" fill="white"/>
</g>
<g clip-path="url(#clip7_964_977)">
<path d="M1356.08 112.349H1358.91V126.361C1358.91 130.055 1357.23 132.634 1353.33 132.634C1351.86 132.634 1350.72 132.39 1349.93 132.111V129.428C1350.79 129.776 1351.83 129.951 1352.86 129.951C1355.26 129.951 1356.08 128.556 1356.08 126.535V112.349Z" fill="white"/>
<path d="M1364.09 111.269C1365.2 111.269 1365.99 111.931 1365.99 113.116C1365.99 114.266 1365.2 114.963 1364.09 114.963C1362.98 114.963 1362.2 114.301 1362.2 113.116C1362.2 111.966 1362.98 111.269 1364.09 111.269ZM1362.7 117.159H1365.42V132.495H1362.7V117.159Z" fill="white"/>
<path d="M1372.14 132.495H1369.49V117.159H1372.14V119.843C1373.07 118.03 1374.64 116.741 1377.72 116.915V119.494C1374.25 119.146 1372.14 120.156 1372.14 123.433V132.495Z" fill="white"/>
<path d="M1390.41 129.741C1389.41 131.763 1387.51 132.809 1385.08 132.809C1380.9 132.809 1378.79 129.358 1378.79 124.827C1378.79 120.505 1381.01 116.845 1385.4 116.845C1387.69 116.845 1389.48 117.856 1390.41 119.843V117.159H1393.13V132.495H1390.41V129.741ZM1385.8 130.369C1388.23 130.369 1390.38 128.87 1390.38 125.454V124.234C1390.38 120.819 1388.41 119.32 1386.08 119.32C1383.04 119.32 1381.47 121.272 1381.47 124.827C1381.51 128.521 1383.01 130.369 1385.8 130.369Z" fill="white"/>
<path d="M1417.7 131.624C1416.41 132.46 1414.37 132.809 1412.22 132.809C1405.43 132.809 1401.6 128.835 1401.6 122.457C1401.6 116.322 1405.43 112.035 1412.19 112.035C1414.19 112.035 1416.23 112.419 1417.7 113.43V116.113C1416.23 115.207 1414.58 114.719 1412.19 114.719C1407.33 114.719 1404.46 117.856 1404.46 122.492C1404.46 127.127 1407.47 130.194 1412.37 130.194C1414.55 130.194 1416.23 129.707 1417.73 128.975V131.624H1417.7Z" fill="white"/>
<path d="M1419.7 124.792C1419.7 120.191 1422.45 116.845 1427.17 116.845C1431.86 116.845 1434.61 120.191 1434.61 124.792C1434.61 129.393 1431.86 132.809 1427.17 132.809C1422.45 132.809 1419.7 129.393 1419.7 124.792ZM1422.34 124.792C1422.34 127.72 1423.81 130.334 1427.21 130.334C1430.53 130.334 1432 127.685 1432 124.792C1432 121.899 1430.57 119.285 1427.21 119.285C1423.81 119.32 1422.34 121.899 1422.34 124.792Z" fill="white"/>
<path d="M1440.4 132.495H1437.76V117.159H1440.4V119.843C1441.33 118.03 1442.91 116.741 1445.98 116.915V119.494C1442.51 119.146 1440.4 120.156 1440.4 123.433V132.495Z" fill="white"/>
<path d="M1455.49 132.809C1449.59 132.809 1447.02 129.497 1447.02 124.792C1447.02 120.156 1449.66 116.845 1454.46 116.845C1459.32 116.845 1461.25 120.122 1461.25 124.792V125.977H1449.77C1450.16 128.591 1451.88 130.264 1455.6 130.264C1457.42 130.264 1458.96 129.916 1460.39 129.428V131.867C1459.1 132.565 1457.1 132.809 1455.49 132.809ZM1449.74 123.746H1458.53C1458.39 120.888 1457.07 119.285 1454.35 119.285C1451.49 119.25 1450.02 121.063 1449.74 123.746Z" fill="white"/>
<path d="M1331.19 126.398C1331.19 130.546 1334.63 133.891 1338.88 133.891V118.94L1331.19 124.098V126.398Z" fill="white"/>
<path d="M1338.88 118.941V112.006C1338.88 111.099 1337.84 110.577 1337.09 111.099L1319.25 122.984C1321.65 126.399 1326.44 127.305 1329.94 124.97L1338.88 118.941Z" fill="white"/>
</g>
<g clip-path="url(#clip8_964_977)">
<rect width="75" height="32" transform="translate(1665 108.892)" fill="white" fill-opacity="0.01"/>
<path d="M1703.38 115.026H1706.18V129.023C1706.18 132.714 1704.52 135.29 1700.66 135.29C1699.21 135.29 1698.08 135.047 1697.3 134.768V132.087C1698.15 132.435 1699.17 132.609 1700.2 132.609C1702.57 132.609 1703.38 131.216 1703.38 129.197V115.026Z" fill="white"/>
<path d="M1711.31 113.946C1712.41 113.946 1713.18 114.608 1713.18 115.792C1713.18 116.941 1712.41 117.637 1711.31 117.637C1710.21 117.637 1709.43 116.976 1709.43 115.792C1709.43 114.643 1710.21 113.946 1711.31 113.946ZM1709.93 119.831H1712.62V135.151H1709.93V119.831Z" fill="white"/>
<path d="M1719.27 135.151H1716.65V119.831H1719.27V122.512C1720.19 120.701 1721.75 119.413 1724.79 119.587V122.164C1721.36 121.815 1719.27 122.825 1719.27 126.098V135.151Z" fill="white"/>
<path d="M1737.35 132.4C1736.36 134.42 1734.48 135.464 1732.08 135.464C1727.94 135.464 1725.85 132.017 1725.85 127.491C1725.85 123.173 1728.04 119.517 1732.39 119.517C1734.66 119.517 1736.43 120.527 1737.35 122.512V119.831H1740.04V135.151H1737.35V132.4ZM1732.78 133.027C1735.19 133.027 1737.31 131.53 1737.31 128.118V126.899C1737.31 123.487 1735.37 121.989 1733.07 121.989C1730.06 121.989 1728.5 123.939 1728.5 127.491C1728.54 131.182 1730.02 133.027 1732.78 133.027Z" fill="white"/>
<path d="M1689.34 111.892H1677.1C1677.1 114.886 1679.58 117.323 1682.62 117.323H1684.88V119.447C1684.88 122.442 1687.36 124.879 1690.4 124.879V112.936C1690.4 112.344 1689.94 111.892 1689.34 111.892Z" fill="white"/>
<path d="M1683.29 117.881H1671.05C1671.05 120.875 1673.53 123.313 1676.57 123.313H1678.83V125.471C1678.83 128.466 1681.31 130.903 1684.35 130.903V118.925C1684.35 118.368 1683.89 117.881 1683.29 117.881Z" fill="url(#paint7_linear_964_977)"/>
<path d="M1677.24 123.904H1665C1665 126.899 1667.48 129.336 1670.52 129.336H1672.78V131.46C1672.78 134.454 1675.26 136.892 1678.3 136.892V124.949C1678.3 124.357 1677.81 123.904 1677.24 123.904Z" fill="white"/>
</g>
<g clip-path="url(#clip9_964_977)">
<path d="M36.8095 221.308H39.649V235.724C39.649 239.542 37.9783 242.178 34.0668 242.178C32.9078 242.195 31.7545 242.013 30.6572 241.64V238.879C31.5933 239.242 32.5896 239.425 33.5935 239.417C35.9921 239.417 36.8203 237.965 36.8203 235.914L36.8095 221.308Z" fill="white"/>
<path d="M44.8225 220.204C45.0759 220.185 45.3304 220.221 45.5685 220.31C45.8067 220.398 46.023 220.537 46.2026 220.717C46.3823 220.897 46.5211 221.113 46.6096 221.351C46.6981 221.589 46.7343 221.844 46.7155 222.097C46.7155 222.599 46.5161 223.081 46.1611 223.436C45.8061 223.791 45.3246 223.99 44.8225 223.99C44.3205 223.99 43.839 223.791 43.484 223.436C43.129 223.081 42.9295 222.599 42.9295 222.097C42.9114 221.844 42.9479 221.59 43.0367 221.352C43.1254 221.114 43.2642 220.898 43.4437 220.718C43.6233 220.539 43.8393 220.4 44.0772 220.311C44.3151 220.222 44.5693 220.186 44.8225 220.204ZM43.435 226.26H46.1491V242.035H43.435V226.26Z" fill="white"/>
<path d="M52.9001 242.034H50.2506V226.259H52.9001V229.038C53.8143 227.177 55.3918 225.85 58.4859 226.04V228.69C55.0154 228.331 52.9001 229.385 52.9001 232.727V242.034Z" fill="white"/>
<path d="M71.1992 239.195C70.1917 241.278 68.2987 242.35 65.8679 242.35C61.6732 242.35 59.5579 238.786 59.5579 234.147C59.5579 229.701 61.7664 225.944 66.1834 225.944C68.4852 225.944 70.2527 226.987 71.2028 229.038V226.259H73.9168V242.034H71.2028L71.1992 239.195ZM66.5922 239.826C69.023 239.826 71.1992 238.281 71.1992 234.778V233.516C71.1992 230.017 69.213 228.468 66.8969 228.468C63.8387 228.468 62.2612 230.49 62.2612 234.147C62.2719 237.929 63.7849 239.826 66.5922 239.826Z" fill="white"/>
<path d="M89.9715 242.35C85.9632 242.35 84.1024 241.561 82.4962 240.744V237.84C84.4179 238.851 87.3829 239.575 90.1292 239.575C93.252 239.575 94.4315 238.346 94.4315 236.513C94.4315 234.681 93.295 233.706 89.3512 232.76C84.6904 231.623 82.6002 230.017 82.6002 226.607C82.6002 223.381 85.0597 220.993 89.889 220.993C92.8863 220.993 94.808 221.71 96.2277 222.506V225.345C94.254 224.258 92.0271 223.714 89.7743 223.768C87.0638 223.768 85.472 224.714 85.472 226.607C85.472 228.31 86.795 229.164 90.4555 230.078C94.8402 231.182 97.3033 232.588 97.3033 236.327C97.2603 239.923 95.1127 242.35 89.9715 242.35Z" fill="white"/>
<path d="M108.145 242.35C102.244 242.35 99.6588 238.944 99.6588 234.104C99.6588 229.339 102.308 225.93 107.102 225.93C111.96 225.93 113.914 229.307 113.914 234.104V235.348H102.402C102.782 238.03 104.517 239.765 108.238 239.765C109.875 239.764 111.499 239.475 113.035 238.912V241.421C111.741 242.099 109.755 242.35 108.145 242.35ZM102.369 233.028H111.175C111.017 230.092 109.69 228.421 106.976 228.421C104.105 228.407 102.656 230.268 102.369 233.014V233.028Z" fill="white"/>
<path d="M119.786 242.034H117.137V226.259H119.786V229.038C120.701 227.177 122.278 225.85 125.372 226.04V228.69C121.902 228.331 119.786 229.385 119.786 232.727V242.034Z" fill="white"/>
<path d="M132.059 242.035L125.939 226.26H128.778L133.887 239.722L138.967 226.249H141.807L135.687 242.024L132.059 242.035Z" fill="white"/>
<path d="M145.532 220.204C145.785 220.186 146.039 220.222 146.277 220.311C146.515 220.4 146.73 220.538 146.91 220.718C147.089 220.898 147.227 221.114 147.316 221.352C147.404 221.59 147.44 221.844 147.421 222.097C147.432 222.352 147.392 222.607 147.302 222.846C147.212 223.085 147.074 223.304 146.898 223.488C146.721 223.673 146.509 223.82 146.274 223.92C146.039 224.02 145.786 224.072 145.53 224.072C145.275 224.072 145.022 224.02 144.787 223.92C144.552 223.82 144.34 223.673 144.163 223.488C143.986 223.304 143.849 223.085 143.759 222.846C143.669 222.607 143.628 222.352 143.639 222.097C143.621 221.844 143.657 221.589 143.746 221.351C143.835 221.114 143.974 220.898 144.153 220.718C144.333 220.538 144.549 220.4 144.787 220.311C145.025 220.222 145.279 220.186 145.532 220.204ZM144.141 226.259H146.855V242.034H144.141V226.259Z" fill="white"/>
<path d="M162.092 241.626C161.146 242.131 159.697 242.343 158.245 242.343C152.631 242.343 149.999 238.937 149.999 234.097C149.999 229.332 152.62 225.922 158.245 225.922C159.539 225.88 160.824 226.14 161.999 226.682V229.192C160.886 228.666 159.666 228.406 158.435 228.432C154.334 228.432 152.659 231.021 152.659 234.082C152.659 237.144 154.366 239.729 158.496 239.729C159.716 239.761 160.932 239.568 162.081 239.159L162.092 241.626Z" fill="white"/>
<path d="M172.737 242.35C166.835 242.35 164.251 238.944 164.251 234.104C164.251 229.339 166.9 225.93 171.697 225.93C176.555 225.93 178.509 229.307 178.509 234.104V235.348H167C167.38 238.03 169.116 239.765 172.837 239.765C174.474 239.764 176.098 239.475 177.634 238.912V241.421C176.322 242.099 174.336 242.35 172.737 242.35ZM166.965 233.028H175.766C175.609 230.092 174.282 228.421 171.568 228.421C168.689 228.407 167.237 230.268 166.954 233.014L166.965 233.028Z" fill="white"/>
<path d="M190.835 223.011V242.034H187.996V221.308H192.918L197.618 233.2L199.544 238.911L201.469 233.2L206.198 221.308H210.773V242.034H207.933V223.23L205.506 230.708L200.931 242.034H198.192L193.675 230.708L190.835 223.011Z" fill="white"/>
<path d="M226.013 239.195C225.002 241.278 223.109 242.35 220.682 242.35C216.484 242.35 214.372 238.786 214.372 234.147C214.372 229.701 216.581 225.944 220.998 225.944C223.299 225.944 225.067 226.987 226.017 229.038V226.259H228.731V242.034H226.013V239.195ZM221.406 239.826C223.837 239.826 226.013 238.281 226.013 234.778V233.516C226.013 230.017 224.027 228.468 221.711 228.468C218.653 228.468 217.075 230.49 217.075 234.147C217.086 237.929 218.599 239.826 221.406 239.826Z" fill="white"/>
<path d="M246.234 242.034H243.52V232.508C243.52 229.669 242.384 228.407 239.799 228.407C237.289 228.407 235.54 230.078 235.54 233.265V242.034H232.825V226.259H235.54V228.848C236.022 227.952 236.743 227.207 237.622 226.694C238.502 226.182 239.506 225.922 240.523 225.944C244.151 225.944 246.234 228.454 246.234 232.792V242.034Z" fill="white"/>
<path d="M260.719 239.195C259.708 241.278 257.815 242.35 255.387 242.35C251.189 242.35 249.077 238.786 249.077 234.147C249.077 229.701 251.286 225.944 255.703 225.944C258.005 225.944 259.772 226.987 260.722 229.038V226.259H263.443V242.034H260.719V239.195ZM256.112 239.826C258.542 239.826 260.719 238.281 260.719 234.778V233.516C260.719 230.017 258.729 228.468 256.416 228.468C253.358 228.468 251.781 230.49 251.781 234.147C251.791 237.929 253.304 239.826 256.112 239.826Z" fill="white"/>
<path d="M278.164 239.195C277.157 241.278 275.264 242.35 272.833 242.35C268.671 242.35 266.588 238.786 266.588 234.147C266.588 229.701 268.764 225.944 273.149 225.944C275.454 225.944 277.218 226.987 278.168 229.038V226.259H280.818V240.6C280.818 245.24 278.641 248.362 272.995 248.362C271.09 248.422 269.191 248.138 267.387 247.523V244.874C269.151 245.481 271.001 245.799 272.865 245.817C276.809 245.817 278.164 243.705 278.164 240.769V239.195ZM273.561 239.826C275.988 239.826 278.164 238.281 278.164 234.778V233.516C278.164 230.017 276.178 228.468 273.862 228.468C270.8 228.468 269.223 230.49 269.223 234.147C269.237 237.929 270.75 239.826 273.561 239.826Z" fill="white"/>
<path d="M292.459 242.35C286.557 242.35 283.973 238.944 283.973 234.104C283.973 229.339 286.622 225.93 291.415 225.93C296.273 225.93 298.227 229.307 298.227 234.104V235.348H286.715C287.095 238.03 288.831 239.765 292.552 239.765C294.189 239.764 295.812 239.475 297.349 238.912V241.421C296.069 242.099 294.065 242.35 292.459 242.35ZM286.683 233.028H295.485C295.327 230.092 294.004 228.421 291.29 228.421C288.418 228.407 286.966 230.268 286.683 233.014V233.028Z" fill="white"/>
<path d="M314.859 242.034H312.145V232.508C312.145 229.669 311.009 228.407 308.42 228.407C305.911 228.407 304.161 230.078 304.161 233.265V242.034H301.447V226.259H304.157V228.848C304.641 227.952 305.363 227.207 306.243 226.695C307.122 226.182 308.127 225.922 309.145 225.944C311.826 225.944 313.655 227.303 314.443 229.794C315.325 227.364 317.441 225.944 320.062 225.944C323.593 225.944 325.551 228.342 325.551 232.792V242.034H322.837V233.269C322.837 230.02 321.7 228.411 319.111 228.411C316.602 228.411 314.856 230.081 314.856 233.269L314.859 242.034Z" fill="white"/>
<path d="M336.88 242.35C330.979 242.35 328.394 238.944 328.394 234.104C328.394 229.339 331.043 225.93 335.84 225.93C340.698 225.93 342.652 229.307 342.652 234.104V235.348H331.136C331.516 238.03 333.252 239.765 336.973 239.765C338.61 239.764 340.234 239.475 341.77 238.912V241.421C340.476 242.099 338.49 242.35 336.88 242.35ZM331.104 233.028H339.909C339.752 230.092 338.425 228.421 335.711 228.421C332.839 228.407 331.391 230.268 331.104 233.014V233.028Z" fill="white"/>
<path d="M359.281 242.034H356.566V232.508C356.566 229.669 355.43 228.407 352.841 228.407C350.332 228.407 348.586 230.078 348.586 233.265V242.034H345.872V226.259H348.586V228.848C349.069 227.952 349.789 227.207 350.669 226.694C351.548 226.182 352.552 225.922 353.569 225.944C357.198 225.944 359.281 228.454 359.281 232.792V242.034Z" fill="white"/>
<path d="M369.312 239.482C369.886 239.464 370.456 239.39 371.015 239.26V241.873C370.421 242.046 369.805 242.132 369.187 242.128C365.809 242.128 364.167 240.138 364.167 237.205V228.783H361.611V226.274H364.189V222.918H366.838V226.259H371.001V228.769H366.806V237.144C366.82 238.535 367.641 239.482 369.312 239.482Z" fill="white"/>
<path d="M12.6305 228.542L20.0023 228.578C20.9327 228.578 21.4695 229.646 20.9327 230.394L10.054 244.892C6.61858 242.363 5.93866 237.518 8.47941 234.099L12.6305 228.542Z" fill="white"/>
<path d="M8.47983 234.099L1.14384 234.063C0.213424 234.063 -0.323355 232.995 0.213424 232.246L11.0206 217.892C14.456 220.421 15.1359 225.265 12.5951 228.684L8.47983 234.099Z" fill="white"/>
</g>
<g clip-path="url(#clip10_964_977)">
<rect width="188" height="32" transform="translate(514 216.892)" fill="white" fill-opacity="0.01"/>
<path d="M555.509 242.99C551.515 242.99 549.66 242.212 548.056 241.399V238.537C549.981 239.526 552.905 240.233 555.651 240.233C558.754 240.233 559.93 239.032 559.93 237.229C559.93 235.427 558.789 234.473 554.867 233.519C550.231 232.388 548.163 230.797 548.163 227.44C548.163 224.259 550.623 221.892 555.402 221.892C558.397 221.892 560.287 222.598 561.713 223.376V226.168C559.645 225.002 557.399 224.613 555.295 224.613C552.584 224.613 550.98 225.532 550.98 227.405C550.98 229.101 552.299 229.914 555.937 230.833C560.287 231.928 562.748 233.307 562.748 236.982C562.748 240.587 560.608 242.99 555.509 242.99Z" fill="white"/>
<path d="M572.305 240.163C572.946 240.163 573.517 240.021 574.016 239.951V242.53C573.553 242.672 573.018 242.778 572.198 242.778C568.845 242.778 567.205 240.834 567.205 237.936V229.596H564.638V227.122H567.169V223.835H569.808V227.122H573.981V229.596H569.808V237.83C569.808 239.208 570.628 240.163 572.305 240.163Z" fill="white"/>
<path d="M587.46 239.88C586.462 241.93 584.572 242.99 582.147 242.99C577.974 242.99 575.871 239.491 575.871 234.897C575.871 230.515 578.081 226.804 582.468 226.804C584.75 226.804 586.533 227.829 587.46 229.843V227.122H590.17V242.672H587.46V239.88ZM582.86 240.481C585.285 240.481 587.424 238.961 587.424 235.498V234.261C587.424 230.797 585.463 229.278 583.145 229.278C580.114 229.278 578.545 231.257 578.545 234.861C578.581 238.643 580.078 240.481 582.86 240.481Z" fill="white"/>
<path d="M600.44 240.163C601.082 240.163 601.653 240.021 602.152 239.951V242.53C601.688 242.672 601.154 242.778 600.333 242.778C596.981 242.778 595.341 240.834 595.341 237.936V229.596H592.809V227.122H595.341V223.835H597.98V227.122H602.152V229.596H597.98V237.83C597.944 239.208 598.764 240.163 600.44 240.163Z" fill="white"/>
<path d="M605.255 227.122H607.965V236.522C607.965 239.314 609.106 240.551 611.673 240.551C614.17 240.551 615.917 238.89 615.917 235.745V227.122H618.627V242.672H615.917V240.127C614.918 241.965 613.064 242.99 610.96 242.99C607.358 242.99 605.29 240.516 605.29 236.24V227.122H605.255Z" fill="white"/>
<path d="M627.613 242.99C625.26 242.99 623.334 242.46 622.157 241.824V238.996C623.512 239.774 625.759 240.516 627.756 240.516C629.824 240.516 630.894 239.668 630.894 238.466C630.894 237.3 629.967 236.593 627.007 235.886C623.512 235.038 622.05 233.695 622.05 231.151C622.05 228.43 624.154 226.804 627.72 226.804C629.753 226.804 631.607 227.299 632.784 227.935V230.691C630.894 229.772 629.361 229.278 627.685 229.278C625.723 229.278 624.654 229.949 624.654 231.186C624.654 232.282 625.402 232.953 628.291 233.66C631.786 234.508 633.533 235.78 633.533 238.466C633.497 241.011 631.821 242.99 627.613 242.99Z" fill="white"/>
<path d="M639.31 239.95V248.75H636.6V227.122H639.31V229.914C640.308 227.864 642.198 226.804 644.623 226.804C648.796 226.804 650.899 230.303 650.899 234.897C650.899 239.279 648.689 242.99 644.302 242.99C642.02 242.99 640.273 241.965 639.31 239.95ZM643.91 229.313C641.485 229.313 639.346 230.833 639.346 234.296V235.533C639.346 238.996 641.307 240.516 643.625 240.516C646.656 240.516 648.225 238.537 648.225 234.932C648.189 231.151 646.692 229.313 643.91 229.313Z" fill="white"/>
<path d="M664.664 239.88C663.666 241.93 661.776 242.99 659.351 242.99C655.179 242.99 653.075 239.491 653.075 234.897C653.075 230.515 655.286 226.804 659.672 226.804C661.954 226.804 663.737 227.829 664.664 229.843V227.122H667.374V242.672H664.664V239.88ZM660.1 240.481C662.525 240.481 664.664 238.961 664.664 235.498V234.261C664.664 230.797 662.703 229.278 660.385 229.278C657.354 229.278 655.785 231.257 655.785 234.861C655.785 238.643 657.283 240.481 660.1 240.481Z" fill="white"/>
<path d="M682.031 239.88C681.032 241.93 679.142 242.99 676.717 242.99C672.581 242.99 670.512 239.491 670.512 234.897C670.512 230.515 672.688 226.804 677.038 226.804C679.32 226.804 681.104 227.829 682.031 229.843V227.122H684.67V241.258C684.67 245.817 682.494 248.892 676.896 248.892C674.257 248.892 672.83 248.538 671.297 248.043V245.428C673.009 245.994 674.827 246.347 676.753 246.347C680.676 246.347 682.031 244.262 682.031 241.364V239.88ZM677.431 240.481C679.855 240.481 681.995 238.961 681.995 235.498V234.261C681.995 230.797 680.034 229.278 677.716 229.278C674.685 229.278 673.116 231.257 673.116 234.861C673.151 238.643 674.649 240.481 677.431 240.481Z" fill="white"/>
<path d="M696.259 242.99C690.375 242.99 687.808 239.632 687.808 234.861C687.808 230.161 690.446 226.804 695.225 226.804C700.075 226.804 702 230.126 702 234.861V236.063H690.518C690.91 238.714 692.622 240.41 696.33 240.41C698.149 240.41 699.682 240.057 701.109 239.562V242.036C699.825 242.742 697.828 242.99 696.259 242.99ZM690.518 233.766H699.29C699.148 230.868 697.828 229.242 695.118 229.242C692.229 229.242 690.767 231.08 690.518 233.766Z" fill="white"/>
<path d="M527.301 242.672C530.748 242.672 533.542 239.903 533.542 236.487C533.542 233.072 530.748 230.303 527.301 230.303C523.855 230.303 521.061 233.072 521.061 236.487C521.061 239.903 523.855 242.672 527.301 242.672Z" fill="url(#paint8_linear_964_977)"/>
<path d="M514.179 229.348L517.531 233.271C517.78 233.589 518.244 233.624 518.529 233.342C523.95 228.535 530.654 228.535 536.074 233.342C536.359 233.589 536.823 233.554 537.072 233.271L540.424 229.348C540.674 229.065 540.638 228.606 540.353 228.359C532.508 221.538 522.095 221.538 514.25 228.359C513.965 228.606 513.929 229.065 514.179 229.348Z" fill="white"/>
</g>
<rect width="270" height="32" transform="translate(844 216.892)" fill="white" fill-opacity="0.01"/>
<path d="M851.022 231.83C850.951 231.738 850.858 231.667 850.751 231.622C850.645 231.577 850.529 231.56 850.414 231.572C850.299 231.585 850.19 231.627 850.096 231.694C850.001 231.761 849.926 231.851 849.877 231.955L844.072 243.571C844.02 243.677 843.995 243.795 844.001 243.913C844.007 244.031 844.042 244.145 844.105 244.246C844.167 244.346 844.254 244.429 844.357 244.486C844.46 244.543 844.577 244.573 844.695 244.573H852.782C852.912 244.577 853.039 244.542 853.149 244.474C853.259 244.406 853.347 244.308 853.402 244.19C855.144 240.587 854.092 235.108 851.022 231.83Z" fill="url(#paint9_linear_964_977)"/>
<path d="M855.284 221.265C853.836 223.493 852.992 226.058 852.835 228.71C852.678 231.362 853.214 234.01 854.389 236.392L858.29 244.19C858.347 244.305 858.436 244.402 858.545 244.47C858.654 244.537 858.781 244.573 858.909 244.573H866.997C867.115 244.573 867.231 244.543 867.335 244.486C867.438 244.428 867.525 244.346 867.587 244.245C867.649 244.145 867.685 244.03 867.691 243.912C867.697 243.794 867.672 243.677 867.62 243.571C867.62 243.571 856.74 221.805 856.465 221.261C856.411 221.15 856.327 221.057 856.222 220.991C856.118 220.926 855.997 220.891 855.873 220.892C855.75 220.892 855.629 220.927 855.525 220.993C855.42 221.059 855.337 221.154 855.284 221.265Z" fill="white"/>
<path d="M950.151 230.581C950.151 233.444 951.483 235.738 956.704 236.747C959.818 237.398 960.469 237.903 960.469 238.941C960.469 239.978 959.818 240.601 957.624 240.601C954.973 240.554 952.375 239.851 950.062 238.554V243.242C951.633 244.012 953.709 244.87 957.577 244.87C963.035 244.87 965.196 242.44 965.196 238.822L950.151 230.581ZM965.196 238.822C965.196 235.412 963.389 233.812 958.289 232.714C955.473 232.091 954.789 231.468 954.789 230.566C954.789 229.439 955.799 228.963 957.652 228.963C959.907 228.963 962.129 229.647 964.234 230.595V226.132C962.213 225.212 960.012 224.756 957.792 224.797C952.753 224.797 950.144 226.991 950.144 230.581" fill="white"/>
<path d="M1020.24 225.095V244.573H1024.39V229.718L1026.14 233.662L1032.02 244.573H1037.24V225.095H1033.08V237.666L1031.51 234.02L1026.8 225.095H1020.24Z" fill="white"/>
<path d="M993.844 225.095H989.306V244.577H993.844V225.095Z" fill="white"/>
<path d="M984.07 238.822C984.07 235.412 982.259 233.812 977.16 232.714C974.343 232.091 973.663 231.468 973.663 230.566C973.663 229.439 974.669 228.963 976.526 228.963C978.781 228.963 981.003 229.647 983.111 230.595V226.132C981.09 225.213 978.889 224.757 976.669 224.798C971.627 224.798 969.018 226.991 969.018 230.581C969.018 233.444 970.353 235.738 975.571 236.747C978.702 237.398 979.346 237.903 979.346 238.941C979.346 239.978 978.695 240.601 976.501 240.601C973.85 240.554 971.252 239.851 968.939 238.554V243.242C970.51 244.012 972.586 244.87 976.455 244.87C981.912 244.87 984.077 242.44 984.077 238.822" fill="white"/>
<path d="M914.905 225.095V244.573H924.231L925.698 240.365H919.471V225.095H914.905Z" fill="white"/>
<path d="M896.482 225.095V229.303H901.524V244.573H906.09V229.303H911.487V225.095H896.482Z" fill="white"/>
<path d="M889.879 225.087H883.878L877.078 244.566H882.267L883.233 241.288C885.605 241.985 888.127 241.985 890.498 241.288L891.461 244.566H896.65L889.879 225.087ZM886.887 237.774C886.039 237.775 885.196 237.655 884.382 237.416L886.887 228.913L889.392 237.416C888.574 237.659 887.724 237.782 886.869 237.781L886.887 237.774Z" fill="white"/>
<path d="M940.306 225.087H934.323L927.523 244.566H932.712L933.675 241.288C936.046 241.985 938.568 241.985 940.94 241.288L941.902 244.566H947.091L940.306 225.087ZM937.314 237.774C936.467 237.775 935.623 237.654 934.809 237.416L937.314 228.913L939.82 237.416C939.006 237.657 938.163 237.78 937.314 237.781V237.774Z" fill="white"/>
<path d="M1010.19 225.087H1004.2L997.405 244.566H1002.61L1003.57 241.288C1005.94 241.986 1008.47 241.986 1010.84 241.288L1011.8 244.566H1016.99L1010.19 225.087ZM1007.2 237.774C1006.35 237.775 1005.51 237.655 1004.69 237.416L1007.2 228.913L1009.7 237.416C1008.89 237.657 1008.05 237.78 1007.2 237.781V237.774Z" fill="white"/>
<path d="M1055.29 244.892C1051.24 244.892 1049.36 244.094 1047.74 243.267V240.336C1049.68 241.356 1052.67 242.086 1055.44 242.086C1058.6 242.086 1059.78 240.845 1059.78 238.998C1059.78 237.151 1058.63 236.181 1054.65 235.208C1049.93 234.059 1047.85 232.435 1047.85 228.995C1047.85 225.746 1050.33 223.323 1055.21 223.323C1058.23 223.323 1060.17 224.039 1061.61 224.851V227.714C1059.61 226.611 1057.36 226.061 1055.08 226.118C1052.34 226.118 1050.72 227.077 1050.72 228.981C1050.72 230.699 1052.05 231.561 1055.75 232.485C1060.17 233.598 1062.66 235.033 1062.66 238.79C1062.64 242.437 1060.48 244.892 1055.29 244.892Z" fill="white"/>
<path d="M1072.33 241.993C1072.91 241.976 1073.48 241.901 1074.05 241.768V244.412C1073.45 244.585 1072.82 244.671 1072.2 244.667C1068.79 244.667 1067.14 242.663 1067.14 239.699V231.193H1064.56V228.645H1067.14V225.266H1069.81V228.645H1074.05V231.193H1069.81V239.635C1069.81 241.038 1070.64 241.993 1072.33 241.993Z" fill="white"/>
<path d="M1087.71 241.707C1086.69 243.808 1084.78 244.892 1082.35 244.892C1078.11 244.892 1075.97 241.292 1075.97 236.607C1075.97 232.116 1078.2 228.326 1082.66 228.326C1084.99 228.326 1086.77 229.375 1087.73 231.447V228.645H1090.47V244.574H1087.73L1087.71 241.707ZM1083.06 242.344C1085.52 242.344 1087.71 240.78 1087.71 237.244V235.97C1087.71 232.435 1085.71 230.874 1083.38 230.874C1080.29 230.874 1078.7 232.914 1078.7 236.6C1078.7 240.429 1080.23 242.344 1083.06 242.344Z" fill="white"/>
<path d="M1097.27 244.574H1094.58V228.645H1097.25V231.447C1098.18 229.568 1099.76 228.226 1102.89 228.419V231.096C1099.39 230.738 1097.25 231.812 1097.25 235.176L1097.27 244.574Z" fill="white"/>
<path d="M1111.57 241.993C1112.15 241.976 1112.73 241.901 1113.29 241.768V244.412C1112.69 244.585 1112.07 244.671 1111.44 244.667C1108.04 244.667 1106.38 242.663 1106.38 239.699V231.193H1103.8V228.645H1106.39V225.266H1109.07V228.645H1113.3V231.193H1109.06V239.635C1109.06 241.038 1109.88 241.993 1111.57 241.993Z" fill="white"/>
<g clip-path="url(#clip11_964_977)">
<rect width="183" height="32" transform="translate(1256 216.892)" fill="white" fill-opacity="0.01"/>
<path d="M1304.23 242.32C1302.94 243.178 1300.9 243.536 1298.75 243.536C1291.93 243.536 1288.1 239.458 1288.1 232.911C1288.1 226.615 1291.93 222.215 1298.71 222.215C1300.72 222.215 1302.76 222.609 1304.23 223.646V226.401C1302.76 225.471 1301.11 224.97 1298.71 224.97C1293.83 224.97 1290.96 228.189 1290.96 232.947C1290.96 237.705 1293.98 240.853 1298.89 240.853C1301.08 240.853 1302.76 240.352 1304.27 239.601V242.32H1304.23Z" fill="white"/>
<path d="M1306.21 235.344C1306.21 230.622 1308.97 227.188 1313.7 227.188C1318.4 227.188 1321.16 230.622 1321.16 235.344C1321.16 240.066 1318.4 243.572 1313.7 243.572C1309 243.536 1306.21 240.066 1306.21 235.344ZM1308.86 235.344C1308.86 238.349 1310.33 241.032 1313.74 241.032C1317.07 241.032 1318.54 238.313 1318.54 235.344C1318.54 232.375 1317.11 229.692 1313.74 229.692C1310.33 229.692 1308.86 232.339 1308.86 235.344Z" fill="white"/>
<path d="M1337.73 243.25H1335V233.734C1335 230.908 1333.85 229.656 1331.27 229.656C1328.76 229.656 1327.01 231.337 1327.01 234.521V243.285H1324.28V227.545H1327.01V230.121C1328.01 228.261 1329.87 227.223 1331.99 227.223C1335.61 227.223 1337.69 229.727 1337.69 234.056V243.25H1337.73Z" fill="white"/>
<path d="M1349.38 227.51V230.014H1345.29V243.25H1342.64V230.014H1340.09V227.51H1342.64V225.792C1342.64 222.859 1344.29 220.892 1347.66 220.892C1348.49 220.892 1349.02 221.035 1349.49 221.142V223.646C1349.02 223.539 1348.41 223.503 1347.77 223.503C1346.08 223.503 1345.26 224.469 1345.26 225.9V227.51H1349.38Z" fill="white"/>
<path d="M1356.52 243.321C1353.94 243.321 1352.29 242.105 1352.29 239.207V220.927H1355.01V238.885C1355.01 240.316 1355.95 240.817 1357.13 240.817C1357.42 240.817 1357.59 240.817 1357.92 240.781V243.214C1357.67 243.285 1357.2 243.321 1356.52 243.321Z" fill="white"/>
<path d="M1360.21 227.51H1362.94V237.025C1362.94 239.851 1364.09 241.103 1366.67 241.103C1369.18 241.103 1370.94 239.422 1370.94 236.238V227.51H1373.66V243.25H1370.94V240.674C1369.93 242.534 1368.07 243.572 1365.95 243.572C1362.33 243.572 1360.25 241.068 1360.25 236.739V227.51H1360.21Z" fill="white"/>
<path d="M1385.28 243.536C1379.36 243.536 1376.78 240.137 1376.78 235.308C1376.78 230.55 1379.43 227.152 1384.24 227.152C1389.12 227.152 1391.05 230.515 1391.05 235.308V236.524H1379.54C1379.94 239.207 1381.66 240.924 1385.39 240.924C1387.22 240.924 1388.76 240.567 1390.19 240.066V242.57C1388.87 243.285 1386.86 243.536 1385.28 243.536ZM1379.47 234.235H1388.29C1388.15 231.302 1386.82 229.656 1384.1 229.656C1381.23 229.656 1379.76 231.48 1379.47 234.235Z" fill="white"/>
<path d="M1407.66 243.25H1404.93V233.734C1404.93 230.908 1403.78 229.656 1401.2 229.656C1398.69 229.656 1396.93 231.337 1396.93 234.521V243.285H1394.21V227.545H1396.93V230.121C1397.94 228.261 1399.8 227.223 1401.92 227.223C1405.54 227.223 1407.62 229.727 1407.62 234.056V243.25H1407.66Z" fill="white"/>
<path d="M1422.61 242.82C1421.68 243.321 1420.21 243.536 1418.77 243.536C1413.14 243.536 1410.53 240.137 1410.53 235.308C1410.53 230.55 1413.14 227.152 1418.77 227.152C1420.21 227.152 1421.28 227.331 1422.54 227.903V230.407C1421.54 229.942 1420.46 229.656 1418.99 229.656C1414.9 229.656 1413.22 232.232 1413.22 235.308C1413.22 238.385 1414.94 240.96 1419.06 240.96C1420.67 240.96 1421.68 240.746 1422.65 240.388V242.82H1422.61Z" fill="white"/>
<path d="M1433.23 243.536C1427.31 243.536 1424.73 240.137 1424.73 235.308C1424.73 230.55 1427.38 227.152 1432.19 227.152C1437.06 227.152 1439 230.515 1439 235.308V236.524H1427.49C1427.88 239.207 1429.6 240.924 1433.33 240.924C1435.16 240.924 1436.7 240.567 1438.14 240.066V242.57C1436.81 243.285 1434.84 243.536 1433.23 243.536ZM1427.45 234.235H1436.27C1436.13 231.302 1434.8 229.656 1432.08 229.656C1429.17 229.656 1427.74 231.48 1427.45 234.235Z" fill="white"/>
<path d="M1256.79 238.79C1256.57 239.19 1256.29 239.626 1256.07 239.99C1255.86 240.317 1255.96 240.753 1256.32 240.971L1260.98 243.88C1261.34 244.098 1261.77 243.989 1261.99 243.626C1262.17 243.298 1262.42 242.898 1262.67 242.462C1264.53 239.372 1266.36 239.735 1269.73 241.371L1274.36 243.589C1274.72 243.771 1275.15 243.589 1275.33 243.226L1277.55 238.135C1277.7 237.772 1277.55 237.335 1277.19 237.19C1276.23 236.717 1274.29 235.808 1272.53 234.936C1266.22 231.882 1260.88 232.063 1256.79 238.79Z" fill="white"/>
<path d="M1277.7 227.264C1277.91 226.864 1278.2 226.427 1278.41 226.064C1278.63 225.737 1278.52 225.3 1278.16 225.082L1273.5 222.173C1273.14 221.955 1272.71 222.064 1272.5 222.428C1272.32 222.755 1272.07 223.155 1271.81 223.591C1269.95 226.682 1268.12 226.318 1264.75 224.682L1260.16 222.428C1259.8 222.246 1259.37 222.428 1259.19 222.792L1256.97 227.882C1256.82 228.245 1256.97 228.682 1257.33 228.827C1258.29 229.3 1260.23 230.209 1261.99 231.081C1268.26 234.172 1273.61 233.99 1277.7 227.264Z" fill="white"/>
</g>
<g clip-path="url(#clip12_964_977)">
<rect width="159" height="32" transform="translate(1581 216.892)" fill="white" fill-opacity="0.01"/>
<path d="M1614.71 222.49H1623.36C1627.57 222.49 1629.61 224.506 1629.61 227.738C1629.61 230.171 1628.46 231.666 1626.14 232.187C1629.18 232.674 1630.71 234.307 1630.71 237.157C1630.71 240.354 1628.5 242.579 1623.86 242.579H1614.71V222.49ZM1617.57 231.075H1623C1625.68 231.075 1626.79 229.893 1626.79 227.947C1626.79 226.001 1625.61 225.062 1623 225.062H1617.57V231.075ZM1617.57 233.542V239.798H1624C1626.71 239.798 1627.93 238.86 1627.93 236.844C1627.93 234.689 1626.75 233.542 1623.93 233.542H1617.57Z" fill="white"/>
<path d="M1635.36 221.413C1636.46 221.413 1637.25 222.073 1637.25 223.255C1637.25 224.402 1636.46 225.097 1635.36 225.097C1634.25 225.097 1633.46 224.437 1633.46 223.255C1633.46 222.073 1634.25 221.413 1635.36 221.413ZM1633.96 227.287H1636.68V242.579H1633.96V227.287Z" fill="white"/>
<path d="M1646.96 240.111C1647.61 240.111 1648.18 239.972 1648.68 239.903V242.44C1648.21 242.579 1647.68 242.683 1646.86 242.683C1643.5 242.683 1641.86 240.772 1641.86 237.922V229.719H1639.32V227.287H1641.86V224.054H1644.5V227.287H1648.68V229.719H1644.5V237.817C1644.5 239.173 1645.32 240.111 1646.96 240.111Z" fill="white"/>
<path d="M1654.82 239.868V242.544H1652.11V220.892H1654.82V230.032C1655.82 228.016 1657.71 226.974 1660.14 226.974C1664.32 226.974 1666.43 230.415 1666.43 234.933C1666.43 239.242 1664.21 242.892 1659.82 242.892C1657.54 242.892 1655.79 241.884 1654.82 239.868ZM1659.43 229.441C1657 229.441 1654.86 230.936 1654.86 234.342V235.558C1654.86 238.964 1656.82 240.459 1659.14 240.459C1662.18 240.459 1663.75 238.512 1663.75 234.967C1663.71 231.249 1662.21 229.441 1659.43 229.441Z" fill="white"/>
<path d="M1669.25 227.287H1671.96V236.531C1671.96 239.277 1673.11 240.493 1675.68 240.493C1678.18 240.493 1679.93 238.86 1679.93 235.767V227.287H1682.64V242.579H1679.93V240.076C1678.93 241.884 1677.07 242.892 1674.96 242.892C1671.36 242.892 1669.29 240.459 1669.29 236.253V227.287H1669.25Z" fill="white"/>
<path d="M1697.79 242.162C1696.86 242.648 1695.39 242.857 1693.96 242.857C1688.36 242.857 1685.75 239.555 1685.75 234.863C1685.75 230.241 1688.36 226.939 1693.96 226.939C1695.39 226.939 1696.46 227.113 1697.71 227.669V230.102C1696.71 229.65 1695.64 229.372 1694.18 229.372C1690.11 229.372 1688.43 231.874 1688.43 234.863C1688.43 237.852 1690.14 240.354 1694.25 240.354C1695.86 240.354 1696.86 240.146 1697.82 239.798V242.162H1697.79Z" fill="white"/>
<path d="M1700.86 242.579V220.892H1703.57V234.446L1710.32 227.287H1713.86L1706.46 234.794L1714.18 242.579H1710.5L1703.57 235.419V242.579H1700.86Z" fill="white"/>
<path d="M1723.11 242.892C1717.21 242.892 1714.64 239.59 1714.64 234.898C1714.64 230.275 1717.29 226.974 1722.07 226.974C1726.93 226.974 1728.86 230.241 1728.86 234.898V236.08H1717.39C1717.79 238.686 1719.5 240.354 1723.21 240.354C1725.04 240.354 1726.57 240.007 1728 239.52V241.953C1726.71 242.648 1724.71 242.892 1723.11 242.892ZM1717.36 233.821H1726.14C1726 230.971 1724.68 229.372 1721.96 229.372C1719.11 229.372 1717.64 231.179 1717.36 233.821Z" fill="white"/>
<path d="M1738.29 240.111C1738.93 240.111 1739.5 239.972 1740 239.903V242.44C1739.54 242.579 1739 242.683 1738.18 242.683C1734.82 242.683 1733.18 240.772 1733.18 237.922V229.719H1730.64V227.287H1733.18V224.054H1735.82V227.287H1740V229.719H1735.82V237.817C1735.82 239.173 1736.64 240.111 1738.29 240.111Z" fill="white"/>
<path d="M1581.71 223.081C1581.29 223.081 1580.93 223.463 1581 223.88L1584.04 241.779C1584.11 242.231 1584.5 242.579 1585 242.579H1599.54C1599.89 242.579 1600.18 242.335 1600.25 241.988L1603.29 223.88C1603.36 223.463 1603.04 223.081 1602.57 223.081H1581.71ZM1594.5 236.01H1589.86L1588.61 229.615H1595.64L1594.5 236.01Z" fill="white"/>
<path d="M1602.32 229.615H1595.61L1594.5 236.01H1589.86L1584.36 242.336C1584.36 242.336 1584.61 242.579 1585 242.579H1599.54C1599.89 242.579 1600.18 242.336 1600.25 241.988L1602.32 229.615Z" fill="url(#paint10_linear_964_977)"/>
</g>
<defs>
<linearGradient id="paint0_linear_964_977" x1="486.503" y1="15.6712" x2="480.348" y2="26.3315" gradientUnits="userSpaceOnUse">
<stop stop-color="white"/>
<stop offset="0.9228" stop-color="white"/>
</linearGradient>
<linearGradient id="paint1_linear_964_977" x1="1329.03" y1="21.4377" x2="1330.57" y2="13.5273" gradientUnits="userSpaceOnUse">
<stop offset="0.15" stop-color="white"/>
<stop offset="0.4189" stop-color="white"/>
<stop offset="0.9588" stop-color="white"/>
<stop offset="1" stop-color="white"/>
</linearGradient>
<linearGradient id="paint2_linear_964_977" x1="1332.22" y1="11.7393" x2="1330.68" y2="19.6497" gradientUnits="userSpaceOnUse">
<stop offset="0.15" stop-color="white"/>
<stop offset="0.4328" stop-color="white"/>
<stop offset="1" stop-color="white"/>
</linearGradient>
<linearGradient id="paint3_linear_964_977" x1="1593.68" y1="6.50414" x2="1593.68" y2="19.5529" gradientUnits="userSpaceOnUse">
<stop stop-color="white"/>
<stop offset="0.82" stop-color="white"/>
</linearGradient>
<linearGradient id="paint4_linear_964_977" x1="1589.77" y1="19.1882" x2="1594.13" y2="28.3404" gradientUnits="userSpaceOnUse">
<stop stop-color="white"/>
<stop offset="0.62" stop-color="white"/>
</linearGradient>
<linearGradient id="paint5_linear_964_977" x1="466.234" y1="123.723" x2="460.054" y2="134.427" gradientUnits="userSpaceOnUse">
<stop stop-color="white"/>
<stop offset="0.9228" stop-color="white"/>
</linearGradient>
<linearGradient id="paint6_linear_964_977" x1="974.554" y1="116.598" x2="964.245" y2="126.907" gradientUnits="userSpaceOnUse">
<stop offset="0.2" stop-color="white"/>
<stop offset="1" stop-color="white"/>
</linearGradient>
<linearGradient id="paint7_linear_964_977" x1="1684.09" y1="117.911" x2="1678.97" y2="123.274" gradientUnits="userSpaceOnUse">
<stop offset="0.176" stop-color="white"/>
<stop offset="1" stop-color="white"/>
</linearGradient>
<linearGradient id="paint8_linear_964_977" x1="527.304" y1="240.54" x2="527.304" y2="229.602" gradientUnits="userSpaceOnUse">
<stop stop-color="white"/>
<stop offset="0.824" stop-color="white"/>
</linearGradient>
<linearGradient id="paint9_linear_964_977" x1="854.207" y1="233.623" x2="848.077" y2="244.241" gradientUnits="userSpaceOnUse">
<stop stop-color="white"/>
<stop offset="0.92" stop-color="white"/>
</linearGradient>
<linearGradient id="paint10_linear_964_977" x1="1603.86" y1="231.412" x2="1593.01" y2="240.114" gradientUnits="userSpaceOnUse">
<stop offset="0.176" stop-color="white"/>
<stop offset="1" stop-color="white"/>
</linearGradient>
<clipPath id="clip0_964_977">
<rect width="405" height="32" fill="white" transform="translate(476.25 0.891602)"/>
</clipPath>
<clipPath id="clip1_964_977">
<rect width="209" height="32" fill="white" transform="translate(996.5 0.891602)"/>
</clipPath>
<clipPath id="clip2_964_977">
<rect width="147" height="32" fill="white" transform="translate(1320.75 0.891602)"/>
</clipPath>
<clipPath id="clip3_964_977">
<rect width="157" height="32" fill="white" transform="translate(1583 0.891602)"/>
</clipPath>
<clipPath id="clip4_964_977">
<rect width="252" height="32" fill="white" transform="translate(0 108.892)"/>
</clipPath>
<clipPath id="clip5_964_977">
<rect width="298" height="32" fill="white" transform="translate(455.75 108.892)"/>
</clipPath>
<clipPath id="clip6_964_977">
<rect width="158" height="32" fill="white" transform="translate(957.5 108.892)"/>
</clipPath>
<clipPath id="clip7_964_977">
<rect width="142" height="32" fill="white" transform="translate(1319.25 108.892)"/>
</clipPath>
<clipPath id="clip8_964_977">
<rect width="75" height="32" fill="white" transform="translate(1665 108.892)"/>
</clipPath>
<clipPath id="clip9_964_977">
<rect width="372" height="32" fill="white" transform="translate(0 216.892)"/>
</clipPath>
<clipPath id="clip10_964_977">
<rect width="188" height="32" fill="white" transform="translate(514 216.892)"/>
</clipPath>
<clipPath id="clip11_964_977">
<rect width="183" height="32" fill="white" transform="translate(1256 216.892)"/>
</clipPath>
<clipPath id="clip12_964_977">
<rect width="159" height="32" fill="white" transform="translate(1581 216.892)"/>
</clipPath>
</defs>
</svg>
