<svg width="125.203125" height="83.530273" viewBox="0 0 125.203 83.5303" fill="none" xmlns="http://www.w3.org/2000/svg" xmlns:xlink="http://www.w3.org/1999/xlink">
	<desc>
			Created with Pixso.
	</desc>
	<defs/>
	<path id="Vector" d="M19.84 23.46L10.17 29.07L19.84 34.91" stroke="#F2DEFF" stroke-opacity="1.000000" stroke-width="3.500000"/>
	<path id="Vector" d="M10.17 26.87C11.39 26.87 12.38 27.85 12.38 29.07C12.38 30.29 11.39 31.28 10.17 31.28C8.96 31.28 7.97 30.29 7.97 29.07C7.97 27.86 8.96 26.87 10.17 26.87Z" stroke="#F2DEFF" stroke-opacity="1.000000" stroke-width="3.500000"/>
	<path id="Vector" d="M19.84 25.67C18.62 25.67 17.64 24.68 17.64 23.46C17.64 22.25 18.62 21.26 19.84 21.26C21.06 21.26 22.04 22.25 22.04 23.46C22.04 24.68 21.06 25.67 19.84 25.67Z" stroke="#F2DEFF" stroke-opacity="1.000000" stroke-width="3.500000"/>
	<path id="Vector" d="M19.84 32.71C21.06 32.71 22.05 33.7 22.05 34.91C22.05 36.13 21.06 37.12 19.84 37.12C18.63 37.12 17.64 36.13 17.64 34.91C17.64 33.7 18.63 32.71 19.84 32.71Z" stroke="#F2DEFF" stroke-opacity="1.000000" stroke-width="3.500000"/>
	<path id="Vector" d="M30.26 28.75C30.26 31.97 29.19 34.94 27.39 37.32L28.44 45.59L20.79 42.18C19.29 42.71 17.68 43.01 16 43.01C8.13 43.01 1.75 36.62 1.75 28.75C1.75 20.88 8.13 14.5 16 14.5C23.87 14.5 30.26 20.88 30.26 28.75Z" stroke="#F2DEFF" stroke-opacity="1.000000" stroke-width="3.500000"/>
	<path id="Vector" d="M112.99 23.46L103.33 29.07L112.99 34.91" stroke="#F2DEFF" stroke-opacity="1.000000" stroke-width="3.500000"/>
	<path id="Vector" d="M103.33 26.87C104.54 26.87 105.53 27.85 105.53 29.07C105.53 30.29 104.54 31.28 103.33 31.28C102.11 31.28 101.12 30.29 101.12 29.07C101.12 27.86 102.11 26.87 103.33 26.87Z" stroke="#F2DEFF" stroke-opacity="1.000000" stroke-width="3.500000"/>
	<path id="Vector" d="M112.99 25.67C111.77 25.67 110.79 24.68 110.79 23.46C110.79 22.25 111.77 21.26 112.99 21.26C114.21 21.26 115.19 22.25 115.19 23.46C115.19 24.68 114.21 25.67 112.99 25.67Z" stroke="#F2DEFF" stroke-opacity="1.000000" stroke-width="3.500000"/>
	<path id="Vector" d="M112.99 32.71C114.21 32.71 115.19 33.7 115.19 34.91C115.19 36.13 114.21 37.12 112.99 37.12C111.77 37.12 110.79 36.13 110.79 34.91C110.79 33.7 111.77 32.71 112.99 32.71Z" stroke="#F2DEFF" stroke-opacity="1.000000" stroke-width="3.500000"/>
	<path id="Vector" d="M113.27 42.57C110.18 43.5 107.03 43.33 104.23 42.3L96.62 45.68L97.68 37.37C96.74 36.09 95.99 34.64 95.51 33.03C93.23 25.49 97.5 17.54 105.04 15.26C112.58 12.99 120.53 17.26 122.8 24.8L122.8 24.8C125.07 32.34 120.8 40.29 113.27 42.57Z" stroke="#F2DEFF" stroke-opacity="1.000000" stroke-width="3.500000"/>
	<path id="Vector" d="M65.7 12.86L53.44 19.97L65.7 27.38" stroke="#F2DEFF" stroke-opacity="1.000000" stroke-width="3.500000"/>
	<path id="Vector" d="M53.44 17.18C54.98 17.18 56.23 18.43 56.23 19.97C56.23 21.51 54.98 22.76 53.44 22.76C51.9 22.76 50.65 21.51 50.65 19.97C50.65 18.43 51.9 17.18 53.44 17.18Z" stroke="#F2DEFF" stroke-opacity="1.000000" stroke-width="3.500000"/>
	<path id="Vector" d="M65.7 10.07C67.24 10.07 68.49 11.32 68.49 12.86C68.49 14.4 67.24 15.65 65.7 15.65C64.16 15.65 62.91 14.4 62.91 12.86C62.91 11.32 64.16 10.07 65.7 10.07Z" stroke="#F2DEFF" stroke-opacity="1.000000" stroke-width="3.500000"/>
	<path id="Vector" d="M65.7 24.59C67.24 24.59 68.49 25.84 68.49 27.38C68.49 28.92 67.24 30.17 65.7 30.17C64.16 30.17 62.91 28.92 62.91 27.38C62.91 25.84 64.16 24.59 65.7 24.59Z" stroke="#F2DEFF" stroke-opacity="1.000000" stroke-width="3.500000"/>
	<path id="Vector" d="M76.63 30.12C74.31 33.48 71.06 35.81 67.47 37L62.61 46.38L57.08 37.31C55.13 36.79 53.24 35.94 51.49 34.73C43.27 29.06 41.2 17.8 46.88 9.58C52.55 1.37 63.81 -0.7 72.02 4.98C80.24 10.65 82.31 21.91 76.63 30.12Z" stroke="#F2DEFF" stroke-opacity="1.000000" stroke-width="3.500000"/>
	<path id="Vector" d="M69.64 60.85C69.05 64.48 65.62 66.95 61.98 66.36C58.34 65.76 55.88 62.33 56.47 58.7C57.06 55.06 60.49 52.59 64.13 53.18C67.77 53.78 70.24 57.21 69.64 60.85Z" stroke="#F2DEFF" stroke-opacity="1.000000" stroke-width="3.500000"/>
	<path id="Vector" d="M48.38 81.78C48.38 76 51.72 71 56.58 68.62C58.49 69.67 60.69 70.27 63.03 70.27C65.36 70.27 67.56 69.67 69.47 68.62C74.32 71.01 77.66 76 77.66 81.78" stroke="#F2DEFF" stroke-opacity="1.000000" stroke-width="3.500000" stroke-linecap="round"/>
	<path id="Vector" d="M38.25 60.32C34.57 60.32 31.58 57.33 31.58 53.65C31.58 49.96 34.57 46.97 38.25 46.97C41.94 46.97 44.93 49.96 44.93 53.65C44.93 57.33 41.94 60.32 38.25 60.32Z" stroke="#F2DEFF" stroke-opacity="1.000000" stroke-width="3.500000"/>
	<path id="Vector" d="M23.61 75.66C23.61 69.88 26.94 64.88 31.82 62.5C33.72 63.56 35.93 64.16 38.26 64.16C40.59 64.16 42.78 63.56 44.7 62.5C48.42 64.33 51.25 67.67 52.37 71.74" stroke="#F2DEFF" stroke-opacity="1.000000" stroke-width="3.500000" stroke-linecap="round"/>
	<path id="Vector" d="M87.83 60.32C84.15 60.32 81.16 57.33 81.16 53.65C81.16 49.96 84.15 46.97 87.83 46.97C91.52 46.97 94.5 49.96 94.5 53.65C94.5 57.33 91.52 60.32 87.83 60.32Z" stroke="#F2DEFF" stroke-opacity="1.000000" stroke-width="3.500000"/>
	<path id="Vector" d="M73.72 71.74C74.84 67.67 77.66 64.33 81.39 62.5C83.3 63.56 85.48 64.16 87.83 64.16C90.18 64.16 92.37 63.56 94.27 62.5C99.15 64.88 102.48 69.88 102.48 75.66" stroke="#F2DEFF" stroke-opacity="1.000000" stroke-width="3.500000" stroke-linecap="round"/>
</svg>
