<svg width="92.560547" height="83.500000" viewBox="0 0 92.5605 83.5" fill="none" xmlns="http://www.w3.org/2000/svg" xmlns:xlink="http://www.w3.org/1999/xlink">
	<desc>
			Created with Pixso.
	</desc>
	<defs/>
	<path id="Vector" d="M83.3 23.43C82.8 26.5 79.91 28.58 76.83 28.08C73.76 27.58 71.68 24.69 72.18 21.61C72.68 18.54 75.57 16.46 78.65 16.96C81.72 17.46 83.8 20.35 83.3 23.43Z" stroke="#F2DEFF" stroke-opacity="1.000000" stroke-width="3.500000"/>
	<path id="Vector" d="M65.4 41.1C65.4 36.22 68.22 32 72.32 30C73.93 30.88 75.79 31.39 77.76 31.39C79.73 31.39 81.58 30.88 83.2 30C87.3 32.01 90.12 36.22 90.12 41.1" stroke="#F2DEFF" stroke-opacity="1.000000" stroke-width="3.500000" stroke-linecap="round"/>
	<path id="Vector" d="M19.75 63.33C19.66 66.44 17.07 68.89 13.96 68.8C10.85 68.71 8.4 66.11 8.49 63C8.58 59.89 11.17 57.44 14.28 57.53C17.4 57.62 19.84 60.22 19.75 63.33Z" stroke="#F2DEFF" stroke-opacity="1.000000" stroke-width="3.500000"/>
	<path id="Vector" d="M1.75 81.75C1.75 76.87 4.57 72.65 8.67 70.64C10.28 71.53 12.14 72.03 14.11 72.03C16.08 72.03 17.93 71.53 19.55 70.64C23.65 72.66 26.47 76.87 26.47 81.75" stroke="#F2DEFF" stroke-opacity="1.000000" stroke-width="3.500000" stroke-linecap="round"/>
	<path id="Vector" d="M52.7 63.59C52.46 66.7 49.75 69.02 46.65 68.78C43.55 68.54 41.23 65.83 41.46 62.73C41.7 59.63 44.41 57.31 47.51 57.54C50.62 57.78 52.94 60.49 52.7 63.59Z" stroke="#F2DEFF" stroke-opacity="1.000000" stroke-width="3.500000"/>
	<path id="Vector" d="M34.72 81.75C34.72 76.87 37.54 72.65 41.64 70.64C43.25 71.53 45.11 72.03 47.08 72.03C49.06 72.03 50.91 71.53 52.52 70.64C56.62 72.66 59.44 76.87 59.44 81.75" stroke="#F2DEFF" stroke-opacity="1.000000" stroke-width="3.500000" stroke-linecap="round"/>
	<path id="Vector" d="M84.07 63.59C83.83 66.7 81.12 69.02 78.02 68.78C74.91 68.54 72.59 65.83 72.83 62.73C73.07 59.63 75.78 57.3 78.88 57.54C81.98 57.78 84.3 60.49 84.07 63.59Z" stroke="#F2DEFF" stroke-opacity="1.000000" stroke-width="3.500000"/>
	<path id="Vector" d="M66.08 81.75C66.08 76.87 68.91 72.65 73.01 70.64C74.62 71.53 76.48 72.03 78.45 72.03C80.42 72.03 82.27 71.53 83.89 70.64C87.99 72.66 90.81 76.87 90.81 81.75" stroke="#F2DEFF" stroke-opacity="1.000000" stroke-width="3.500000" stroke-linecap="round"/>
	<path id="Vector" d="M56.87 6.04L56.87 38.46C56.87 39.9 55.71 41.06 54.27 41.06L10.38 41.06C8.95 41.06 7.78 39.9 7.78 38.46L7.78 6.04L7.78 6.04L56.87 6.04Z" stroke="#F2DEFF" stroke-opacity="1.000000" stroke-width="3.500000"/>
	<path id="Vector" d="M20.6 34.58L50.26 34.58" stroke="#F2DEFF" stroke-opacity="1.000000" stroke-width="3.500000"/>
	<path id="Vector" d="M45.75 16.89L45.75 34.58L40.55 34.58L40.55 16.89L45.75 16.89Z" stroke="#F2DEFF" stroke-opacity="1.000000" stroke-width="3.500000"/>
	<path id="Vector" d="M40.55 20.1L40.55 34.58L35.36 34.58L35.36 20.1L40.55 20.1Z" stroke="#F2DEFF" stroke-opacity="1.000000" stroke-width="3.500000"/>
	<path id="Vector" d="M35.36 23.21L35.36 34.58L30.16 34.58L30.16 23.21L35.36 23.21Z" stroke="#F2DEFF" stroke-opacity="1.000000" stroke-width="3.500000"/>
	<path id="Vector" d="M30.16 25.96L30.16 34.58L24.97 34.58L24.97 25.96L30.16 25.96Z" stroke="#F2DEFF" stroke-opacity="1.000000" stroke-width="3.500000"/>
	<path id="Vector" d="M62.01 1.75L62.01 6.04L2.32 6.04L2.32 1.75L62.01 1.75Z" stroke="#F2DEFF" stroke-opacity="1.000000" stroke-width="3.500000"/>
</svg>
