<svg width="82" height="81" viewBox="0 0 82 81" fill="none" xmlns="http://www.w3.org/2000/svg">
<path d="M25.3435 45.1572C19.3603 45.1572 14.6006 49.9976 14.6006 55.7792C14.6006 61.5608 19.4947 66.4011 25.3435 66.4011C31.1923 66.4011 36.0864 61.5608 36.0864 55.7792C36.2209 49.9976 31.3267 45.1572 25.3435 45.1572ZM25.3435 63.1742C21.2561 63.1742 18.0022 59.9473 18.0022 55.9136C18.0022 51.88 21.2695 48.6531 25.3435 48.6531C29.4175 48.6531 32.6847 51.88 32.6847 55.9136C32.8191 59.9473 29.4175 63.1742 25.3435 63.1742Z" fill="#F2DEFF"/>
<path d="M49.0205 52.0154L43.4406 50.8053C43.0372 49.4607 42.486 48.1161 41.8137 46.9061L44.9465 42.0657C45.3498 41.3934 45.2154 40.5867 44.6776 39.9144L41.5448 36.8219C41.007 36.2841 40.0524 36.1496 39.3666 36.553L34.4725 39.6455C33.2489 38.9732 31.891 38.4354 30.533 38.032L29.3095 32.5194C29.175 31.7126 28.4893 31.1748 27.6825 31.1748H23.1917C22.3715 31.1748 21.6993 31.7126 21.5649 32.5194L20.3413 38.1665C18.9833 38.5698 17.6253 39.1077 16.4018 39.7799L11.5076 36.6875C10.8219 36.2841 10.0152 36.4186 9.32943 36.9564L6.1967 39.9144C5.65888 40.4522 5.51096 41.3934 5.92777 42.0657L9.06059 46.9061C8.37487 48.1161 7.83702 49.4607 7.43366 50.8053L1.71933 52.0154C0.89916 52.1498 0.361328 52.8221 0.361328 53.6288V58.0658C0.361328 58.8726 0.89916 59.5448 1.71933 59.6793L7.29915 60.8894C7.70252 62.234 8.25381 63.5785 8.92609 64.7886L5.79327 69.629C5.3899 70.3013 5.52438 71.108 6.06219 71.7803L9.19501 74.8727C9.73283 75.4106 10.6875 75.545 11.3732 75.1416L16.2673 72.0492C17.4909 72.7214 18.8489 73.2593 20.2069 73.6626L21.4304 79.1753C21.5648 79.982 22.2506 80.5198 23.0573 80.5198H27.5481C28.3683 80.5198 29.0405 79.982 29.175 79.1753L30.3985 73.6626C31.7565 73.2593 33.1145 72.7214 34.3381 72.0492L39.2321 75.1416C39.9179 75.545 40.7247 75.4106 41.4104 74.8727L44.5431 71.7803C45.0944 71.2424 45.2289 70.3013 44.812 69.629L41.6792 64.7886C42.365 63.5785 42.9028 62.234 43.3062 60.8894L48.8861 59.6793C49.7062 59.5448 50.244 58.8726 50.244 58.0658V53.6288C50.3784 52.8221 49.8407 52.1498 49.0205 52.0154ZM46.9767 56.7213L41.6659 57.9314C40.9801 58.0658 40.5767 58.6037 40.4423 59.1415C40.0389 60.8894 39.3532 62.5028 38.3985 63.9819C37.9952 64.5197 37.9952 65.192 38.3985 65.7298L41.3969 70.3013L40.1733 71.5114L35.5481 68.5533C34.9968 68.15 34.3246 68.15 33.7733 68.5533C32.2808 69.4945 30.6406 70.1668 28.8792 70.5702C28.1935 70.7046 27.7901 71.2424 27.6556 71.7803L26.4321 77.024H24.6708L23.4472 71.7803C23.3127 71.108 22.7615 70.7046 22.2237 70.5702C20.4623 70.1668 18.822 69.4945 17.3295 68.5533C16.7917 68.15 16.106 68.15 15.5547 68.5533L10.9294 71.5114L9.70595 70.3013L12.7043 65.7298C13.1076 65.192 13.1076 64.5197 12.7043 63.9819C11.7496 62.5028 11.0773 60.8894 10.6605 59.1415C10.5261 58.4692 9.97484 58.0658 9.43702 57.9314L4.12604 56.7213V54.9734L9.43702 53.7633C10.1227 53.6288 10.5261 53.091 10.6605 52.5532C11.0639 50.8053 11.7496 49.1918 12.7043 47.7128C13.1076 47.175 13.1076 46.5027 12.7043 45.9649L9.70595 41.3934L10.9294 40.1833L15.5547 43.1413C16.106 43.5447 16.7782 43.5447 17.3295 43.1413C18.822 42.2001 20.4623 41.5278 22.2237 41.1245C22.9094 40.99 23.3127 40.4522 23.4472 39.9144L24.6708 34.6706H26.4321L27.6556 39.9144C27.7901 40.5867 28.3414 40.99 28.8792 41.1245C30.654 41.5278 32.2808 42.2001 33.7733 43.1413C34.3111 43.5447 34.9968 43.5447 35.5481 43.1413L40.1733 40.1833L41.3969 41.3934L38.3985 45.9649C37.9952 46.5027 37.9952 47.175 38.3985 47.7128C39.3532 49.1918 40.0255 50.8053 40.4423 52.5532C40.5767 53.2254 41.128 53.6288 41.6659 53.7633L46.9767 54.9734V56.7213Z" fill="#F2DEFF"/>
<path d="M59.7626 12.6221C54.5995 12.6221 50.2432 16.7902 50.2432 22.0339C50.2432 27.2777 54.4651 31.4458 59.7626 31.4458C65.0601 31.4458 69.282 27.2777 69.282 22.0339C69.1475 16.7902 64.9256 12.6221 59.7626 12.6221ZM59.7626 27.95C56.3609 27.95 53.6449 25.2609 53.6449 21.8995C53.6449 18.5381 56.3609 15.849 59.7626 15.849C63.1643 15.849 65.8803 18.5381 65.8803 21.8995C65.7458 25.2609 63.0298 27.95 59.7626 27.95Z" fill="#F2DEFF"/>
<path d="M80.0259 18.4021L75.4007 17.3264C75.1318 16.2508 74.5805 15.1751 74.0427 14.234L76.6243 10.2003C77.0276 9.52802 76.8932 8.7213 76.3553 8.04903L73.6393 5.35992C73.1015 4.8221 72.1469 4.68765 71.4612 5.09102L67.3738 7.64566C66.4191 7.10784 65.33 6.70447 64.241 6.30111L63.2863 1.86408C63.1518 1.05735 62.4662 0.519531 61.6595 0.519531H57.8544C57.0342 0.519531 56.3619 1.05735 56.2274 1.86408L55.1384 6.57001C54.0493 6.83892 52.9602 7.37674 52.0055 7.91456L47.9181 5.35992C47.2324 4.95656 46.4257 5.09101 45.74 5.62883L43.024 8.31793C42.4862 8.85575 42.3383 9.79695 42.7551 10.4692L45.3366 14.5029C44.7988 15.4441 44.382 16.5197 43.9786 17.5953L39.4878 18.4021C38.6676 18.5365 38.1299 19.2088 38.1299 20.0155V23.7803C38.1299 24.587 38.6676 25.2593 39.4878 25.3937L44.1131 26.4694C44.382 27.545 44.9332 28.6207 45.4711 29.5619L42.8895 33.5955C42.4862 34.2678 42.6207 35.0745 43.1585 35.7468L45.8744 38.4359C46.4257 38.9737 47.3669 39.1082 48.0526 38.7048L52.1266 36.1501C53.0812 36.688 54.1703 37.0913 55.2594 37.4947L56.3485 42.0662C56.4829 42.8729 57.1686 43.4107 57.9753 43.4107H61.7804C62.6006 43.4107 63.2729 42.8729 63.4073 42.0662L64.4964 37.4947C65.5855 37.2258 66.6746 36.688 67.6292 36.1501L71.7166 38.7048C72.4024 39.1082 73.2091 38.9737 73.8948 38.4359L76.6108 35.7468C77.1486 35.209 77.2965 34.2678 76.8797 33.5955L74.2981 29.5619C74.836 28.6207 75.2528 27.545 75.6562 26.4694L80.2814 25.3937C81.1016 25.2593 81.6394 24.587 81.6394 23.7803V20.0155C81.3705 19.2088 80.6847 18.5365 80.0125 18.4021H80.0259ZM77.9822 22.4357L73.6259 23.3769C72.9402 23.5114 72.5368 24.0492 72.4024 24.587C72.1335 26.066 71.4477 27.4106 70.7754 28.6207C70.3721 29.1585 70.3721 29.8307 70.7754 30.3686L73.2225 34.1333L72.4024 34.9401L68.5973 32.5199C68.0595 32.1165 67.3737 32.1165 66.8359 32.5199C65.6124 33.3266 64.2544 33.8644 62.7485 34.1333C62.0628 34.2678 61.6594 34.8056 61.525 35.3434L60.3014 39.9149H59.2124L58.2577 35.6123C58.1233 34.9401 57.572 34.5367 57.0342 34.4022C55.5418 34.1333 54.1837 33.461 52.9602 32.7888C52.4089 32.3854 51.7366 32.3854 51.1854 32.7888L47.3804 35.209L46.5601 34.4022L49.0072 30.6375C49.4106 30.0997 49.4106 29.4274 49.0072 28.8896C48.187 27.6795 47.6493 26.3349 47.3804 24.8559C47.2459 24.1836 46.6946 23.7803 46.1568 23.6458L41.5315 22.4357V21.3601L45.8879 20.4189C46.5736 20.2844 46.977 19.7466 47.1114 19.2088C47.3804 17.7298 48.066 16.3853 48.7383 15.1752C49.1417 14.6373 49.1417 13.9651 48.7383 13.4272L46.2912 9.66249L47.1114 8.85575L50.9165 11.2759C51.4543 11.6793 52.14 11.6793 52.6913 11.2759C53.9148 10.4692 55.2728 9.9314 56.7653 9.66249C57.451 9.52803 57.8543 8.99022 57.9888 8.4524L58.9434 4.14982H60.0325L60.9872 8.4524C61.1216 9.12467 61.6729 9.52803 62.2107 9.66249C63.7031 9.9314 65.0612 10.6037 66.2847 11.2759C66.836 11.6793 67.5082 11.6793 68.0594 11.2759L71.8645 8.85575L72.6847 9.66249L70.2377 13.4272C69.8343 13.9651 69.8343 14.6373 70.2377 15.1752C71.0578 16.3853 71.5956 17.7298 71.8645 19.2088C71.999 19.8811 72.5503 20.2844 73.0881 20.4189L77.4444 21.3601V22.4357H77.9957H77.9822Z" fill="#F2DEFF"/>
<path d="M9.57122 29.5624C12.4217 29.5624 14.7343 27.2766 14.7343 24.4531C14.7343 21.6295 12.4217 19.3438 9.57122 19.3438C6.72078 19.3438 4.4082 21.6295 4.4082 24.4531C4.4082 27.2766 6.72078 29.5624 9.57122 29.5624ZM9.57122 22.8396C10.5258 22.8396 11.3326 23.6463 11.3326 24.5875C11.3326 25.5287 10.5124 26.3354 9.57122 26.3354C8.63003 26.3354 7.79649 25.5287 7.79649 24.5875C7.79649 23.6463 8.61659 22.8396 9.57122 22.8396Z" fill="#F2DEFF"/>
<path d="M28.3415 16.1164C32.1466 16.1164 35.1449 13.1584 35.1449 9.39366C35.1449 5.62891 32.1466 2.6709 28.3415 2.6709C24.5364 2.6709 21.5381 5.62891 21.5381 9.39366C21.5381 13.1584 24.5364 16.1164 28.3415 16.1164ZM28.3415 6.03228C30.2507 6.03228 31.7432 7.51128 31.7432 9.39366C31.7432 11.276 30.2507 12.755 28.3415 12.755C26.4322 12.755 24.9398 11.276 24.9398 9.39366C24.9398 7.51128 26.4322 6.03228 28.3415 6.03228Z" fill="#F2DEFF"/>
<path d="M65.7468 71.5127H58.9434V74.8741H65.7468V71.5127Z" fill="#F2DEFF"/>
<path d="M72.5495 68.1504H65.7461V71.5118H72.5495V68.1504Z" fill="#F2DEFF"/>
<path d="M72.5495 74.8721H65.7461V78.2334H72.5495V74.8721Z" fill="#F2DEFF"/>
<path d="M65.7468 64.7871H58.9434V68.1485H65.7468V64.7871Z" fill="#F2DEFF"/>
<path d="M72.5495 61.4277H65.7461V64.7891H72.5495V61.4277Z" fill="#F2DEFF"/>
<path d="M65.7468 58.0654H58.9434V61.4268H65.7468V58.0654Z" fill="#F2DEFF"/>
<path d="M72.5495 54.7061H65.7461V58.0674H72.5495V54.7061Z" fill="#F2DEFF"/>
<path d="M65.7468 51.3438H58.9434V54.7051H65.7468V51.3438Z" fill="#F2DEFF"/>
<path d="M72.5495 47.9844H65.7461V51.3458H72.5495V47.9844Z" fill="#F2DEFF"/>
</svg>
