<svg width="81" height="81" viewBox="0 0 81 81" fill="none" xmlns="http://www.w3.org/2000/svg">
<path d="M40.5001 7.4668C39.514 7.4668 38.6807 8.30013 38.6807 9.27236C38.6807 10.2446 39.5279 11.0779 40.5001 11.0779C56.9446 11.0779 70.4307 24.2723 70.4307 40.6612C70.4307 50.939 65.0973 60.3835 56.0973 65.8001C55.2501 66.3557 54.9723 67.3279 55.5418 68.1613C56.1112 68.9946 57.0834 69.2724 57.9307 68.7168C67.6251 62.8835 73.8057 52.3279 73.8057 40.5224C73.9445 22.189 58.9168 7.4668 40.5001 7.4668Z" fill="#F2DEFF"/>
<path d="M40.5009 69.9656C24.0564 69.9656 10.5703 56.7712 10.5703 40.3823C10.5703 29.549 16.612 19.6878 26.1675 14.4101C27.0148 13.9934 27.2925 12.8823 26.8759 12.049C26.4592 11.2156 25.3342 10.9378 24.487 11.3545C13.8064 17.1878 7.07031 28.299 7.07031 40.3823C7.07031 58.5767 22.0981 73.4379 40.5147 73.4379C41.5009 73.4379 42.3481 72.6045 42.3481 71.6323C42.3481 70.6601 41.5009 69.9656 40.5147 69.9656H40.5009Z" fill="#F2DEFF"/>
<path d="M40.5003 0.519531C18.167 0.519531 0.0419922 18.4362 0.0419922 40.5195C0.0419922 62.6029 18.167 80.5195 40.5003 80.5195C62.8337 80.5195 80.9587 62.6029 80.9587 40.5195C80.9587 18.4362 62.8337 0.519531 40.5003 0.519531ZM40.5003 76.9084C20.1253 76.9084 3.69478 60.5195 3.69478 40.3806C3.69478 20.2418 20.1392 3.99175 40.5003 3.99175C60.8614 3.99175 77.4448 20.2418 77.4448 40.3806C77.4448 60.5195 60.8614 76.9084 40.5003 76.9084Z" fill="#F2DEFF"/>
<path d="M31.8252 42.5146C33.3347 44.613 34.3992 47.1557 34.9023 49.7705C35.4684 52.7131 35.2904 55.5599 34.4268 57.8252H24.1748L31.8252 42.5146Z" stroke="#F2DEFF" stroke-width="5"/>
<path d="M56.5732 57.8232H46.2656L40.2129 45.7129C38.4704 42.1752 37.6773 38.2454 37.9102 34.3086C38.0954 31.1768 38.9262 28.1266 40.3389 25.3447L56.5732 57.8232Z" stroke="#F2DEFF" stroke-width="5"/>
</svg>
