<svg width="77" height="81" viewBox="0 0 77 81" fill="none" xmlns="http://www.w3.org/2000/svg">
<path d="M41.3136 23.9041C42.0069 23.2244 42.0069 22.1368 41.3136 21.4571C40.6202 20.7773 39.5327 20.7773 38.8393 21.4571C38.146 22.1368 38.146 23.2244 38.8393 23.9041C39.2472 24.3119 40.6338 24.5838 41.3136 23.9041Z" fill="#F2DEFF"/>
<path d="M71.1678 53.4026V17.6487C74.0498 17.6487 76.3881 15.3377 76.3881 12.4828C76.3881 9.62793 73.9139 7.45279 71.1678 7.45279H43.6658V5.68549C43.6658 2.83062 41.3276 0.519531 38.4455 0.519531C35.5635 0.519531 33.2252 2.83062 33.2252 5.68549V7.45279H5.72326C2.8412 7.45279 0.50293 9.76387 0.50293 12.6187C0.50293 15.4736 2.8412 17.7847 5.72326 17.7847V53.5385C2.8412 53.5385 0.50293 55.8496 0.50293 58.7045C0.50293 61.5594 2.8412 63.8704 5.72326 63.8704H34.7342L23.3147 77.7369C22.7709 78.4167 22.9069 79.5042 23.5866 80.184C24.2799 80.7278 25.3675 80.5918 26.0608 79.9121L36.787 66.7253V77.1932C36.787 78.1448 37.6162 78.9605 38.5679 78.9605C39.5195 78.9605 40.3488 78.1448 40.3488 77.1932V66.7253L51.0749 79.9121C51.6187 80.5918 52.7199 80.7278 53.5491 80.184C54.2425 79.6402 54.3784 78.5526 53.821 77.7369L42.2656 63.4626H71.2765C74.1586 63.4626 76.4968 61.1515 76.4968 58.2967C76.4968 55.4418 73.8867 53.4026 71.127 53.4026H71.1678ZM4.05113 12.6187C4.05113 11.6671 4.8804 10.8514 5.84562 10.8514H35.142C36.1072 10.8514 36.9229 10.0358 36.9229 9.08414V5.68549C36.9229 4.73386 37.7522 3.91819 38.7038 3.91819C39.6554 3.91819 40.4847 4.73386 40.4847 5.68549V9.08414C40.4847 10.0358 41.314 10.8514 42.2792 10.8514H71.5756C72.5408 10.8514 73.3565 11.6671 73.3565 12.6187C73.3565 13.5704 72.5272 14.386 71.5756 14.386H6.25345C4.8804 14.2501 4.05113 13.4344 4.05113 12.6187ZM9.27146 17.6487H67.7147V21.0474H45.2972C44.332 21.0474 43.5163 21.8631 43.5163 22.8147C43.5163 23.7663 44.3456 24.582 45.2972 24.582H67.7147V53.5385H9.27146V17.6487ZM71.1678 60.1999H5.84562C4.8804 60.1999 4.05113 59.3842 4.05113 58.4326C4.05113 57.481 4.8804 56.6653 5.84562 56.6653H71.1678C72.133 56.6653 72.9487 57.481 72.9487 58.4326C72.9487 59.3842 71.9834 60.1999 71.1678 60.1999Z" fill="#F2DEFF"/>
<path d="M59.0551 27.8452H53.9707C53.0055 27.8452 52.1898 28.6609 52.1898 29.6125C52.1898 30.5641 53.0191 31.3798 53.9707 31.3798H54.9359L45.175 41.032C44.0738 40.0804 42.5648 39.6725 41.0558 39.9444L35.6859 34.6425C36.3793 33.8269 36.923 32.6033 36.923 31.3798C36.923 28.525 34.5848 26.2139 31.7027 26.2139C28.8207 26.2139 26.4824 28.525 26.4824 31.3798C26.4824 32.7393 27.0262 34.0987 27.9914 35.0504L23.8586 40.6242C23.1653 40.2163 22.2137 39.9444 21.3844 39.9444C18.5023 39.9444 16.1641 42.2555 16.1641 45.1104C16.1641 47.9653 18.5023 50.2763 21.3844 50.2763C24.9598 50.2763 27.434 46.6058 26.1969 43.3431C31.2813 36.5458 31.1453 36.9536 31.2813 36.6817H32.6543L38.0242 41.9836C37.3309 42.7993 36.7871 44.0228 36.7871 45.2463C36.7871 48.1012 39.1254 50.4123 42.0074 50.4123C45.175 50.4123 47.6492 47.5574 47.0918 44.4307L57.5461 34.0987V34.6425C57.5461 35.5942 58.3753 36.4098 59.327 36.4098C60.2786 36.4098 61.1079 35.5942 61.1079 34.6425V29.6125C60.836 28.6609 60.0067 27.8452 59.0415 27.8452H59.0551ZM21.2349 46.6058C20.2696 46.6058 19.4404 45.7901 19.4404 44.8385C19.4404 43.8869 20.2696 43.0712 21.2349 43.0712C22.2001 43.0712 23.0158 43.8869 23.0158 44.8385C23.0158 45.7901 22.1865 46.6058 21.2349 46.6058ZM31.5532 29.6125C32.5184 29.6125 33.3341 30.4282 33.3341 31.3798C33.3341 32.3314 32.5048 33.1471 31.5532 33.1471C30.6015 33.1471 29.7723 32.3314 29.7723 31.3798C29.7723 30.4282 30.6015 29.6125 31.5532 29.6125ZM41.8715 46.6058C40.9063 46.6058 40.0906 45.7901 40.0906 44.8385C40.0906 43.8869 40.9199 43.0712 41.8715 43.0712C42.8231 43.0712 43.6524 43.8869 43.6524 44.8385C43.6524 45.7901 42.8231 46.6058 41.8715 46.6058Z" fill="#F2DEFF"/>
<path d="M14.3681 72.0254H7.48926V75.424H14.3681V72.0254Z" fill="#F2DEFF"/>
<path d="M21.249 68.6299H14.3701V72.0285H21.249V68.6299Z" fill="#F2DEFF"/>
<path d="M64.289 72.0254H57.4102V75.424H64.289V72.0254Z" fill="#F2DEFF"/>
<path d="M71.167 68.6299H64.2881V72.0285H71.167V68.6299Z" fill="#F2DEFF"/>
</svg>
