<svg width="55" height="55" viewBox="0 0 55 55" fill="none" xmlns="http://www.w3.org/2000/svg">
<path fill-rule="evenodd" clip-rule="evenodd" d="M54.4212 27.0771C54.4212 16.9521 54.4212 11.8896 52.2441 8.11877C50.8179 5.64846 48.7665 3.5971 46.2962 2.17086C42.5254 -0.00622559 37.4629 -0.00622559 27.3378 -0.00622559C17.2128 -0.00622559 12.1503 -0.00622559 8.37952 2.17086C5.9092 3.5971 3.85784 5.64846 2.4316 8.11877C0.254517 11.8896 0.254517 16.9521 0.254517 27.0771C0.254517 37.2021 0.254517 42.2646 2.4316 46.0354C3.85784 48.5058 5.9092 50.5571 8.37952 51.9834C12.1503 54.1604 17.2128 54.1604 27.3378 54.1604C37.4629 54.1604 42.5254 54.1604 46.2962 51.9834C48.7665 50.5571 50.8179 48.5058 52.2441 46.0354C54.4212 42.2646 54.4212 37.2021 54.4212 27.0771ZM30.0462 18.0423C28.9244 18.0423 28.0149 18.9517 28.0149 20.0735C28.0149 21.1954 28.9244 22.1048 30.0462 22.1048H32.7642L27.3378 27.5311L24.7117 24.9049C24.3307 24.524 23.8141 24.31 23.2753 24.31C22.7366 24.31 22.22 24.524 21.839 24.9049L12.3599 34.3841C11.5666 35.1774 11.5666 36.4635 12.3599 37.2567C13.1531 38.05 14.4392 38.05 15.2325 37.2567L23.2753 29.2139L25.9015 31.8401C26.6948 32.6333 27.9809 32.6333 28.7742 31.8401L35.6753 24.939V27.7339C35.6753 28.8557 36.5847 29.7651 37.7065 29.7651C38.8283 29.7651 39.7378 28.8557 39.7378 27.7339V20.0735C39.7378 18.9517 38.8283 18.0423 37.7065 18.0423H30.0462Z" fill="white"/>
</svg>
