<svg width="66" height="66" viewBox="0 0 66 66" fill="none" xmlns="http://www.w3.org/2000/svg">
<path fill-rule="evenodd" clip-rule="evenodd" d="M31.9837 11.4105H19.7962C13.8131 11.4105 8.96289 16.2608 8.96289 22.2439V43.9105C8.96289 49.8936 13.8131 54.7439 19.7962 54.7439H46.8796C52.8626 54.7439 57.7129 49.8936 57.7129 43.9105V30.3689C57.7129 24.3858 52.8626 19.5355 46.8796 19.5355H40.1087C37.8651 19.5355 36.0462 17.7167 36.0462 15.473C36.0462 13.2294 34.2274 11.4105 31.9837 11.4105ZM38.7711 24.7777C39.6154 24.039 40.8987 24.1245 41.6374 24.9688L46.8703 30.9492L41.6374 36.9297C40.8987 37.7739 39.6154 37.8595 38.7711 37.1207C37.9269 36.382 37.8413 35.0987 38.5801 34.2545L39.6948 32.9805H30.6296C29.5077 32.9805 28.5983 32.071 28.5983 30.9492C28.5983 29.8274 29.5077 28.918 30.6296 28.918H39.6948L38.5801 27.6439C37.8413 26.7997 37.9269 25.5164 38.7711 24.7777ZM25.3874 40.0245C26.1261 39.1803 26.0406 37.897 25.1963 37.1583C24.352 36.4195 23.0688 36.5051 22.3301 37.3493L17.0972 43.3298L22.3301 49.3102C23.0688 50.1545 24.352 50.2401 25.1963 49.5013C26.0406 48.7626 26.1261 47.4793 25.3874 46.6351L24.2726 45.361H33.3379C34.4597 45.361 35.3691 44.4516 35.3691 43.3298C35.3691 42.208 34.4597 41.2985 33.3379 41.2985H24.2726L25.3874 40.0245Z" fill="white"/>
</svg>
