<svg width="66" height="66" viewBox="0 0 66 66" fill="none" xmlns="http://www.w3.org/2000/svg">
<path d="M25.213 10.0563C22.2214 10.0563 19.7963 12.4814 19.7963 15.4729V20.8896C19.7963 23.8811 22.2214 26.3063 25.213 26.3063H31.3067V32.4H22.5046C18.3913 32.4 15.0567 35.7346 15.0567 39.8479H11.6713C8.67976 39.8479 6.25464 42.2731 6.25464 45.2646V50.6813C6.25464 53.6728 8.67976 56.0979 11.6713 56.0979H22.5046C25.4962 56.0979 27.9213 53.6728 27.9213 50.6813V45.2646C27.9213 42.2731 25.4962 39.8479 22.5046 39.8479H19.1192C19.1192 37.9782 20.6349 36.4625 22.5046 36.4625H44.1713C46.041 36.4625 47.5567 37.9782 47.5567 39.8479H44.1713C41.1798 39.8479 38.7546 42.2731 38.7546 45.2646V50.6813C38.7546 53.6728 41.1798 56.0979 44.1713 56.0979H55.0046C57.9962 56.0979 60.4213 53.6728 60.4213 50.6813V45.2646C60.4213 42.2731 57.9962 39.8479 55.0046 39.8479H51.6192C51.6192 35.7346 48.2847 32.4 44.1713 32.4H35.3692V26.3063H41.463C44.4545 26.3063 46.8796 23.8811 46.8796 20.8896V15.4729C46.8796 12.4814 44.4545 10.0563 41.463 10.0563H25.213Z" fill="white"/>
</svg>
