<svg width="66" height="66" viewBox="0 0 66 66" fill="none" xmlns="http://www.w3.org/2000/svg">
<path d="M33.3378 5.99377C21.3716 5.99377 11.6711 15.4729 11.6711 27.6604C11.6711 36.9421 17.9545 43.0822 20.9506 45.4824C21.8884 46.2337 22.5045 47.3487 22.5045 48.5504C22.5045 50.4751 24.0648 52.0354 25.9895 52.0354H40.6861C42.6108 52.0354 44.1711 50.4751 44.1711 48.5504C44.1711 47.3487 44.7872 46.2337 45.725 45.4824C48.7212 43.0822 55.0045 36.9421 55.0045 27.6604C55.0045 15.4729 45.304 5.99377 33.3378 5.99377Z" fill="white"/>
<path d="M25.5467 54.0943C24.4402 53.9099 23.3936 54.6574 23.2092 55.764C23.0248 56.8706 23.7723 57.9171 24.8789 58.1016C30.4795 59.035 36.1961 59.035 41.7967 58.1016C42.9033 57.9171 43.6509 56.8706 43.4664 55.764C43.282 54.6574 42.2354 53.9099 41.1289 54.0943C35.9704 54.9541 30.7052 54.9541 25.5467 54.0943Z" fill="white"/>
</svg>
