<svg width="66" height="66" viewBox="0 0 66 66" fill="none" xmlns="http://www.w3.org/2000/svg">
<path fill-rule="evenodd" clip-rule="evenodd" d="M33.3378 60.1604C48.2956 60.1604 60.4212 48.0348 60.4212 33.0771C60.4212 18.1194 48.2956 5.99377 33.3378 5.99377C18.3801 5.99377 6.25452 18.1194 6.25452 33.0771C6.25452 48.0348 18.3801 60.1604 33.3378 60.1604ZM24.5358 33.0771C24.5358 34.1989 23.6263 35.1084 22.5045 35.1084C21.3827 35.1084 20.4733 34.1989 20.4733 33.0771C20.4733 25.9722 26.2329 20.2125 33.3378 20.2125C35.033 20.2125 36.6516 20.5404 38.1336 21.1362L39.7211 18.4904C40.2982 17.5284 41.546 17.2165 42.5079 17.7937C43.4699 18.3708 43.7818 19.6185 43.2046 20.5805L41.6155 23.229C44.4202 25.5889 46.2024 29.1249 46.2024 33.0771C46.2024 34.1989 45.293 35.1084 44.1712 35.1084C43.0494 35.1084 42.1399 34.1989 42.1399 33.0771C42.1399 30.6081 41.1234 28.3766 39.486 26.7782L37.6633 29.8161C38.3483 30.7233 38.7545 31.8528 38.7545 33.0771C38.7545 36.0686 36.3294 38.4938 33.3378 38.4938C30.3463 38.4938 27.9212 36.0686 27.9212 33.0771C27.9212 30.0856 30.3463 27.6604 33.3378 27.6604C33.6243 27.6604 33.9056 27.6827 34.18 27.7255L36.0037 24.686C35.1628 24.419 34.2671 24.275 33.3378 24.275C28.4766 24.275 24.5358 28.2159 24.5358 33.0771Z" fill="white"/>
</svg>
