<svg width="209" height="93" viewBox="0 0 209 93" fill="none" xmlns="http://www.w3.org/2000/svg">
<mask id="mask0_762_2627" style="mask-type:luminance" maskUnits="userSpaceOnUse" x="21" y="4" width="32" height="86">
<path d="M21.4717 48.6329C30.3424 59.7589 33.0264 73.9867 28.7397 87.1559C32.1217 88.3005 35.7449 88.9607 39.4974 89.0545C35.6458 82.5813 34.81 74.9751 37.1839 67.9393C39.5577 60.9035 44.9388 55.0241 52.1249 51.6097C55.83 32.9986 46.1752 14.2938 28.0418 4.95312C34.3792 18.5872 32.1906 33.1471 21.4717 48.6329Z" fill="white"/>
</mask>
<g mask="url(#mask0_762_2627)">
<path d="M55.83 4.95312H21.4717V89.0506H55.83V4.95312Z" fill="url(#paint0_linear_762_2627)"/>
</g>
<mask id="mask1_762_2627" style="mask-type:luminance" maskUnits="userSpaceOnUse" x="35" y="34" width="39" height="56">
<path d="M52.1242 51.607C44.9381 55.0214 39.557 60.9008 37.1832 67.9366C34.8093 74.9724 35.6451 82.5746 39.4967 89.0518C53.9725 89.4151 67.061 81.2933 71.9293 68.9289C76.7976 56.5645 72.3386 42.7624 60.8829 34.7344C62.1237 41.4615 58.634 48.1848 52.1242 51.607Z" fill="white"/>
</mask>
<g mask="url(#mask1_762_2627)">
<path d="M76.7936 34.7305H34.8096V89.4151H76.7936V34.7305Z" fill="url(#paint1_linear_762_2627)"/>
</g>
<mask id="mask2_762_2627" style="mask-type:luminance" maskUnits="userSpaceOnUse" x="6" y="33" width="25" height="55">
<path d="M28.7393 87.1533C33.026 73.9841 30.3419 59.7563 21.4712 48.6303C19.9978 44.6768 19.9978 39.7154 21.4712 33.7383C9.54167 41.1765 4.2425 54.7363 8.34827 67.3273C11.3856 76.6562 19.0758 83.8834 28.7393 87.1533Z" fill="white"/>
</mask>
<g mask="url(#mask2_762_2627)">
<path d="M33.0266 33.7383H4.24316V87.1533H33.0266V33.7383Z" fill="url(#paint2_linear_762_2627)"/>
</g>
<path fill-rule="evenodd" clip-rule="evenodd" d="M31.036 87.8453C35.8311 74.1644 32.182 59.2021 21.4717 48.6309C30.3424 59.7569 33.0264 73.9847 28.7397 87.1539C29.4937 87.4078 30.2605 87.6422 31.036 87.8453Z" fill="#0021AD"/>
<path fill-rule="evenodd" clip-rule="evenodd" d="M39.484 89.0522C35.6324 82.579 34.7966 74.9728 37.1704 67.937C39.5443 60.9012 44.9253 55.0218 52.1115 51.6074C37.1446 58.5729 30.5012 74.7384 36.7956 88.8842C37.6788 88.9741 38.5792 89.0288 39.484 89.0522Z" fill="#0021AD"/>
<path fill-rule="evenodd" clip-rule="evenodd" d="M60.8833 34.7324C70.9344 55.1093 61.5123 79.0528 39.4971 89.0498C53.9728 89.4132 67.0613 81.2913 71.9296 68.9269C76.798 56.5664 72.3389 42.7644 60.8833 34.7324Z" fill="#649CFF"/>
<path fill-rule="evenodd" clip-rule="evenodd" d="M28.7393 87.1572C13.6087 72.7457 10.6575 51.0563 21.4712 33.7422C9.54167 41.1804 4.2425 54.7402 8.34827 67.3312C11.3856 76.6601 19.0758 83.8874 28.7393 87.1572Z" fill="#649CFF"/>
<path fill-rule="evenodd" clip-rule="evenodd" d="M28.041 4.95312C39.6647 22.7086 43.2535 43.48 38.7858 63.1107C41.8188 58.3408 46.3468 54.2896 52.1113 51.6097C51.9002 51.7113 51.689 51.8128 51.4779 51.9183C51.6934 51.8128 51.9088 51.7113 52.1242 51.6097C55.8293 32.9986 46.1745 14.2938 28.041 4.95312Z" fill="#649CFF"/>
<path d="M87.9449 40.8026C85.7427 40.8026 83.8457 40.312 82.254 39.3308C80.6841 38.3278 79.474 36.9868 78.6236 35.3079C77.7733 33.629 77.3481 31.7647 77.3481 29.7151C77.3481 27.6655 77.7842 25.8013 78.6563 24.1223C79.5285 22.4434 80.7604 21.1134 82.3522 20.1322C83.9657 19.1292 85.8517 18.6277 88.0104 18.6277C90.3434 18.6277 92.3603 19.2055 94.061 20.3611C95.7836 21.4949 97.0482 22.9667 97.855 24.7765H95.173C94.5189 23.6208 93.6031 22.7051 92.4257 22.0291C91.2701 21.3532 89.8637 21.0152 88.2066 21.0152C86.4623 21.0152 84.9578 21.4077 83.6931 22.1927C82.4285 22.9558 81.4582 23.9915 80.7823 25.2998C80.1281 26.608 79.8011 28.0798 79.8011 29.7151C79.8011 31.3286 80.1281 32.8004 80.7823 34.1305C81.4364 35.4387 82.3849 36.4853 83.6277 37.2703C84.8923 38.0334 86.3968 38.415 88.1412 38.415C89.4494 38.415 90.6814 38.1316 91.837 37.5646C93.0144 36.9977 93.9629 36.1801 94.6824 35.1117C95.4238 34.0433 95.7945 32.7568 95.7945 31.2523H87.8795V29.0283H98.0512V40.5409H95.7945V36.7143C95.3366 37.412 94.7479 38.077 94.0283 38.7094C93.3088 39.3199 92.4366 39.8214 91.4118 40.2139C90.4088 40.6063 89.2532 40.8026 87.9449 40.8026Z" fill="#5370EB"/>
<path d="M101.834 40.5409V24.1878H104.287V28.2106C104.374 27.9272 104.538 27.5565 104.777 27.0986C105.039 26.6189 105.41 26.1392 105.889 25.6595C106.369 25.1798 106.969 24.7765 107.688 24.4494C108.43 24.1005 109.302 23.9261 110.305 23.9261H110.468V26.3791H110.174C108.953 26.3791 107.895 26.717 107.001 27.393C106.129 28.0471 105.453 28.9084 104.974 29.9768C104.516 31.0234 104.287 32.1463 104.287 33.3455V40.5409H101.834Z" fill="#5370EB"/>
<path d="M119.594 40.8026C118.003 40.8026 116.607 40.4319 115.408 39.6906C114.231 38.9274 113.315 37.9026 112.661 36.6162C112.007 35.3297 111.68 33.9124 111.68 32.3643C111.68 30.7944 112.007 29.3772 112.661 28.1125C113.315 26.8261 114.231 25.8122 115.408 25.0708C116.607 24.3077 118.003 23.9261 119.594 23.9261C120.946 23.9261 122.102 24.1878 123.061 24.7111C124.043 25.2344 124.838 25.943 125.449 26.837V24.1878H127.902V40.5409H125.449V37.9244C124.838 38.7966 124.043 39.4943 123.061 40.0176C122.102 40.5409 120.946 40.8026 119.594 40.8026ZM119.922 38.5785C121.143 38.5785 122.167 38.2951 122.996 37.7282C123.846 37.1613 124.49 36.409 124.926 35.4714C125.362 34.5121 125.58 33.4764 125.58 32.3643C125.58 31.2305 125.362 30.1948 124.926 29.2572C124.49 28.3197 123.846 27.5674 122.996 27.0005C122.167 26.4336 121.143 26.1501 119.922 26.1501C118.722 26.1501 117.687 26.4336 116.814 27.0005C115.942 27.5674 115.277 28.3197 114.819 29.2572C114.361 30.1948 114.133 31.2305 114.133 32.3643C114.133 33.4764 114.361 34.5121 114.819 35.4714C115.277 36.409 115.942 37.1613 116.814 37.7282C117.687 38.2951 118.722 38.5785 119.922 38.5785Z" fill="#5370EB"/>
<path d="M132.145 40.5409V24.1878H134.598V26.7388C135.186 25.9539 135.906 25.2889 136.756 24.7438C137.607 24.1987 138.697 23.9261 140.027 23.9261C141.161 23.9261 142.218 24.1987 143.2 24.7438C144.203 25.2671 145.009 26.0629 145.62 27.1313C146.252 28.1779 146.568 29.4753 146.568 31.0234V40.5409H144.115V31.0888C144.115 29.6061 143.69 28.4178 142.84 27.5238C141.989 26.608 140.888 26.1501 139.536 26.1501C138.621 26.1501 137.792 26.3573 137.051 26.7716C136.309 27.1858 135.71 27.7746 135.252 28.5377C134.816 29.279 134.598 30.1403 134.598 31.1215V40.5409H132.145Z" fill="#5370EB"/>
<path d="M157.571 40.8026C155.979 40.8026 154.584 40.4319 153.384 39.6906C152.207 38.9274 151.291 37.9026 150.637 36.6162C149.983 35.3297 149.656 33.9124 149.656 32.3643C149.656 30.7944 149.983 29.3772 150.637 28.1125C151.291 26.8261 152.207 25.8122 153.384 25.0708C154.584 24.3077 155.979 23.9261 157.571 23.9261C158.923 23.9261 160.078 24.1878 161.038 24.7111C162.019 25.2344 162.815 25.943 163.425 26.837V17.6465H165.878V40.5409H163.425V37.9244C162.815 38.7966 162.019 39.4943 161.038 40.0176C160.078 40.5409 158.923 40.8026 157.571 40.8026ZM157.898 38.5785C159.119 38.5785 160.144 38.2951 160.972 37.7282C161.823 37.1613 162.466 36.409 162.902 35.4714C163.338 34.5121 163.556 33.4764 163.556 32.3643C163.556 31.2305 163.338 30.1948 162.902 29.2572C162.466 28.3197 161.823 27.5674 160.972 27.0005C160.144 26.4336 159.119 26.1501 157.898 26.1501C156.699 26.1501 155.663 26.4336 154.791 27.0005C153.919 27.5674 153.254 28.3197 152.796 29.2572C152.338 30.1948 152.109 31.2305 152.109 32.3643C152.109 33.4764 152.338 34.5121 152.796 35.4714C153.254 36.409 153.919 37.1613 154.791 37.7282C155.663 38.2951 156.699 38.5785 157.898 38.5785Z" fill="#5370EB"/>
<path d="M170.023 21.4404V18.2352H172.672V21.4404H170.023ZM170.121 40.5409V24.1878H172.574V40.5409H170.121Z" fill="#5370EB"/>
<path d="M183.73 40.8026C182.138 40.8026 180.742 40.4319 179.543 39.6906C178.366 38.9274 177.45 37.9026 176.796 36.6162C176.142 35.3297 175.815 33.9124 175.815 32.3643C175.815 30.7944 176.142 29.3772 176.796 28.1125C177.45 26.8261 178.366 25.8122 179.543 25.0708C180.742 24.3077 182.138 23.9261 183.73 23.9261C185.081 23.9261 186.237 24.1878 187.196 24.7111C188.178 25.2344 188.973 25.943 189.584 26.837V24.1878H192.037V40.5409H189.584V37.9244C188.973 38.7966 188.178 39.4943 187.196 40.0176C186.237 40.5409 185.081 40.8026 183.73 40.8026ZM184.057 38.5785C185.278 38.5785 186.302 38.2951 187.131 37.7282C187.981 37.1613 188.625 36.409 189.061 35.4714C189.497 34.5121 189.715 33.4764 189.715 32.3643C189.715 31.2305 189.497 30.1948 189.061 29.2572C188.625 28.3197 187.981 27.5674 187.131 27.0005C186.302 26.4336 185.278 26.1501 184.057 26.1501C182.857 26.1501 181.822 26.4336 180.95 27.0005C180.077 27.5674 179.412 28.3197 178.954 29.2572C178.497 30.1948 178.268 31.2305 178.268 32.3643C178.268 33.4764 178.497 34.5121 178.954 35.4714C179.412 36.409 180.077 37.1613 180.95 37.7282C181.822 38.2951 182.857 38.5785 184.057 38.5785Z" fill="#5370EB"/>
<path d="M86.4732 74.531C84.3363 74.531 82.6029 74.2475 81.2728 73.6806C79.9428 73.0919 78.9398 72.2852 78.2639 71.2604C77.6097 70.2356 77.2282 69.0799 77.1191 67.7935H79.6702C79.7356 68.8401 80.0845 69.6905 80.7168 70.3446C81.3492 70.9769 82.1777 71.4457 83.2025 71.751C84.2491 72.0562 85.3938 72.2088 86.6367 72.2088C88.4682 72.2088 89.9182 71.8927 90.9866 71.2604C92.055 70.6062 92.5892 69.6468 92.5892 68.3822C92.5892 67.6191 92.3167 67.0085 91.7716 66.5506C91.2483 66.071 90.5396 65.6785 89.6457 65.3732C88.7735 65.068 87.8141 64.7954 86.7675 64.5556C85.7209 64.2939 84.6634 64.0214 83.595 63.7379C82.5484 63.4544 81.5781 63.0947 80.6841 62.6586C79.812 62.2225 79.1033 61.6665 78.5582 60.9906C78.0349 60.2928 77.7733 59.4098 77.7733 58.3414C77.7733 56.5752 78.4492 55.1361 79.8011 54.0241C81.1747 52.9121 83.2134 52.3561 85.9171 52.3561C87.8359 52.3561 89.4167 52.6505 90.6596 53.2392C91.9024 53.8061 92.8291 54.5583 93.4396 55.4959C94.0719 56.4335 94.4208 57.4474 94.4862 58.5376H91.9678C91.837 57.4474 91.2919 56.5316 90.3325 55.7903C89.3731 55.0271 87.9013 54.6455 85.9171 54.6455C84.6961 54.6455 83.704 54.7655 82.9409 55.0053C82.1777 55.2452 81.589 55.5613 81.1747 55.9538C80.7823 56.3245 80.5097 56.7169 80.3571 57.1312C80.2262 57.5455 80.1608 57.938 80.1608 58.3086C80.1608 59.0282 80.4225 59.6169 80.9458 60.0748C81.4909 60.5109 82.1995 60.8815 83.0717 61.1868C83.9657 61.4703 84.9469 61.7319 86.0153 61.9718C87.0837 62.2116 88.1412 62.4842 89.1878 62.7894C90.2562 63.0729 91.2265 63.4435 92.0986 63.9014C92.9926 64.3375 93.7013 64.9044 94.2246 65.6022C94.7697 66.2999 95.0422 67.1939 95.0422 68.2841C95.0422 70.2901 94.2791 71.8382 92.7528 72.9284C91.2265 73.9968 89.1333 74.531 86.4732 74.531Z" fill="#5370EB"/>
<path d="M105.418 74.531C103.761 74.531 102.322 74.1603 101.101 73.419C99.8795 72.6558 98.9419 71.631 98.2878 70.3446C97.6337 69.0581 97.3066 67.6409 97.3066 66.0928C97.3066 64.5229 97.6337 63.1056 98.2878 61.8409C98.9419 60.5545 99.8795 59.5406 101.101 58.7992C102.322 58.0361 103.761 57.6545 105.418 57.6545C107.097 57.6545 108.536 58.0361 109.735 58.7992C110.956 59.5406 111.894 60.5545 112.548 61.8409C113.202 63.1056 113.529 64.5229 113.529 66.0928C113.529 67.6409 113.202 69.0581 112.548 70.3446C111.894 71.631 110.956 72.6558 109.735 73.419C108.536 74.1603 107.097 74.531 105.418 74.531ZM105.418 72.307C106.639 72.307 107.664 72.0235 108.492 71.4566C109.343 70.8897 109.986 70.1374 110.422 69.1999C110.858 68.2405 111.076 67.2048 111.076 66.0928C111.076 64.9589 110.858 63.9232 110.422 62.9857C109.986 62.0481 109.343 61.2958 108.492 60.7289C107.664 60.162 106.639 59.8786 105.418 59.8786C104.219 59.8786 103.194 60.162 102.343 60.7289C101.493 61.2958 100.85 62.0481 100.414 62.9857C99.9776 63.9232 99.7596 64.9589 99.7596 66.0928C99.7596 67.2048 99.9776 68.2405 100.414 69.1999C100.85 70.1374 101.493 70.8897 102.343 71.4566C103.194 72.0235 104.219 72.307 105.418 72.307Z" fill="#5370EB"/>
<path d="M116.782 74.2693V51.3749H119.235V74.2693H116.782Z" fill="#5370EB"/>
<path d="M129.867 74.531C128.755 74.531 127.697 74.2693 126.694 73.746C125.691 73.2009 124.874 72.4051 124.241 71.3585C123.631 70.2901 123.326 68.9818 123.326 67.4337V57.9162H125.779V67.3683C125.779 68.851 126.204 70.0502 127.054 70.966C127.926 71.86 129.027 72.307 130.357 72.307C131.273 72.307 132.102 72.0998 132.843 71.6855C133.584 71.2495 134.173 70.6607 134.609 69.9194C135.067 69.1781 135.296 68.3168 135.296 67.3356V57.9162H137.749V74.2693H135.296V71.7183C134.707 72.5032 133.988 73.1682 133.137 73.7133C132.287 74.2584 131.197 74.531 129.867 74.531Z" fill="#5370EB"/>
<path d="M143.78 74.2693V60.0748H140.444V57.9162H143.78V52.0617H146.233V57.9162H149.995V60.0748H146.233V74.2693H143.78Z" fill="#5370EB"/>
<path d="M152.584 55.1688V51.9636H155.233V55.1688H152.584ZM152.682 74.2693V57.9162H155.135V74.2693H152.682Z" fill="#5370EB"/>
<path d="M166.487 74.531C164.83 74.531 163.39 74.1603 162.169 73.419C160.948 72.6558 160.011 71.631 159.357 70.3446C158.703 69.0581 158.376 67.6409 158.376 66.0928C158.376 64.5229 158.703 63.1056 159.357 61.8409C160.011 60.5545 160.948 59.5406 162.169 58.7992C163.39 58.0361 164.83 57.6545 166.487 57.6545C168.166 57.6545 169.605 58.0361 170.804 58.7992C172.025 59.5406 172.963 60.5545 173.617 61.8409C174.271 63.1056 174.598 64.5229 174.598 66.0928C174.598 67.6409 174.271 69.0581 173.617 70.3446C172.963 71.631 172.025 72.6558 170.804 73.419C169.605 74.1603 168.166 74.531 166.487 74.531ZM166.487 72.307C167.708 72.307 168.733 72.0235 169.561 71.4566C170.411 70.8897 171.055 70.1374 171.491 69.1999C171.927 68.2405 172.145 67.2048 172.145 66.0928C172.145 64.9589 171.927 63.9232 171.491 62.9857C171.055 62.0481 170.411 61.2958 169.561 60.7289C168.733 60.162 167.708 59.8786 166.487 59.8786C165.287 59.8786 164.263 60.162 163.412 60.7289C162.562 61.2958 161.919 62.0481 161.483 62.9857C161.047 63.9232 160.828 64.9589 160.828 66.0928C160.828 67.2048 161.047 68.2405 161.483 69.1999C161.919 70.1374 162.562 70.8897 163.412 71.4566C164.263 72.0235 165.287 72.307 166.487 72.307Z" fill="#5370EB"/>
<path d="M177.851 74.2693V57.9162H180.304V60.4673C180.892 59.6823 181.612 59.0173 182.462 58.4722C183.313 57.9271 184.403 57.6545 185.733 57.6545C186.867 57.6545 187.924 57.9271 188.905 58.4722C189.908 58.9955 190.715 59.7913 191.326 60.8597C191.958 61.9063 192.274 63.2037 192.274 64.7518V74.2693H189.821V64.8172C189.821 63.3345 189.396 62.1462 188.546 61.2522C187.695 60.3364 186.594 59.8786 185.242 59.8786C184.326 59.8786 183.498 60.0857 182.757 60.5C182.015 60.9143 181.416 61.503 180.958 62.2661C180.522 63.0075 180.304 63.8687 180.304 64.8499V74.2693H177.851Z" fill="#5370EB"/>
<path d="M202.328 74.531C200.824 74.531 199.548 74.2802 198.502 73.7788C197.477 73.2773 196.692 72.6231 196.147 71.8164C195.602 70.9878 195.296 70.0938 195.231 69.1344H197.782C197.847 69.6796 198.033 70.2138 198.338 70.7371C198.665 71.2386 199.156 71.6528 199.81 71.9799C200.464 72.2852 201.314 72.4378 202.361 72.4378C202.688 72.4378 203.091 72.4051 203.571 72.3397C204.051 72.2743 204.509 72.1543 204.945 71.9799C205.403 71.8055 205.784 71.5438 206.089 71.195C206.395 70.8461 206.547 70.3991 206.547 69.854C206.547 69.1781 206.286 68.6548 205.762 68.2841C205.239 67.9134 204.563 67.63 203.735 67.4337C202.906 67.2157 202.023 67.0085 201.085 66.8123C200.17 66.6161 199.297 66.3653 198.469 66.0601C197.64 65.733 196.964 65.286 196.441 64.7191C195.918 64.1304 195.656 63.3345 195.656 62.3315C195.656 60.8488 196.19 59.7041 197.259 58.8974C198.349 58.0688 199.952 57.6545 202.067 57.6545C203.506 57.6545 204.672 57.8835 205.566 58.3414C206.482 58.7774 207.169 59.3443 207.627 60.0421C208.106 60.7398 208.39 61.4921 208.477 62.2988H205.991C205.904 61.6011 205.555 61.0015 204.945 60.5C204.356 59.9985 203.375 59.7477 202.001 59.7477C199.406 59.7477 198.109 60.5327 198.109 62.1026C198.109 62.7567 198.371 63.2582 198.894 63.6071C199.417 63.9559 200.093 64.2394 200.922 64.4574C201.75 64.6537 202.623 64.8499 203.538 65.0462C204.476 65.2206 205.359 65.4713 206.188 65.7984C207.016 66.1255 207.692 66.5943 208.215 67.2048C208.739 67.7935 209 68.6002 209 69.625C209 71.2168 208.39 72.4378 207.169 73.2882C205.97 74.1167 204.356 74.531 202.328 74.531Z" fill="#5370EB"/>
<defs>
<linearGradient id="paint0_linear_762_2627" x1="50.794" y1="31.143" x2="19.2834" y2="81.2028" gradientUnits="userSpaceOnUse">
<stop stop-color="#8DBBFF"/>
<stop offset="1" stop-color="#0021AD"/>
</linearGradient>
<linearGradient id="paint1_linear_762_2627" x1="61.4268" y1="48.3242" x2="47.7863" y2="88.892" gradientUnits="userSpaceOnUse">
<stop stop-color="#8DBBFF"/>
<stop offset="1" stop-color="#0021AD"/>
</linearGradient>
<linearGradient id="paint2_linear_762_2627" x1="24.0765" y1="47.4025" x2="12.7971" y2="80.2934" gradientUnits="userSpaceOnUse">
<stop stop-color="#8DBBFF"/>
<stop offset="1" stop-color="#0021AD"/>
</linearGradient>
</defs>
</svg>
