<svg width="27" height="29" viewBox="0 0 27 29" fill="none" xmlns="http://www.w3.org/2000/svg">
<path d="M26.4236 13.616L14.7508 1.57378L13.605 0.391724L4.83253 9.44186L0.822255 13.616C0.392582 14.0593 0.392582 14.7611 0.822255 15.1674L8.84281 23.4419L13.605 28.3548L22.3775 19.3047L22.5207 19.1569L26.4236 15.1674C26.8533 14.7242 26.8533 14.0223 26.4236 13.616ZM13.605 18.5289L9.59474 14.3917L13.605 10.2545L17.6153 14.3917L13.605 18.5289Z" fill="white"/>
<path d="M13.605 10.2546C10.9912 7.558 10.9554 3.16222 13.5692 0.428711L4.83252 9.47884L9.59473 14.3918L13.605 10.2546Z" fill="white"/>
<path d="M17.6511 14.3547L13.605 18.5289C16.2546 21.2624 16.2546 25.6582 13.605 28.3917L22.4133 19.3046L17.6511 14.3547Z" fill="white"/>
</svg>
