<svg width="25" height="25" viewBox="0 0 25 25" fill="none" xmlns="http://www.w3.org/2000/svg">
<path d="M12.5147 12.5939V18.6894H6.50566V12.5939H12.5147V6.50195H1.5528C1.41239 6.50288 1.27357 6.53169 1.1444 6.58673C1.01523 6.64176 0.898278 6.72191 0.800346 6.82253C0.702414 6.92314 0.625451 7.04221 0.573929 7.17283C0.522407 7.30344 0.497353 7.44299 0.500221 7.58336V23.7324C0.497353 23.8728 0.522407 24.0124 0.573929 24.143C0.625451 24.2736 0.702414 24.3926 0.800346 24.4933C0.898278 24.5939 1.01523 24.674 1.1444 24.7291C1.27357 24.7841 1.41239 24.8129 1.5528 24.8138H17.4568C17.5972 24.8129 17.736 24.7841 17.8651 24.7291C17.9943 24.674 18.1113 24.5939 18.2092 24.4933C18.3071 24.3926 18.3841 24.2736 18.4356 24.143C18.4871 24.0124 18.5122 23.8728 18.5093 23.7324V12.5939H12.5147Z" fill="url(#paint0_linear_24_393)"/>
<path d="M12.5137 0.406021V6.50157H18.5371V12.5935H24.5282V1.47301C24.531 1.33263 24.506 1.19309 24.4544 1.06248C24.4029 0.931863 24.326 0.812791 24.228 0.712176C24.1301 0.611562 24.0131 0.53141 23.884 0.476377C23.7548 0.421344 23.616 0.392527 23.4756 0.391602L12.5137 0.406021Z" fill="white"/>
<defs>
<linearGradient id="paint0_linear_24_393" x1="17.5541" y1="7.59778" x2="7.24463" y2="17.9072" gradientUnits="userSpaceOnUse">
<stop offset="0.2" stop-color="white"/>
<stop offset="1" stop-color="white"/>
</linearGradient>
</defs>
</svg>
