<svg width="23" height="20" viewBox="0 0 23 20" fill="none" xmlns="http://www.w3.org/2000/svg">
<path d="M0.714155 0.0810547C0.285584 0.0810547 -0.0715591 0.463361 -0.000130514 0.880423L3.03558 18.7793C3.10701 19.2311 3.49987 19.5787 3.99987 19.5787H18.5356C18.8927 19.5787 19.1784 19.3354 19.2499 18.9878L22.2856 0.880423C22.357 0.463361 22.0356 0.0810547 21.5713 0.0810547H0.714155ZM13.4999 13.01H8.85701L7.60701 6.61502H14.6427L13.4999 13.01Z" fill="white"/>
<path d="M21.3212 6.61499H14.6069L13.4998 13.0099H8.85693L3.35693 19.3354C3.35693 19.3354 3.60693 19.5787 3.99979 19.5787H18.5355C18.8926 19.5787 19.1784 19.3354 19.2498 18.9878L21.3212 6.61499Z" fill="url(#paint0_linear_24_431)"/>
<defs>
<linearGradient id="paint0_linear_24_431" x1="22.861" y1="8.41148" x2="12.0122" y2="17.1136" gradientUnits="userSpaceOnUse">
<stop offset="0.176" stop-color="white"/>
<stop offset="1" stop-color="white"/>
</linearGradient>
</defs>
</svg>
