<svg width="33" height="32" viewBox="0 0 33 32" fill="none" xmlns="http://www.w3.org/2000/svg">
<g clip-path="url(#clip0_47_3115)">
<path d="M16.9414 13.0908V19.2872H25.5523C25.1742 21.2799 24.0395 22.9673 22.3377 24.1018L27.5304 28.1309C30.5559 25.3383 32.3013 21.2364 32.3013 16.3637C32.3013 15.2292 32.1995 14.1382 32.0104 13.091L16.9414 13.0908Z" fill="#DFACFF"/>
<path d="M7.97488 19.0449L6.80373 19.9414L2.6582 23.1705C5.29092 28.3922 10.6869 31.9996 16.9414 31.9996C21.2613 31.9996 24.883 30.5741 27.5304 28.1305L22.3377 24.1014C20.9122 25.0614 19.094 25.6433 16.9414 25.6433C12.7814 25.6433 9.24696 22.836 7.98142 19.0542L7.97488 19.0449Z" fill="#DFACFF"/>
<path d="M2.65764 8.8291C1.5668 10.9817 0.941406 13.4109 0.941406 15.9999C0.941406 18.589 1.5668 21.0181 2.65764 23.1707C2.65764 23.1852 7.98137 19.0398 7.98137 19.0398C7.66137 18.0798 7.47223 17.0617 7.47223 15.9997C7.47223 14.9378 7.66137 13.9197 7.98137 12.9597L2.65764 8.8291Z" fill="#DFACFF"/>
<path d="M16.9417 6.3709C19.2981 6.3709 21.3926 7.18543 23.0653 8.75636L27.6471 4.1746C24.8689 1.58555 21.2618 0 16.9417 0C10.6872 0 5.29092 3.59272 2.6582 8.8291L7.98177 12.96C9.24715 9.17816 12.7817 6.3709 16.9417 6.3709Z" fill="#DFACFF"/>
</g>
<defs>
<clipPath id="clip0_47_3115">
<rect width="32" height="32" fill="white" transform="translate(0.941406)"/>
</clipPath>
</defs>
</svg>
