<svg width="32.000000" height="32.000000" viewBox="0 0 32 32" fill="none" xmlns="http://www.w3.org/2000/svg" xmlns:xlink="http://www.w3.org/1999/xlink">
	<desc>
			Created with Pixso.
	</desc>
	<defs>
		<clipPath id="clip47_3116">
			<rect id="Social Icons" rx="0.000000" width="31.000000" height="31.000000" transform="translate(0.500000 0.500000)" fill="white" fill-opacity="0"/>
		</clipPath>
	</defs>
	<rect id="Social Icons" rx="0.000000" width="31.000000" height="31.000000" transform="translate(0.500000 0.500000)" fill="#FFFFFF" fill-opacity="0"/>
	<g clip-path="url(#clip47_3116)">
		<path id="Vector" d="M44.44 0L3.54 0C1.58 0 0 1.54 0 3.45L0 44.53C0 46.44 1.58 48 3.54 48L44.44 48C46.4 48 48 46.44 48 44.54L48 3.45C48 1.54 46.4 0 44.44 0ZM14.24 40.9L7.11 40.9L7.11 17.99L14.24 17.99L14.24 40.9ZM10.67 14.86C8.39 14.86 6.54 13.02 6.54 10.74C6.54 8.46 8.39 6.61 10.67 6.61C12.95 6.61 14.8 8.46 14.8 10.74C14.8 13.01 12.95 14.86 10.67 14.86ZM40.9 40.9L33.78 40.9L33.78 29.76C33.78 27.11 33.74 23.69 30.08 23.69C26.38 23.69 25.81 26.58 25.81 29.57L25.81 40.9L18.71 40.9L18.71 17.99L25.53 17.99L25.53 21.12L25.63 21.12C26.57 19.32 28.9 17.41 32.36 17.41C39.57 17.41 40.9 22.16 40.9 28.33L40.9 40.9Z" fill="#FFFFFF" fill-opacity="1.000000" fill-rule="nonzero"/>
	</g>
</svg>
