<svg width="125.628906" height="83.500000" viewBox="0 0 125.629 83.5" fill="none" xmlns="http://www.w3.org/2000/svg" xmlns:xlink="http://www.w3.org/1999/xlink">
	<desc>
			Created with Pixso.
	</desc>
	<defs/>
	<path id="Vector" d="M96.79 62.79C81.83 62.79 69.7 58.35 69.7 52.87C69.7 47.39 81.83 42.95 96.79 42.95C111.75 42.95 123.87 47.39 123.87 52.87C123.87 58.35 111.75 62.79 96.79 62.79Z" stroke="#F2DEFF" stroke-opacity="1.000000" stroke-width="3.500000"/>
	<path id="Vector" d="M69.7 61.62C69.7 67.12 81.83 71.55 96.78 71.55C111.73 71.55 123.87 67.12 123.87 61.62" stroke="#F2DEFF" stroke-opacity="1.000000" stroke-width="3.500000"/>
	<path id="Vector" d="M69.7 52.87L69.7 61.62" stroke="#F2DEFF" stroke-opacity="1.000000" stroke-width="3.500000"/>
	<path id="Vector" d="M123.87 52.87L123.87 61.63" stroke="#F2DEFF" stroke-opacity="1.000000" stroke-width="3.500000"/>
	<path id="Vector" d="M13.01 55.49C13.01 55.49 13 55.51 13 55.49" stroke="#F2DEFF" stroke-opacity="1.000000" stroke-width="3.500000"/>
	<path id="Vector" d="M46.36 55.01L46.35 55.01" stroke="#F2DEFF" stroke-opacity="1.000000" stroke-width="3.500000"/>
	<path id="Vector" d="M54.98 58.78C56.68 60.08 57.62 61.54 57.62 63.07C57.62 68.54 45.49 72.99 30.54 72.99C15.59 72.99 3.45 68.54 3.45 63.07C3.45 62.17 3.78 61.32 4.38 60.5" stroke="#F2DEFF" stroke-opacity="1.000000" stroke-width="3.500000"/>
	<path id="Vector" d="M3.45 71.82C3.45 77.31 15.58 81.75 30.53 81.75C45.48 81.75 57.62 77.31 57.62 71.82" stroke="#F2DEFF" stroke-opacity="1.000000" stroke-width="3.500000"/>
	<path id="Vector" d="M3.45 63.07L3.45 71.82" stroke="#F2DEFF" stroke-opacity="1.000000" stroke-width="3.500000"/>
	<path id="Vector" d="M57.62 63.07L57.62 71.83" stroke="#F2DEFF" stroke-opacity="1.000000" stroke-width="3.500000"/>
	<path id="Vector" d="M8.5 40.9C4.3 42.65 1.75 44.93 1.75 47.44C1.75 52.92 13.87 57.37 28.83 57.37C41.17 57.37 51.58 54.34 54.84 50.2L54.86 50.19" stroke="#F2DEFF" stroke-opacity="1.000000" stroke-width="3.500000"/>
	<path id="Vector" d="M1.75 56.19C1.75 61.68 13.88 66.12 28.83 66.12C43.78 66.12 55.91 61.68 55.91 56.19" stroke="#F2DEFF" stroke-opacity="1.000000" stroke-width="3.500000"/>
	<path id="Vector" d="M1.75 47.44L1.75 56.19" stroke="#F2DEFF" stroke-opacity="1.000000" stroke-width="3.500000"/>
	<path id="Vector" d="M55.91 56.2L55.91 49.77" stroke="#F2DEFF" stroke-opacity="1.000000" stroke-width="3.500000"/>
	<path id="Vector" d="M35.58 44.39C20.62 44.39 8.5 39.96 8.5 34.48C8.5 34.4 8.5 34.33 8.51 34.25C13.32 37.02 21.76 38.85 31.36 38.85C46.11 38.85 58.11 34.54 58.43 29.15C61.11 30.67 62.67 32.51 62.67 34.48C62.67 39.96 50.54 44.39 35.58 44.39Z" stroke="#F2DEFF" stroke-opacity="1.000000" stroke-width="3.500000"/>
	<path id="Vector" d="M8.5 43.22C8.5 48.71 20.63 53.15 35.58 53.15C50.53 53.15 62.67 48.71 62.67 43.22" stroke="#F2DEFF" stroke-opacity="1.000000" stroke-width="3.500000"/>
	<path id="Vector" d="M8.5 34.47L8.5 43.22" stroke="#F2DEFF" stroke-opacity="1.000000" stroke-width="3.500000"/>
	<path id="Vector" d="M62.67 34.47L62.67 43.23" stroke="#F2DEFF" stroke-opacity="1.000000" stroke-width="3.500000"/>
	<path id="Vector" d="M8.5 34.25C5.82 32.73 4.27 30.89 4.27 28.92" stroke="#F2DEFF" stroke-opacity="1.000000" stroke-width="3.500000"/>
	<path id="Vector" d="M58.44 28.92C58.44 29 58.44 29.07 58.43 29.15" stroke="#F2DEFF" stroke-opacity="1.000000" stroke-width="3.500000"/>
	<path id="Vector" d="M4.27 20.17L4.27 28.93" stroke="#F2DEFF" stroke-opacity="1.000000" stroke-width="3.500000"/>
	<path id="Vector" d="M58.43 28.93L58.43 20.4L58.43 20.19L58.43 20.17" stroke="#F2DEFF" stroke-opacity="1.000000" stroke-width="3.500000"/>
	<path id="Vector" d="M58.43 11.89C58.34 13.38 57.37 14.78 55.66 16.04C54.67 16.77 53.45 17.46 51.99 18.08C47.04 20.23 39.64 21.58 31.37 21.58C25.19 21.58 19.5 20.82 14.95 19.54C8.45 17.73 4.28 14.87 4.28 11.66C4.28 6.2 16.38 1.75 31.37 1.75C46.35 1.75 58.45 6.2 58.45 11.66L58.45 11.66C58.45 11.72 58.45 11.82 58.43 11.89Z" stroke="#F2DEFF" stroke-opacity="1.000000" stroke-width="3.500000"/>
	<path id="Vector" d="M4.28 20.41C4.28 20.62 4.3 20.82 4.34 21.01C4.39 21.42 4.53 21.81 4.73 22.22C4.82 22.38 4.91 22.56 5.01 22.71C5.01 22.74 5.03 22.75 5.05 22.77C5.17 22.95 5.3 23.12 5.46 23.32C5.6 23.5 5.76 23.67 5.95 23.85C6.11 24.03 6.3 24.21 6.52 24.37C6.73 24.57 6.95 24.74 7.18 24.88C7.41 25.06 7.66 25.24 7.9 25.38C8.1 25.52 8.3 25.63 8.51 25.75C8.57 25.79 8.65 25.82 8.72 25.86C8.98 26.02 9.29 26.18 9.58 26.32C10.12 26.59 10.68 26.86 11.29 27.09C11.54 27.2 11.8 27.3 12.07 27.39C12.6 27.59 13.16 27.79 13.75 27.96C14.13 28.08 14.53 28.21 14.94 28.32C15.29 28.42 15.65 28.51 16.02 28.6C16.4 28.71 16.77 28.8 17.16 28.86C17.96 29.06 18.78 29.22 19.63 29.36C20.15 29.45 20.66 29.54 21.18 29.61C21.48 29.66 21.78 29.7 22.08 29.73C22.49 29.8 22.9 29.85 23.33 29.89C23.75 29.95 24.19 30 24.66 30.04C25.37 30.11 26.09 30.16 26.84 30.2C27.6 30.25 28.38 30.29 29.18 30.31C29.54 30.33 29.91 30.33 30.27 30.33C30.64 30.35 31 30.35 31.37 30.35C32.29 30.35 33.2 30.33 34.1 30.29C35.65 30.24 37.15 30.13 38.61 29.99C39.25 29.92 39.87 29.85 40.49 29.78C40.92 29.71 41.35 29.66 41.77 29.58C42.97 29.41 44.13 29.19 45.23 28.95C45.72 28.84 46.22 28.74 46.68 28.61C47.26 28.46 47.83 28.3 48.37 28.15L48.39 28.15C48.96 27.98 49.51 27.81 50.02 27.61C50.38 27.5 50.72 27.38 51.03 27.24C51.39 27.12 51.73 26.97 52.05 26.83C52.79 26.53 53.46 26.19 54.08 25.82C54.32 25.71 54.53 25.59 54.72 25.45C54.92 25.34 55.12 25.22 55.29 25.07C55.47 24.97 55.65 24.84 55.81 24.7C55.97 24.58 56.13 24.45 56.29 24.31C56.45 24.19 56.61 24.04 56.73 23.9C56.93 23.73 57.08 23.55 57.23 23.37C57.33 23.24 57.43 23.12 57.51 22.99C57.6 22.88 57.69 22.78 57.74 22.67C57.85 22.53 57.92 22.37 57.99 22.23C58.1 22.04 58.17 21.84 58.24 21.65C58.35 21.33 58.42 20.99 58.44 20.65C58.46 20.59 58.46 20.51 58.46 20.42" stroke="#F2DEFF" stroke-opacity="1.000000" stroke-width="3.500000"/>
	<path id="Vector" d="M4.28 20.41L4.28 11.66" stroke="#F2DEFF" stroke-opacity="1.000000" stroke-width="3.500000"/>
	<path id="Vector" d="M58.43 20.42L58.43 20.41L58.43 20.16L58.43 11.89L58.43 11.66" stroke="#F2DEFF" stroke-opacity="1.000000" stroke-width="3.500000"/>
</svg>
