<svg width="97.433594" height="81.750000" viewBox="0 0 97.4336 81.75" fill="none" xmlns="http://www.w3.org/2000/svg" xmlns:xlink="http://www.w3.org/1999/xlink">
	<desc>
			Created with Pixso.
	</desc>
	<defs/>
	<path id="Vector" d="M18.24 45.56C13.6 45.56 9.84 49.32 9.84 53.95C9.84 58.58 13.6 62.34 18.24 62.34C22.87 62.34 26.63 58.58 26.63 53.95C26.63 49.32 22.87 45.56 18.24 45.56Z" stroke="#F2DEFF" stroke-opacity="1.000000" stroke-width="3.500000"/>
	<path id="Vector" d="M34.14 80L2.33 80C1.95 78.61 1.75 77.16 1.75 75.65C1.75 69.76 4.83 64.59 9.49 61.67C11.63 64.09 14.75 65.62 18.24 65.62C21.72 65.62 24.85 64.09 26.98 61.67C31.63 64.59 34.73 69.75 34.73 75.65C34.73 77.16 34.53 78.61 34.14 80Z" stroke="#F2DEFF" stroke-opacity="1.000000" stroke-width="3.500000"/>
	<path id="Vector" d="M55.63 17.8C52.35 21.07 47.04 21.07 43.76 17.8C40.48 14.52 40.48 9.21 43.76 5.93C47.04 2.65 52.35 2.65 55.63 5.93C58.9 9.21 58.9 14.52 55.63 17.8Z" stroke="#F2DEFF" stroke-opacity="1.000000" stroke-width="3.500000"/>
	<path id="Vector" d="M65.6 37.91L33.78 37.91C33.4 36.52 33.2 35.07 33.2 33.56C33.2 27.67 36.29 22.5 40.94 19.58C43.08 22 46.21 23.53 49.69 23.53C53.17 23.53 56.31 22 58.44 19.58C63.09 22.5 66.18 27.66 66.18 33.56C66.18 35.07 65.98 36.52 65.6 37.91Z" stroke="#F2DEFF" stroke-opacity="1.000000" stroke-width="3.500000"/>
	<path id="Vector" d="M87.47 54.96C86.9 59.56 82.72 62.83 78.12 62.27C73.52 61.7 70.25 57.52 70.81 52.92C71.37 48.32 75.56 45.05 80.16 45.61C84.76 46.17 88.03 50.36 87.47 54.96Z" stroke="#F2DEFF" stroke-opacity="1.000000" stroke-width="3.500000"/>
	<path id="Vector" d="M95.09 80L63.28 80C62.9 78.61 62.7 77.16 62.7 75.65C62.7 69.76 65.78 64.59 70.44 61.67C72.58 64.09 75.7 65.62 79.19 65.62C82.67 65.62 85.8 64.09 87.93 61.67C92.58 64.59 95.68 69.75 95.68 75.65C95.68 77.16 95.48 78.61 95.09 80Z" stroke="#F2DEFF" stroke-opacity="1.000000" stroke-width="3.500000"/>
	<path id="Vector" d="M49.69 42.62L49.69 55.55" stroke="#F2DEFF" stroke-opacity="1.000000" stroke-width="3.500000"/>
	<path id="Vector" d="M38.49 62.01L49.69 55.55" stroke="#F2DEFF" stroke-opacity="1.000000" stroke-width="3.500000"/>
	<path id="Vector" d="M60.88 62.01L49.69 55.55" stroke="#F2DEFF" stroke-opacity="1.000000" stroke-width="3.500000"/>
</svg>
