<svg width="102.095703" height="83.515625" viewBox="0 0 102.096 83.5156" fill="none" xmlns="http://www.w3.org/2000/svg" xmlns:xlink="http://www.w3.org/1999/xlink">
	<desc>
			Created with Pixso.
	</desc>
	<defs/>
	<path id="Vector" d="M59.44 19.91C58.77 25.65 60.54 31.11 63.93 35.26L61.36 43.5L68.9 39.65C71.41 41.23 74.3 42.29 77.44 42.66C88.69 43.97 98.88 35.9 100.18 24.65C101.49 13.4 93.43 3.21 82.18 1.9L82.18 1.9C70.93 0.59 60.75 8.65 59.44 19.91Z" stroke="#F2DEFF" stroke-opacity="1.000000" stroke-width="3.500000"/>
	<path id="Vector" d="M34.82 27.94C35.36 32.58 33.92 36.99 31.18 40.35L33.26 47.01L27.16 43.9C25.14 45.17 22.8 46.03 20.26 46.33C11.16 47.38 2.93 40.87 1.87 31.77C0.81 22.67 7.33 14.44 16.43 13.38C25.53 12.32 33.76 18.84 34.82 27.94Z" stroke="#F2DEFF" stroke-opacity="1.000000" stroke-width="3.500000"/>
	<path id="Vector" d="M31.06 67.22C27.25 67.54 23.92 64.71 23.61 60.91C23.29 57.11 26.12 53.77 29.92 53.46C33.72 53.14 37.05 55.97 37.37 59.77C37.68 63.57 34.86 66.91 31.06 67.22Z" stroke="#F2DEFF" stroke-opacity="1.000000" stroke-width="3.500000"/>
	<path id="Vector" d="M43.57 81.76L17.4 81.76C17.09 80.62 16.92 79.43 16.92 78.19C16.92 73.34 19.46 69.09 23.29 66.69C25.04 68.68 27.62 69.94 30.49 69.94C33.36 69.94 35.93 68.68 37.69 66.69C41.52 69.08 44.06 73.33 44.06 78.19L44.05 78.19C44.05 79.43 43.88 80.62 43.57 81.76Z" stroke="#F2DEFF" stroke-opacity="1.000000" stroke-width="3.500000"/>
	<path id="Vector" d="M66 67.14C62.24 67.76 58.69 65.2 58.08 61.44C57.47 57.67 60.02 54.12 63.79 53.51C67.55 52.9 71.1 55.46 71.71 59.22C72.32 62.99 69.76 66.53 66 67.14Z" stroke="#F2DEFF" stroke-opacity="1.000000" stroke-width="3.500000"/>
	<path id="Vector" d="M77.98 81.76L51.81 81.76C51.5 80.62 51.33 79.43 51.33 78.19C51.33 73.34 53.87 69.09 57.7 66.69C59.45 68.68 62.03 69.94 64.9 69.94C67.77 69.94 70.34 68.68 72.1 66.69C75.93 69.08 78.47 73.33 78.47 78.19L78.46 78.19C78.46 79.43 78.29 80.62 77.98 81.76Z" stroke="#F2DEFF" stroke-opacity="1.000000" stroke-width="3.500000"/>
	<path id="Vector" d="M72.77 24.96C71.49 24.96 70.44 23.92 70.44 22.63C70.44 21.34 71.49 20.3 72.77 20.3C74.06 20.3 75.1 21.34 75.1 22.63C75.1 23.92 74.06 24.96 72.77 24.96Z" stroke="#F2DEFF" stroke-opacity="1.000000" stroke-width="3.500000"/>
	<path id="Vector" d="M80.52 24.96C79.23 24.96 78.19 23.92 78.19 22.63C78.19 21.34 79.23 20.3 80.52 20.3C81.81 20.3 82.85 21.34 82.85 22.63C82.85 23.92 81.81 24.96 80.52 24.96Z" stroke="#F2DEFF" stroke-opacity="1.000000" stroke-width="3.500000"/>
	<path id="Vector" d="M88.49 20.3C89.78 20.3 90.82 21.34 90.82 22.63C90.82 23.92 89.78 24.96 88.49 24.96C87.2 24.96 86.16 23.92 86.16 22.63C86.16 21.34 87.2 20.3 88.49 20.3Z" stroke="#F2DEFF" stroke-opacity="1.000000" stroke-width="3.500000"/>
</svg>
