<svg width="70" height="71" viewBox="0 0 70 71" fill="none" xmlns="http://www.w3.org/2000/svg">
<rect width="70" height="70" transform="translate(0 0.0771484)" fill="white" fill-opacity="0.01"/>
<path fill-rule="evenodd" clip-rule="evenodd" d="M26.2646 32.1459L39.6609 18.7496C39.928 18.4771 40.2465 18.2601 40.598 18.1114C40.9494 17.9627 41.3269 17.8851 41.7086 17.8832C42.0902 17.8813 42.4684 17.955 42.8214 18.1002C43.1744 18.2454 43.4951 18.459 43.7649 18.7289C44.0348 18.9988 44.2485 19.3195 44.3936 19.6724C44.5388 20.0254 44.6125 20.4036 44.6106 20.7853C44.6087 21.1669 44.5311 21.5444 44.3824 21.8959C44.2337 22.2473 44.0168 22.5658 43.7442 22.833L32.3692 34.208L43.7442 45.583C44.2767 46.1263 44.5732 46.8578 44.5694 47.6186C44.5655 48.3793 44.2616 49.1078 43.7237 49.6458C43.1857 50.1837 42.4572 50.4876 41.6965 50.4915C40.9357 50.4953 40.2042 50.1988 39.6609 49.6663L26.2646 36.273C25.7178 35.726 25.4106 34.9843 25.4106 34.2109C25.4106 33.4375 25.7178 32.6958 26.2646 32.1488V32.1459Z" fill="#F5F5F5"/>
</svg>
