<svg width="90" height="81" viewBox="0 0 90 81" fill="none" xmlns="http://www.w3.org/2000/svg">
<path d="M87.2359 56.0185C88.2896 56.0185 89.1949 55.1329 89.1949 54.0998V44.3582C89.1949 43.325 88.2896 42.4394 87.2359 42.4394H81.5371V39.3398H83.4961C84.5498 39.3398 85.4402 38.4542 85.4402 37.421V30.6315C85.4402 29.5983 84.5349 28.7127 83.4961 28.7127H81.5371V23.1039C81.5371 22.0708 80.6318 21.1851 79.5782 21.1851H60.9679C59.9143 21.1851 59.009 22.0708 59.009 23.1039V29.8935C59.009 30.9267 59.9143 31.8123 60.9679 31.8123H62.9121V35.5023H60.9679C59.9143 35.5023 59.009 36.3878 59.009 37.421V42.4394H55.2543V30.4839C55.2543 29.4507 54.349 28.5651 53.3102 28.5651C52.2713 28.5651 51.3512 29.4507 51.3512 30.4839V42.4394H49.4071V35.945C49.4071 34.9118 48.5018 34.0263 47.4629 34.0263C46.4241 34.0263 45.9641 35.0595 45.9641 36.0926V42.587H30.6485L29.4464 37.5686H42.2094C43.2631 37.5686 44.1535 36.6831 44.1535 35.6499V9.9676C44.1535 8.9344 43.2482 8.04883 42.2094 8.04883H4.67731C3.62362 8.04883 2.73319 8.9344 2.73319 9.9676V35.7974C2.73319 36.8306 3.63846 37.7162 4.67731 37.7162H17.4403L16.2382 42.7346H2.73319C1.6795 42.7346 0.789062 43.6202 0.789062 44.6534V54.3949C0.789062 55.4281 1.69434 56.3137 2.73319 56.3137H8.432V76.6824H4.67731C3.62362 76.6824 2.73319 77.568 2.73319 78.6012C2.73319 79.6344 3.63846 80.52 4.67731 80.52H87.2508C88.3044 80.52 89.2097 79.6344 89.2097 78.6012C89.2097 77.568 88.3044 76.6824 87.2508 76.6824H83.4961V56.0185H87.2508H87.2359ZM6.62143 30.6315H30.9453C31.999 30.6315 32.8894 29.7459 32.8894 28.7127C32.8894 27.6795 31.9842 26.7939 30.9453 26.7939H6.62143V11.7388H38.143L32.741 17.0524C31.9841 17.7904 31.9841 18.9711 32.741 19.7091C33.4979 20.4471 34.6852 20.4471 35.442 19.7091L40.5472 14.6908V33.8787H6.62143V30.6315ZM62.9121 25.1703H77.9308V28.2699H62.9121V25.1703ZM66.6668 32.5503H81.6855V35.6499H66.6668V32.5503ZM62.9121 39.4874H77.9308V42.587H62.9121V39.4874ZM21.1801 38.0114H25.6768L26.7305 42.587H20.1264L21.1801 38.0114ZM4.66245 46.277H85.4254V52.3285H4.66245V46.277ZM45.9492 56.0185V69.45C45.9492 70.4832 46.8545 71.3688 47.8933 71.3688H72.3656V76.3872H19.8148V56.0185H45.9343H45.9492ZM72.2172 67.6788H49.7039V63.3985H72.2172V67.6788ZM72.2172 59.7085H49.7039V56.0185H72.2172V59.7085ZM12.1718 76.3872V56.0185H15.9265V76.3872H12.1718ZM79.7266 76.3872H75.9719V56.0185H79.7266V76.3872Z" fill="#F2DEFF"/>
<path d="M28.54 14.0974L24.0432 18.5254C23.2864 19.2634 23.2864 20.4442 24.0432 21.1822C24.8001 21.9202 25.9874 21.9202 26.7443 21.1822L31.241 16.7542C31.9978 16.0162 31.9978 14.8354 31.241 14.0974C30.4841 13.3594 29.2968 13.3594 28.54 14.0974Z" fill="#F2DEFF"/>
<path d="M56.3084 15.4285C58.861 15.4285 60.9684 13.3621 60.9684 10.8529C60.9684 8.34374 58.861 6.27734 56.3084 6.27734C53.7558 6.27734 51.6484 8.34374 51.6484 10.8529C51.6484 13.3621 53.7558 15.4285 56.3084 15.4285ZM56.3084 9.96732C56.7536 9.96732 57.2137 10.4101 57.2137 10.8529C57.2137 11.2957 56.7685 11.7385 56.3084 11.7385C55.8484 11.7385 55.4031 11.2957 55.4031 10.8529C55.4031 10.4101 55.7 9.96732 56.3084 9.96732Z" fill="#F2DEFF"/>
<path d="M79.7262 11.7371C82.8724 11.7371 85.425 9.2279 85.425 6.12832C85.425 3.02874 82.8724 0.519531 79.7262 0.519531C76.5799 0.519531 74.0273 3.02874 74.0273 6.12832C74.0273 9.2279 76.5799 11.7371 79.7262 11.7371ZM79.7262 4.35712C80.7798 4.35712 81.6851 5.24269 81.6851 6.27588C81.6851 7.30908 80.7798 8.1947 79.7262 8.1947C78.6725 8.1947 77.7672 7.30908 77.7672 6.27588C77.9156 5.24269 78.6725 4.35712 79.7262 4.35712Z" fill="#F2DEFF"/>
</svg>
