<svg width="85" height="81" viewBox="0 0 85 81" fill="none" xmlns="http://www.w3.org/2000/svg">
<path d="M69.7778 50.3603L56.8929 45.5461L53.7495 41.8647C53.0274 41.0151 51.5974 41.0151 50.8894 42.0062L42.7195 53.4753L34.1249 42.0062C33.4028 41.0151 31.9726 41.0151 31.2647 42.0062L28.4045 45.6876L24.539 47.2452L15.378 50.5019C11.7957 51.7762 9.50195 55.0329 9.50195 58.8559V78.6791C9.50195 79.6702 10.3657 80.5198 11.371 80.5198H74.1105C75.1158 80.5198 75.9654 79.6702 75.9654 78.6791V58.8559C75.6822 54.8913 73.3884 51.6346 69.8061 50.3603H69.7778ZM52.4469 45.9708L53.5938 47.3868L46.8682 60.555L44.8575 56.732L52.4469 45.9708ZM40.5673 56.732L38.2735 60.6966L31.6895 47.3868L32.6948 46.1125L40.5673 56.732ZM72.0716 76.6967H64.907V62.5373C64.907 61.5462 64.0433 60.6966 63.0522 60.6966C62.061 60.6966 61.1831 61.5462 61.1831 62.5373V76.6967H23.8028V62.5373C23.8028 61.5462 22.9391 60.6966 21.9338 60.6966C20.9284 60.6966 20.0789 61.5462 20.0789 62.5373V76.6967H12.9143V58.7143C12.9143 56.4488 14.3444 54.4665 16.4966 53.7585C26.2382 50.3602 25.8134 50.5019 25.8134 50.5019L28.6736 49.3691L36.4045 65.086C36.8293 65.9356 37.8346 66.3604 38.6983 65.9356L38.8399 65.794L38.9815 65.6524L39.1231 65.5108C39.4063 65.2276 39.2647 65.5108 42.4222 60.1302L45.1407 65.086C45.8629 66.3604 47.7177 66.3604 48.2982 65.086L56.3265 49.2275L68.2203 53.6169C70.3725 54.3249 71.661 56.3072 71.661 58.5727V76.6967H72.0858H72.0716Z" fill="#F2DEFF"/>
<path d="M25.0907 17.6514C25.0907 22.7488 26.8039 29.1206 29.5367 33.9347C32.9773 40.3065 37.8481 43.7048 43.0021 43.7048C48.1561 43.7048 53.0268 40.1649 56.4675 33.9347C59.1861 29.1206 60.9135 22.6072 60.9135 17.6514C60.9135 17.0851 60.7719 16.6603 60.6303 15.9523L60.7719 11.8461C60.7719 11.2797 60.6303 10.8549 60.2055 10.5717L54.0463 5.04962C53.9047 4.76643 53.9047 4.62484 53.6215 4.34165C52.6162 2.64252 50.6197 0.660156 48.0286 0.660156H24.3968C23.3915 0.660156 22.6836 1.5097 22.6836 2.50086V8.73103C22.6836 10.9965 23.6889 13.2621 25.4022 14.9612C25.2606 15.8108 25.119 16.6603 25.119 17.6514H25.0907ZM53.31 32.2356C51.2994 35.917 47.8729 40.1649 43.0021 40.1649C38.1313 40.1649 34.6906 35.7755 32.6942 32.2356C29.9756 27.2798 28.5455 20.9081 28.8287 16.9435C29.5367 17.0851 30.2588 17.2267 30.8393 17.2267H48.595C50.3082 17.2267 51.8941 16.5187 52.8994 15.386L57.3454 17.5099V17.6514C57.3454 22.1824 55.7737 27.8462 53.3383 32.2356H53.31ZM26.2376 4.20001H47.8587C48.864 4.20001 49.8693 5.1912 50.4357 6.18236C50.4357 6.32395 50.5773 6.32397 50.5773 6.46556V6.60712C50.7189 6.89031 50.8605 7.1735 51.002 7.31509L56.8781 12.6956V13.5453C52.7295 11.5629 52.8711 11.5629 52.5879 11.5629C51.7242 11.4213 50.8746 11.7045 50.5773 12.4124C50.2941 13.1204 49.7136 13.5452 49.1472 13.6868C48.5667 13.8284 49.2888 13.6868 30.6694 13.8284C28.234 13.8284 26.2234 11.2797 26.2234 8.73103V4.20001H26.2376Z" fill="#F2DEFF"/>
<path d="M69.7785 21.3339C70.5006 22.0418 71.6475 22.0418 72.3555 21.3339L78.3731 15.3869L80.2421 17.2276C80.6669 17.6524 81.5306 17.9356 82.1112 17.6524C82.8333 17.3692 83.2581 16.8028 83.2581 16.0949L84.5465 2.5018C84.6881 1.36904 83.6828 0.519531 82.5359 0.519531L68.7873 1.79383C68.0652 1.79383 67.4989 2.36027 67.2157 2.92665C66.9325 3.63462 67.0741 4.34257 67.6404 4.76735L69.5095 6.60806L63.4918 12.555C62.7697 13.263 62.7697 14.3957 63.4918 15.1037L69.7926 21.3339H69.7785ZM80.8085 4.34259L80.1005 12.1303L73.0776 5.19212L80.8085 4.34259ZM72.2139 9.29838L75.7962 12.8382L71.067 17.5108L67.4847 13.971L72.2139 9.29838Z" fill="#F2DEFF"/>
<path d="M69.6384 38.6093L67.7693 40.5916C67.3446 41.0164 67.0472 41.866 67.3446 42.4323C67.6278 43.1403 68.2083 43.5651 68.9162 43.5651L82.6649 44.8395C83.8118 44.9811 84.6755 43.9899 84.6755 42.8571L83.387 29.2641C83.387 28.5561 82.8206 27.9898 82.2401 27.7066C81.5179 27.4234 80.81 27.7066 80.3852 28.1314L78.5162 29.9721L72.4985 24.0251C71.7764 23.3171 70.6437 23.3171 69.9216 24.0251L63.7623 30.1136C63.0402 30.8216 63.0402 31.9544 63.7623 32.6624L69.6384 38.6093ZM80.81 41.158L72.9374 40.4501C74.9481 38.4678 77.9498 35.4943 79.9605 33.5119L80.8241 41.158H80.81ZM71.0685 27.8482L75.7976 32.5208L72.2154 36.0606L67.4862 31.388L71.0685 27.8482Z" fill="#F2DEFF"/>
<path d="M1.74255 16.0957C1.74255 16.8037 2.30892 17.3701 2.88945 17.6532C3.61157 17.9364 4.31954 17.7949 4.75847 17.2285L6.61333 15.3878L12.631 21.3347C13.3531 22.0427 14.5 22.0427 15.208 21.3347L21.3673 15.2461C22.0894 14.5382 22.0894 13.4054 21.3673 12.6975L15.3496 6.75049L17.2186 4.90978C17.6434 4.485 17.9407 3.63546 17.6434 3.06908C17.3602 2.36111 16.7797 1.93634 16.0717 1.93634L2.32309 0.661964C1.17619 0.52037 0.3125 1.51156 0.3125 2.64431L1.74255 16.0957ZM14.0611 17.5117L9.33192 12.8391L12.9142 9.29925L17.6434 13.9718L14.0611 17.5117ZM12.0646 5.05143L5.04168 11.9895L4.31954 4.20181L12.0505 5.05143H12.0646Z" fill="#F2DEFF"/>
<path d="M2.46539 44.8384L16.214 43.5641C16.9361 43.5641 17.5025 42.9977 17.7857 42.4313C18.0689 41.7233 17.7857 41.0154 17.3609 40.5906L15.506 38.7499L21.5237 32.8029C22.2458 32.095 22.2458 30.9622 21.5237 30.2543L15.3645 24.1657C14.6424 23.4578 13.5096 23.4578 12.7875 24.1657L6.76981 30.1126L4.75918 28.2719C4.3344 27.8471 3.47068 27.564 2.89015 27.8472C2.16803 28.1303 1.74326 28.6967 1.74326 29.4047L0.454763 42.8561C0.313171 43.9888 1.31849 44.98 2.46539 44.8384ZM14.0618 27.8472L17.6441 31.387L12.9149 36.0596L9.33263 32.5197L14.0618 27.8472ZM5.04238 33.3694C5.9061 34.2189 11.3432 39.5994 12.0653 40.3074L4.19282 41.0154L5.05651 33.3694H5.04238Z" fill="#F2DEFF"/>
<path d="M81.1057 76.6992H77.5234V80.2391H81.1057V76.6992Z" fill="#F2DEFF"/>
<path d="M84.6878 73.1553H81.1055V76.6951H84.6878V73.1553Z" fill="#F2DEFF"/>
<path d="M81.1057 69.6201H77.5234V73.16H81.1057V69.6201Z" fill="#F2DEFF"/>
<path d="M84.6878 66.0771H81.1055V69.617H84.6878V66.0771Z" fill="#F2DEFF"/>
<path d="M81.1057 62.5371H77.5234V66.077H81.1057V62.5371Z" fill="#F2DEFF"/>
<path d="M84.6878 58.998H81.1055V62.5379H84.6878V58.998Z" fill="#F2DEFF"/>
<path d="M4.03838 76.6992H0.456055V80.2391H4.03838V76.6992Z" fill="#F2DEFF"/>
<path d="M7.61939 73.1553H4.03711V76.6951H7.61939V73.1553Z" fill="#F2DEFF"/>
<path d="M4.03838 69.6201H0.456055V73.16H4.03838V69.6201Z" fill="#F2DEFF"/>
<path d="M7.61939 66.0771H4.03711V69.617H7.61939V66.0771Z" fill="#F2DEFF"/>
<path d="M4.03838 62.5371H0.456055V66.077H4.03838V62.5371Z" fill="#F2DEFF"/>
<path d="M7.61939 58.998H4.03711V62.5379H7.61939V58.998Z" fill="#F2DEFF"/>
</svg>
