<svg width="79" height="81" viewBox="0 0 79 81" fill="none" xmlns="http://www.w3.org/2000/svg">
<path d="M72.9209 7.5906H44.8724V5.78817C44.8724 2.87655 42.4876 0.519531 39.5483 0.519531C36.6089 0.519531 34.2242 2.87655 34.2242 5.78817V7.5906H6.17565C3.23631 7.5906 0.851562 9.94762 0.851562 12.8592C0.851562 15.7708 3.23631 18.1278 6.17565 18.1278V52.374C6.17565 57.3653 10.238 61.5247 15.4373 61.5247H36.0544V76.2215C36.0544 78.5785 38.0231 80.5195 40.4079 80.5195C42.7926 80.5195 44.7615 78.5785 44.7615 76.2215V61.2474H63.5621C68.6089 61.2474 72.8238 57.2266 72.8238 52.0967V17.9892C75.7632 17.9892 78.1479 15.6322 78.1479 12.7206C78.1479 9.80896 75.7632 7.5906 72.9625 7.5906H72.9209ZM41.3646 75.9442C41.3646 76.3601 40.9486 76.776 40.5188 76.776C40.089 76.776 39.5344 76.4987 39.5344 75.9442V61.2474H41.3646V75.9442ZM69.4131 21.4554H41.3646C40.3802 21.4554 39.5344 22.2873 39.5344 23.2578C39.5344 24.2284 40.3802 25.0603 41.3646 25.0603H69.4131V52.374C69.4131 55.4242 66.8897 58.0585 63.6592 58.0585H15.4096C12.3178 58.0585 9.65573 55.5629 9.65573 52.374V17.9892H69.2606V21.4554H69.3992H69.4131ZM72.9209 14.523H6.30043C5.31602 14.523 4.48414 13.6911 4.48414 12.7206C4.48414 11.75 5.32989 10.9181 6.30043 10.9181H36.1791C37.1635 10.9181 38.0093 10.0863 38.0093 9.11572V5.78817C38.0093 4.81763 38.855 3.98574 39.8256 3.98574C40.7961 3.98574 41.6557 4.81763 41.6557 5.78817V9.25437C41.6557 10.2249 42.5015 11.0568 43.4859 11.0568H73.3645C74.3489 11.0568 75.1809 11.8887 75.1809 12.8592C74.6263 13.6911 73.7805 14.523 72.9347 14.523H72.9209Z" fill="#F2DEFF"/>
<path d="M36.0265 24.9203C37.0109 24.9203 37.8427 24.0884 37.8427 23.1179C37.8427 22.1473 36.997 21.3154 36.0265 21.3154C35.0559 21.3154 34.1963 22.1473 34.1963 23.1179C34.3349 24.0884 35.0421 24.9203 36.0265 24.9203Z" fill="#F2DEFF"/>
<path d="M58.8876 54.3145H64.2117C65.1961 54.3145 66.028 53.4826 66.028 52.5121V33.5173C66.028 32.5467 65.1822 31.7148 64.2117 31.7148H58.8876C57.9032 31.7148 57.0713 32.5467 57.0713 33.5173V52.6507C57.0713 53.4826 57.9171 54.3145 58.8876 54.3145ZM60.5652 35.3197H62.3954V50.987H60.5652V35.3197Z" fill="#F2DEFF"/>
<path d="M48.3653 54.3161H53.5507C54.5351 54.3161 55.3809 53.4842 55.3809 52.5136V36.985C55.3809 36.0145 54.5351 35.1826 53.5507 35.1826H48.2267C47.2422 35.1826 46.3965 36.0145 46.3965 36.985V52.6523C46.5351 53.4842 47.3809 54.3161 48.3653 54.3161ZM50.0568 38.7875H51.8869V50.9885H50.0568V38.7875Z" fill="#F2DEFF"/>
<path d="M36.0264 40.4528V52.6539C36.0264 53.6244 36.8721 54.4563 37.8427 54.4563H43.1667C44.1511 54.4563 44.9831 53.6244 44.9831 52.6539V40.4528C44.9831 39.4823 44.1373 38.6504 43.1667 38.6504H37.8427C36.8583 38.789 36.0264 39.4823 36.0264 40.4528ZM39.5342 42.2553H41.3643V50.9901H39.5342V42.2553Z" fill="#F2DEFF"/>
<path d="M25.5029 44.4714V52.6516C25.5029 53.6221 26.3487 54.454 27.3192 54.454H32.5047C33.4891 54.454 34.3348 53.6221 34.3348 52.6516V44.4714C34.3348 43.5008 33.4891 42.6689 32.5047 42.6689H27.1806C26.3348 42.6689 25.5029 43.5008 25.5029 44.4714ZM29.0107 46.1351H30.8409V50.8492H29.0107V46.1351Z" fill="#F2DEFF"/>
<path d="M20.3164 38.7871H13.3008V42.2533H20.3164V38.7871Z" fill="#F2DEFF"/>
<path d="M27.331 35.3232H20.3154V38.7894H27.331V35.3232Z" fill="#F2DEFF"/>
<path d="M20.3164 31.8555H13.3008V35.3217H20.3164V31.8555Z" fill="#F2DEFF"/>
<path d="M27.331 28.3877H20.3154V31.8539H27.331V28.3877Z" fill="#F2DEFF"/>
<path d="M20.3164 24.9229H13.3008V28.3891H20.3164V24.9229Z" fill="#F2DEFF"/>
<path d="M27.331 21.4551H20.3154V24.9213H27.331V21.4551Z" fill="#F2DEFF"/>
</svg>
