<svg width="55" height="49" viewBox="0 0 55 49" fill="none" xmlns="http://www.w3.org/2000/svg">
<path fill-rule="evenodd" clip-rule="evenodd" d="M11.0878 0.702148H43.5878C49.5709 0.702148 54.4212 5.5524 54.4212 11.5355V33.2022C54.4212 39.1852 49.5709 44.0355 43.5878 44.0355H11.0878C5.10477 44.0355 0.254517 39.1852 0.254517 33.2022V11.5355C0.254517 5.5524 5.10477 0.702148 11.0878 0.702148ZM22.9977 17.3205C23.9491 16.7259 24.2382 15.4727 23.6437 14.5214C23.0491 13.5701 21.7959 13.2809 20.8446 13.8755L13.6859 18.3497C10.7158 20.206 10.7158 24.5316 13.6859 26.388L20.8446 30.8621C21.7959 31.4567 23.0491 31.1675 23.6437 30.2162C24.2382 29.2649 23.9491 28.0117 22.9977 27.4172L15.8391 22.943C15.4148 22.6778 15.4148 22.0598 15.8391 21.7947L22.9977 17.3205ZM31.032 14.5214C30.4375 15.4727 30.7266 16.7259 31.678 17.3205L38.8366 21.7947C39.2609 22.0598 39.2609 22.6778 38.8366 22.943L31.678 27.4172C30.7266 28.0117 30.4375 29.2649 31.032 30.2162C31.6266 31.1675 32.8798 31.4567 33.8311 30.8621L40.9897 26.388C43.9599 24.5316 43.9599 20.206 40.9897 18.3497L33.8311 13.8755C32.8798 13.2809 31.6266 13.5701 31.032 14.5214Z" fill="white"/>
<path d="M21.9212 44.7126C20.7994 44.7126 19.8899 45.622 19.8899 46.7438C19.8899 47.8656 20.7994 48.7751 21.9212 48.7751H32.7545C33.8763 48.7751 34.7858 47.8656 34.7858 46.7438C34.7858 45.622 33.8763 44.7126 32.7545 44.7126H21.9212Z" fill="white"/>
</svg>
