<svg width="66" height="66" viewBox="0 0 66 66" fill="none" xmlns="http://www.w3.org/2000/svg">
<path d="M47.8457 24.7207C50.2617 23.4852 56.448 19.9829 57.5055 16.0318C58.4603 12.4641 56.037 8.75708 51.9333 8.70381C51.8486 8.70271 51.7626 8.70215 51.6754 8.70215C50.0234 8.70215 48.5485 9.43022 47.6839 9.9685C47.2115 10.2626 46.5477 10.2626 46.0754 9.9685C45.2107 9.43022 43.7359 8.70215 42.0839 8.70215C41.9967 8.70215 41.9107 8.70271 41.826 8.70381C37.7223 8.75708 35.2989 12.4641 36.2538 16.0318C37.3113 19.9829 43.4976 23.4852 45.9136 24.7207C46.517 25.0293 47.2423 25.0293 47.8457 24.7207Z" fill="white"/>
<path d="M6.25464 24.9521V52.0355C6.25464 53.5313 7.24674 54.7438 8.47055 54.7438H16.2262C17.45 54.7438 18.4421 53.5313 18.4421 52.0355V48.2839C19.156 48.6768 20.0526 48.7428 20.8779 48.3255C21.8897 47.8139 23.1046 48.0315 24.0514 48.6553C31.7089 53.7 52.6453 54.6303 59.6173 40.5316C62.0339 35.6449 58.7747 36.4963 52.8947 38.0325C48.7604 39.1126 43.3305 40.5311 37.6667 40.5316C36.2808 40.5318 24.0253 38.4922 41.7824 33.5949L42.0867 33.5107C45.3386 32.6069 45.4037 29.552 42.0288 29.5104C40.4933 29.4915 38.7508 29.7119 37.0467 29.9275C34.7676 30.2158 32.5571 30.4955 31.002 30.1822C30.3155 30.044 29.7014 29.6958 29.0855 29.3467C28.6742 29.1135 28.2621 28.8799 27.8272 28.7081C25.4836 27.7822 23.3818 27.5295 21.5818 27.7196C20.2197 27.8634 19.178 28.5795 18.4421 29.6012V24.9521C18.4421 23.4564 17.45 22.2438 16.2262 22.2438H8.47055C7.24674 22.2438 6.25464 23.4564 6.25464 24.9521Z" fill="white"/>
</svg>
