<svg width="66" height="66" viewBox="0 0 66 66" fill="none" xmlns="http://www.w3.org/2000/svg">
<path d="M42.817 33.0778C42.817 38.313 38.573 42.557 33.3378 42.557C28.1026 42.557 23.8587 38.313 23.8587 33.0778C23.8587 27.8426 28.1026 23.5987 33.3378 23.5987C38.573 23.5987 42.817 27.8426 42.817 33.0778Z" fill="white"/>
<path fill-rule="evenodd" clip-rule="evenodd" d="M15.4681 18.376C13.9723 15.7852 14.8599 12.4725 17.4507 10.9767L22.1417 8.26835C24.7324 6.77258 28.0452 7.66023 29.541 10.251C31.2285 13.1738 35.4472 13.1739 37.1347 10.251C38.6305 7.66026 41.9433 6.7726 44.534 8.26837L49.225 10.9767C51.8158 12.4725 52.7034 15.7853 51.2077 18.376C49.5202 21.2988 51.6295 24.9524 55.0045 24.9524C57.9961 24.9524 60.4212 27.3775 60.4212 30.3691V35.7857C60.4212 38.7773 57.9961 41.2024 55.0045 41.2024C51.6295 41.2024 49.5201 44.8559 51.2076 47.7788C52.7034 50.3695 51.8157 53.6823 49.225 55.1781L44.534 57.8864C41.9433 59.3822 38.6305 58.4945 37.1347 55.9038C35.4472 52.9809 31.2285 52.9809 29.541 55.9038C28.0452 58.4945 24.7324 59.3822 22.1417 57.8864L17.4507 55.1781C14.86 53.6823 13.9723 50.3695 15.4681 47.7788C17.1556 44.8559 15.0462 41.2024 11.6712 41.2024C8.67964 41.2024 6.25452 38.7773 6.25452 35.7857V30.3691C6.25452 27.3775 8.67964 24.9524 11.6712 24.9524C15.0462 24.9524 17.1556 21.2988 15.4681 18.376ZM46.8795 33.0778C46.8795 40.5567 40.8167 46.6195 33.3378 46.6195C25.859 46.6195 19.7962 40.5567 19.7962 33.0778C19.7962 25.599 25.859 19.5362 33.3378 19.5362C40.8167 19.5362 46.8795 25.599 46.8795 33.0778Z" fill="white"/>
</svg>
