<svg width="101" height="86" viewBox="0 0 101 86" fill="none" xmlns="http://www.w3.org/2000/svg">
<path d="M8.16539 61.337L2.98655 58.0779L4.81977 53.3981L10.8592 54.8087C11.7198 53.6476 12.7434 52.6139 13.9044 51.7533L12.5448 45.7851L17.1533 43.7686L20.4277 49.034C21.1406 48.9271 21.8739 48.871 22.6174 48.871C23.3608 48.871 24.0483 48.922 24.746 49.0238L28.0051 43.8449L32.6849 45.6782L31.2743 51.7176C32.4353 52.5782 33.4691 53.6018 34.3297 54.7628L40.2979 53.4032L42.3144 58.0117L37.049 61.2861C37.1559 61.999 37.2119 62.7323 37.2119 63.4758C37.2119 64.2193 37.161 64.9067 37.0592 65.6044L42.238 68.8634L40.4048 73.5433L34.3653 72.1327C33.5047 73.2938 32.4812 74.3275 31.3202 75.1881L32.6798 81.1563L28.0713 83.1728L24.7969 77.9074C24.084 78.0143 23.3507 78.0703 22.6072 78.0703C21.8637 78.0703 21.1763 78.0194 20.4786 77.9176L17.2195 83.0964L12.5397 81.2632L13.9503 75.2237C12.7893 74.3631 11.7555 73.3396 10.8949 72.1785L4.92669 73.5382L2.91016 68.9296L8.17558 65.6553C8.06865 64.9424 8.01266 64.2091 8.01266 63.4656C8.01266 62.7221 8.06354 62.0347 8.16539 61.337Z" stroke="#F2DEFF" stroke-width="3.5" stroke-miterlimit="10"/>
<path d="M14.6367 63.4658C14.6367 59.0609 18.2064 55.4912 22.6112 55.4912C27.0161 55.4912 30.5858 59.0609 30.5858 63.4658C30.5858 67.8706 27.0161 71.4403 22.6112 71.4403C18.2064 71.4403 14.6367 67.8706 14.6367 63.4658Z" stroke="#F2DEFF" stroke-width="3.5" stroke-miterlimit="10"/>
<path d="M17.3486 16.0207L13.5599 13.6375L14.8992 10.2155L19.3142 11.2442C19.9405 10.3937 20.6942 9.64008 21.5395 9.00864L20.5465 4.64453L23.9126 3.17285L26.3059 7.02264C26.8253 6.94625 27.36 6.90551 27.9049 6.90551C28.4498 6.90551 28.9539 6.94625 29.4581 7.01754L31.8412 3.22887L35.2633 4.56814L34.2347 8.98317C35.0851 9.60953 35.8388 10.3632 36.4702 11.2085L40.8343 10.2155L42.306 13.5815L38.4562 15.9749C38.5326 16.4943 38.5733 17.029 38.5733 17.5739C38.5733 18.1188 38.5325 18.6229 38.4612 19.127L42.25 21.5102L40.9107 24.9323L36.4956 23.9036C35.8693 24.754 35.1156 25.5077 34.2703 26.1392L35.2633 30.5033L31.8973 31.9749L29.5039 28.1252C28.9845 28.2015 28.4498 28.2423 27.9049 28.2423C27.36 28.2423 26.8559 28.2015 26.3518 28.1302L23.9686 31.9189L20.5465 30.5796L21.5752 26.1646C20.7248 25.5383 19.9711 24.7846 19.3397 23.9393L14.9755 24.9323L13.5039 21.5663L17.3537 19.1729C17.2773 18.6535 17.2365 18.1188 17.2365 17.5739C17.2365 17.029 17.2773 16.5249 17.3486 16.0207Z" stroke="#F2DEFF" stroke-width="3.5" stroke-miterlimit="10"/>
<path d="M27.9115 21.5711C30.1192 21.5711 31.909 19.7814 31.909 17.5736C31.909 15.3659 30.1192 13.5762 27.9115 13.5762C25.7038 13.5762 23.9141 15.3659 23.9141 17.5736C23.9141 19.7814 25.7038 21.5711 27.9115 21.5711Z" stroke="#F2DEFF" stroke-width="3.5" stroke-miterlimit="10"/>
<path d="M51.9896 48.5151L43.9336 46.4985L44.3206 39.6901L52.7025 38.9568C53.3187 37.093 54.2047 35.3311 55.3352 33.7321L51.0628 26.608L56.15 22.0656L62.5968 27.4686C63.4727 27.0306 64.3894 26.6487 65.3467 26.333C66.2786 26.0274 67.2156 25.7932 68.1526 25.6302L70.164 17.5742L76.9724 17.9612L77.7108 26.3432C79.5746 26.9593 81.3366 27.8454 82.9356 28.9759L90.0597 24.7034L94.602 29.7907L89.1991 36.2375C89.637 37.1134 90.019 38.03 90.3347 38.9874C90.6402 39.9193 90.8745 40.8562 91.0374 41.7932L99.0934 43.8047L98.7064 50.6131L90.3245 51.3464C89.7083 53.2102 88.8222 54.9721 87.6918 56.5711L91.9642 63.6952L86.877 68.2376L80.4301 62.8346C79.5542 63.2726 78.6376 63.6545 77.6803 63.9702C76.7484 64.2758 75.8114 64.51 74.8744 64.673L72.8579 72.729L66.0494 72.342L65.3162 63.96C63.4524 63.3439 61.6905 62.4578 60.0915 61.3273L52.9673 65.5998L48.425 60.5125L53.8279 54.0657C53.39 53.1898 53.0081 52.2732 52.6923 51.3158C52.3868 50.384 52.1525 49.447 51.9896 48.51V48.5151Z" stroke="#F2DEFF" stroke-width="3.5" stroke-miterlimit="10"/>
<path d="M61.2317 48.5207C59.373 42.8427 62.464 36.732 68.1419 34.8733C73.8198 33.0146 79.9306 36.1056 81.7893 41.7835C83.648 47.4615 80.5569 53.5722 74.879 55.4309C69.2011 57.2896 63.0904 54.1986 61.2317 48.5207Z" stroke="#F2DEFF" stroke-width="3.5" stroke-miterlimit="10"/>
</svg>
