<svg width="98" height="81" viewBox="0 0 98 81" fill="none" xmlns="http://www.w3.org/2000/svg">
<g clip-path="url(#clip0_1073_3037)">
<path d="M29.9375 79.3525H61.3796H68.0553" stroke="#F2DEFF" stroke-width="3.5" stroke-miterlimit="10" stroke-linecap="round"/>
<path d="M92.741 0.993164H5.2496C3.07736 0.993164 1.31641 2.75412 1.31641 4.92636V64.3415C1.31641 66.5138 3.07736 68.2747 5.2496 68.2747H92.741C94.9132 68.2747 96.6742 66.5138 96.6742 64.3415V4.92636C96.6742 2.75412 94.9132 0.993164 92.741 0.993164Z" stroke="#F2DEFF" stroke-width="3.5" stroke-miterlimit="10" stroke-linecap="round"/>
<path d="M54.0156 68.2744L58.9849 79.3521" stroke="#F2DEFF" stroke-width="3.5" stroke-miterlimit="10" stroke-linecap="round"/>
<path d="M43.981 68.2744L39.0117 79.3521" stroke="#F2DEFF" stroke-width="3.5" stroke-miterlimit="10" stroke-linecap="round"/>
<path d="M96.6828 59.5459H1.32031" stroke="#F2DEFF" stroke-width="3.5" stroke-miterlimit="10" stroke-linecap="round"/>
<path d="M47.0898 63.9898C47.0898 62.935 47.9477 62.0771 49.0025 62.0771C50.0573 62.0771 50.9152 62.935 50.9152 63.9898C50.9152 65.0446 50.0573 65.9025 49.0025 65.9025C47.9477 65.9025 47.0898 65.0446 47.0898 63.9898Z" stroke="#F2DEFF" stroke-width="3.5" stroke-miterlimit="10" stroke-linecap="round"/>
<path d="M11.1133 19.0186H50.0421" stroke="#F2DEFF" stroke-width="3.5" stroke-miterlimit="10"/>
<path d="M11.1133 24.0488H50.0421" stroke="#F2DEFF" stroke-width="3.5" stroke-miterlimit="10"/>
<path d="M11.1133 41.249H50.0421" stroke="#F2DEFF" stroke-width="3.5" stroke-miterlimit="10"/>
<path d="M11.1133 46.2793H50.0421" stroke="#F2DEFF" stroke-width="3.5" stroke-miterlimit="10"/>
<path d="M57.7005 16.3374C60.8079 13.2301 65.8461 13.23 68.9535 16.3374C72.0608 19.4448 72.0608 24.483 68.9535 27.5903C65.8461 30.6977 60.8079 30.6976 57.7005 27.5903C54.5932 24.483 54.5932 19.4448 57.7005 16.3374Z" stroke="#F2DEFF" stroke-width="2" stroke-miterlimit="10"/>
<path d="M59.8633 22.1391L61.8603 24.3143L66.7921 19.6123" stroke="#F2DEFF" stroke-miterlimit="10"/>
<path d="M57.7005 36.9204C60.8079 33.8131 65.8461 33.8131 68.9535 36.9204C72.0608 40.0278 72.0608 45.066 68.9535 48.1733C65.8461 51.2807 60.8079 51.2806 57.7005 48.1733C54.5932 45.066 54.5932 40.0278 57.7005 36.9204Z" stroke="#F2DEFF" stroke-width="2" stroke-miterlimit="10"/>
<path d="M59.8633 42.7221L61.8603 44.8973L66.7921 40.1953" stroke="#F2DEFF" stroke-miterlimit="10"/>
<path d="M77.3763 36.9204C80.4837 33.8131 85.5219 33.8131 88.6293 36.9204C91.7365 40.0278 91.7365 45.066 88.6293 48.1733C85.5219 51.2807 80.4837 51.2806 77.3763 48.1733C74.2689 45.066 74.2689 40.0278 77.3763 36.9204Z" stroke="#F2DEFF" stroke-width="2" stroke-miterlimit="10"/>
<path d="M79.5391 42.7221L81.5361 44.8973L86.4679 40.1953" stroke="#F2DEFF" stroke-miterlimit="10"/>
<path d="M77.3763 16.3364C80.4837 13.2291 85.5219 13.2291 88.6293 16.3364C91.7365 19.4438 91.7365 24.482 88.6293 27.5894C85.5219 30.6967 80.4837 30.6967 77.3763 27.5894C74.2689 24.482 74.2689 19.4438 77.3763 16.3364Z" stroke="#F2DEFF" stroke-width="2" stroke-miterlimit="10"/>
<path d="M79.5391 22.1381L81.5361 24.3133L86.4679 19.6113" stroke="#F2DEFF" stroke-miterlimit="10"/>
<path d="M1.32031 7.27051H96.6734" stroke="#F2DEFF" stroke-width="3.5" stroke-miterlimit="10"/>
</g>
<defs>
<clipPath id="clip0_1073_3037">
<rect width="97.0079" height="80" fill="white" transform="translate(0.496094 0.172852)"/>
</clipPath>
</defs>
</svg>
